<svg height="512pt" viewBox="0 0 512.00175 512" width="512pt" xmlns="http://www.w3.org/2000/svg"><g fill-rule="evenodd"><path d="m171.40625 368.882812-28.285156-28.285156c-7.777344-7.777344-20.503906-7.777344-28.28125 0l-98.996094 98.992188c-7.777344 7.777344-7.777344 20.507812 0 28.285156l28.285156 28.28125c7.777344 7.777344 20.503906 7.777344 28.28125 0l98.996094-98.992188c7.777344-7.777343 7.777344-20.503906 0-28.28125zm0 0" fill="#858fa6"/><path d="m143.117188 340.597656 35.355468-35.355468 28.285156 28.28125-35.355468 35.355468zm0 0" fill="#f8f8f8"/><path d="m178.476562 305.242188 28.285157 28.28125 28.285156 28.285156c7.777344 7.777344 20.503906 7.777344 28.28125 0s7.777344-20.503906 0-28.28125l-14.078125-14.078125c-.019531-.023438-.042969-.042969-.0625-.066407l-56.566406-56.566406c-.023438-.019531-.042969-.042968-.0625-.0625l-14.082032-14.078125c-7.777343-7.78125-20.503906-7.78125-28.285156 0-7.777344 7.777344-7.777344 20.503907 0 28.28125zm0 0" fill="#ff6977"/><path d="m192.621094 262.816406 56.566406 56.566406.0625.066407c7.785156 7.714843 20.460938 7.691406 28.21875-.066407l42.59375-42.59375c7.777344-7.777343 7.777344-20.503906 0-28.28125l-56.566406-56.570312c-7.777344-7.777344-20.507813-7.777344-28.285156 0l-42.59375 42.59375c-7.753907 7.757812-7.777344 20.4375-.0625 28.21875zm0 0" fill="#dca98a"/><path d="m263.496094 191.9375 56.566406 56.570312 14.144531 14.140626c7.777344 7.777343 20.503907 7.777343 28.28125 0 7.777344-7.777344 7.777344-20.503907 0-28.28125l-11.285156-11.289063-62.277344-62.277344-11.289062-11.285156c-7.777344-7.777344-20.503907-7.777344-28.28125 0-7.777344 7.777344-7.777344 20.503906 0 28.28125zm0 0" fill="#f5828c"/><path d="m288.925781 160.800781 62.277344 62.277344c6.207031 6.207031 16.363281 6.207031 22.570313 0l33.996093-33.996094c6.207031-6.207031 6.207031-16.363281 0-22.570312l-62.335937-62.335938c-6.210938-6.148437-16.328125-6.128906-22.515625.058594l-33.992188 33.992187c-6.207031 6.207032-6.207031 16.367188 0 22.574219zm0 0" fill="#efc9b4"/><path d="m345.492188 104.234375 73.5625 73.5625c7.777343 7.777344 20.507812 7.777344 28.285156 0s7.777344-20.503906 0-28.28125l-84.851563-84.851563c-7.777343-7.777343-20.503906-7.777343-28.28125 0-7.777343 7.777344-7.777343 20.503907 0 28.285157l11.230469 11.226562c.015625.019531.035156.039063.054688.058594zm0 0" fill="#ff6977"/><path d="m378.023438 80.199219 53.78125 53.777343c4.65625 4.65625 12.273437 4.65625 16.929687 0l25.496094-25.496093c4.652343-4.652344 4.652343-12.273438 0-16.929688l-12.75-12.746093-41.03125-41.03125c-4.65625-4.65625-12.273438-4.65625-16.929688 0l-25.496093 25.496093c-4.65625 4.65625-4.65625 12.273438 0 16.929688zm0 0" fill="#ffd89e"/><path d="m433.199219 50.523438 28.28125 28.28125 34.6875-34.6875c7.777343-7.777344 7.777343-20.503907 0-28.28125-7.777344-7.777344-20.503907-7.777344-28.28125 0zm0 0" fill="#f8f8f8"/></g><path d="m512 29.976562c0-8.027343-3.109375-15.5625-8.761719-21.214843-5.648437-5.648438-13.183593-8.761719-21.210937-8.761719-8.03125 0-15.5625 3.113281-21.214844 8.761719l-27.613281 27.617187-5.675781-5.675781c-4.144532-4.140625-9.660157-6.421875-15.539063-6.421875s-11.394531 2.28125-15.535156 6.421875l-26.890625 26.890625c-11.695313-11.699219-30.726563-11.695312-42.425782 0-9.496093 9.496094-11.28125 23.824219-5.359374 35.140625-2.128907 1.160156-4.128907 2.628906-5.925782 4.429687l-33.996094 33.992188c-1.777343 1.777344-3.257812 3.773438-4.433593 5.925781-11.316407-5.921875-25.640625-4.132812-35.136719 5.359375-9.769531 9.769532-11.371094 24.652344-4.820312 36.109375-3.386719 1.457031-6.558594 3.558594-9.320313 6.316407l-42.59375 42.59375c-2.761719 2.761718-4.859375 5.933593-6.316406 9.320312-11.457031-6.546875-26.339844-4.945312-36.109375 4.824219-11.695313 11.695312-11.695313 30.726562 0 42.425781l21.210937 21.210938-22.425781 22.429687c-11.152344-5.308594-24.921875-3.363281-34.140625 5.855469l-17.675781 17.675781c-3.902344 3.902344-3.90625 10.234375 0 14.140625s10.238281 3.90625 14.140625 0l17.675781-17.675781c3.898438-3.898438 10.246094-3.898438 14.144531 0l28.28125 28.285156c3.898438 3.898437 3.898438 10.242187 0 14.140625l-98.992187 98.992188c-3.898438 3.898437-10.242188 3.898437-14.140625 0l-28.285157-28.285157c-3.898437-3.898437-3.898437-10.242187 0-14.140625l17.679688-17.679687c3.90625-3.90625 3.90625-10.238281 0-14.140625-3.902344-3.90625-10.234375-3.90625-14.140625 0l-17.679687 17.679687c-11.699219 11.695313-11.699219 30.726563 0 42.425781l28.285156 28.28125c5.847656 5.847657 13.527344 8.773438 21.210937 8.773438 7.683594 0 15.363281-2.925781 21.210938-8.773438l98.992187-98.992187c9.21875-9.21875 11.167969-22.992187 5.855469-34.140625l22.429687-22.429688 21.214844 21.214844c5.652344 5.648438 13.183594 8.761719 21.210938 8.761719s15.5625-3.113281 21.214844-8.761719c9.769531-9.769531 11.371093-24.652344 4.824218-36.109375 3.382813-1.457031 6.554688-3.558593 9.316406-6.316406l42.59375-42.59375c2.71875-2.722656 4.84375-5.878906 6.324219-9.316406 4.597657 2.625 9.742188 3.945312 14.890625 3.945312 7.679688 0 15.363282-2.925781 21.210938-8.773437 5.648437-5.648438 8.761718-13.183594 8.761718-21.210938 0-4.9375-1.179687-9.6875-3.402343-13.929687 2.128906-1.15625 4.128906-2.628907 5.929687-4.429688l33.992188-33.992187c1.777344-1.777344 3.261718-3.773438 4.433594-5.925782 4.347656 2.273438 9.136718 3.410157 13.925781 3.410157 7.679687 0 15.363281-2.921875 21.210937-8.769531 11.695313-11.699219 11.695313-30.730469 0-42.425782l26.890625-26.890625c8.566407-8.566406 8.566407-22.503906 0-31.070312l-5.675781-5.679688 27.617188-27.613281c5.648437-5.648438 8.757812-13.183594 8.757812-21.210938zm-340.59375 324.761719-14.140625-14.140625 21.210937-21.214844 14.144532 14.140626zm84.851562 0c-1.871093 1.875-4.382812 2.90625-7.070312 2.90625s-5.199219-1.03125-7.070312-2.90625l-56.566407-56.5625s0-.003906-.003906-.003906v-.003906l-28.28125-28.28125c-1.875-1.871094-2.90625-4.382813-2.90625-7.070313 0-2.683594 1.03125-5.195312 2.90625-7.070312 1.949219-1.949219 4.507813-2.921875 7.070313-2.921875s5.121093.972656 7.070312 2.921875l14.132812 14.132812c.003907.003906.007813.007813.007813.011719.003906 0 .003906 0 .007813.003906l56.554687 56.558594c.003906 0 .003906.003906.007813.003906 0 .003907.007812.007813.007812.007813l14.132812 14.132812c3.898438 3.898438 3.898438 10.242188 0 14.140625zm56.734376-85.019531-42.59375 42.59375c-3.894532 3.898438-10.238282 3.902344-14.136719.007812l-56.578125-56.578124c-3.890625-3.898438-3.890625-10.238282.007812-14.136719l42.59375-42.59375c3.898438-3.898438 10.242188-3.898438 14.140625 0l56.5625 56.5625c.003907.003906.003907.003906.003907.003906 1.875 1.875 2.90625 4.386719 2.90625 7.070313 0 2.6875-1.03125 5.199218-2.90625 7.070312zm42.425781-14.140625c-3.894531 3.898437-10.242188 3.898437-14.140625 0l-84.851563-84.851563c-1.875-1.871093-2.90625-4.382812-2.90625-7.070312s1.035157-5.199219 2.90625-7.070312c1.949219-1.949219 4.507813-2.925782 7.070313-2.925782s5.121094.976563 7.070312 2.925782l84.851563 84.851562c1.875 1.871094 2.90625 4.382812 2.90625 7.070312s-1.03125 5.195313-2.90625 7.070313zm45.28125-73.566406-33.996094 33.996093c-2.285156 2.285157-6.144531 2.285157-8.429687 0l-62.277344-62.28125c-1.113282-1.109374-1.726563-2.609374-1.726563-4.210937 0-1.605469.609375-3.101563 1.726563-4.214844l33.992187-33.996093c2.285157-2.285157 6.144531-2.285157 8.429688 0l62.277343 62.273437s0 .003906.003907.003906c1.113281 1.113281 1.726562 2.609375 1.726562 4.214844s-.613281 3.101563-1.726562 4.214844zm66.460937-80.597657-27.089844 27.085938c-.636718.636719-1.429687.585938-1.734374.535156-4.285157-.699218-8.527344 1.449219-10.503907 5.3125-1.980469 3.863282-1.242187 8.5625 1.828125 11.628906l10.609375 10.609376c3.898438 3.898437 3.898438 10.242187 0 14.140624-3.898437 3.898438-10.242187 3.898438-14.144531 0l-73.558594-73.558593c0-.003907-.003906-.003907-.003906-.003907-.003906-.003906-.007812-.007812-.011719-.007812l-11.277343-11.28125c-3.898438-3.898438-3.898438-10.242188 0-14.140625 1.949218-1.949219 4.511718-2.925781 7.070312-2.925781 2.5625 0 5.121094.976562 7.070312 2.925781l10.605469 10.601563c3.066407 3.070312 7.761719 3.808593 11.625 1.832031 3.863281-1.972657 6.011719-6.214844 5.316407-10.496094-.050782-.3125-.097657-1.101563.535156-1.734375l27.09375-27.09375c.464844-.464844 1.015625-.5625 1.394531-.5625s.929687.097656 1.394531.5625l12.742188 12.742188s0 .003906.003906.003906c0 .003906.003906.003906.003906.003906l28.273438 28.273438c.003906.003906.003906.003906.003906.007812.003906 0 .003906 0 .007812.003906l12.742188 12.742188c.757812.757812.757812 2.035156.003906 2.792968zm21.9375-64.367187-27.617187 27.617187-14.140625-14.144531 27.613281-27.613281c3.898437-3.898438 10.246094-3.898438 14.144531 0 3.898438 3.898438 3.898438 10.242188 0 14.140625zm0 0"/><path d="m268.433594 253.0625-.007813.007812c-3.714843 4.085938-3.410156 10.40625.675781 14.121094 1.917969 1.742188 4.324219 2.601563 6.722657 2.601563 2.722656 0 5.433593-1.105469 7.40625-3.277344 3.714843-4.085937 3.414062-10.410156-.671875-14.125-4.085938-3.714844-10.410156-3.414063-14.125.671875zm0 0"/><path d="m227.246094 242.988281-.003906.003907c-3.714844 4.085937-3.414063 10.40625.671874 14.125 1.917969 1.738281 4.324219 2.597656 6.722657 2.597656 2.722656 0 5.433593-1.105469 7.40625-3.273438 3.714843-4.085937 3.414062-10.414062-.671875-14.128906-4.089844-3.714844-10.410156-3.414062-14.125.675781zm0 0"/><path d="m329.21875 144.179688-.007812.007812c-3.902344 3.902344-3.902344 10.234375.003906 14.136719 1.953125 1.953125 4.511718 2.929687 7.070312 2.929687s5.121094-.976562 7.074219-2.929687c3.902344-3.90625 3.902344-10.238281 0-14.144531-3.90625-3.902344-10.234375-3.902344-14.140625 0zm0 0"/><path d="m65.339844 400.09375c2.71875 0 5.429687-1.101562 7.402344-3.273438l.003906-.003906c3.714844-4.085937 3.410156-10.40625-.675782-14.121094-4.085937-3.714843-10.410156-3.414062-14.125.671876-3.71875 4.085937-3.414062 10.414062.671876 14.128906 1.914062 1.738281 4.320312 2.597656 6.722656 2.597656zm0 0"/><path d="m412.308594 100.359375c-3.714844-4.089844-10.035156-4.386719-14.125-.671875-4.085938 3.714844-4.382813 10.042969-.667969 14.128906 1.972656 2.167969 4.683594 3.273438 7.402344 3.273438 2.398437 0 4.804687-.859375 6.722656-2.601563 4.085937-3.714843 4.386719-10.039062.671875-14.125zm0 0"/></svg>