<svg height="511pt" viewBox="0 -86 511.997 511" width="511pt" xmlns="http://www.w3.org/2000/svg"><g fill-rule="evenodd"><path d="m10 265.921875c0-5.507813 2.011719-11.015625 6.039062-15.195313l225.324219-233.960937c8.050781-8.355469 21.222657-8.355469 29.273438 0l225.324219 233.960937c4.027343 4.179688 6.039062 9.6875 6.039062 15.195313h-266.699219l-103.496093.003906-87.972657-.003906zm0 0" fill="#ffecd1"/><path d="m379.199219 304.875c15.722656-6.726562 27.550781-21.261719 31.007812-38.953125h60.027344c-5.175781 25.792969-34.589844 60.714844-91.035156 38.953125zm0 0" fill="#78d0a9"/><path d="m410.207031 265.921875c-3.457031 17.691406-15.285156 32.226563-31.007812 38.953125-6.074219 2.601562-12.726563 4.035156-19.703125 4.035156-9.769532 0-18.90625-2.8125-26.703125-7.699218-12.179688-7.632813-21.085938-20.332032-24.007813-35.289063zm0 0" fill="#ff6977"/><path d="m308.785156 265.921875c2.921875 14.957031 11.828125 27.65625 24.007813 35.292969-34.363281-1.171875-32.035157 27.574218-58.425781 29.1875-26.390626 1.609375-29.410157-17.523438-65.632813-17.523438 15.847656-9.183594 26.566406-26.769531 26.566406-46.953125h73.484375zm0 0" fill="#78d0a9"/><path d="m235.300781 265.921875c0 20.1875-10.71875 37.773437-26.566406 46.953125-7.453125 4.320312-16.039063 6.78125-25.179687 6.78125-13.230469 0-25.300782-5.15625-34.449219-13.636719-10.613281-9.839843-17.300781-24.15625-17.300781-40.09375zm0 0" fill="#ff6977"/><path d="m131.808594 265.925781c0 15.9375 6.683594 30.257813 17.300781 40.097657-31.792969 15.78125-99.066406 15.78125-105.277344-40.101563zm0 0" fill="#78d0a9"/></g><path d="m503.164062 243.789062-225.324218-233.957031c-5.796875-6.019531-13.550782-9.332031-21.839844-9.332031s-16.042969 3.3125-21.839844 9.332031l-68.734375 71.367188c-3.828125 3.976562-3.710937 10.308593.269531 14.140625 3.976563 3.828125 10.308594 3.710937 14.140626-.265625l68.730468-71.371094c1.992188-2.066406 4.632813-3.203125 7.433594-3.203125 2.804688 0 5.445312 1.136719 7.433594 3.203125l223.652344 232.222656h-16.84375c-.035157 0-.066407 0-.101563 0h-60c-.015625 0-.035156 0-.050781 0h-101.1875c-.015625 0-.03125 0-.046875 0h-283.9375l92.484375-96.03125c3.828125-3.976562 3.710937-10.308593-.269532-14.136719-3.976562-3.832031-10.308593-3.714843-14.140624.265626l-94.152344 97.765624c-5.699219 5.914063-8.839844 13.777344-8.839844 22.132813 0 5.523437 4.476562 10 10 10h25.4375c4.101562 17.40625 14.28125 30.941406 29.832031 39.429687 12.617188 6.886719 27.4375 9.789063 42.023438 9.789063 14.449219 0 28.652343-2.855469 40.25-7.492187 10.144531 7.542968 22.578125 12.007812 36.007812 12.007812 9.914063 0 19.277344-2.4375 27.585938-6.738281 14.929687.402343 22.613281 4.507812 30.707031 8.851562 7.65625 4.109375 16.253906 8.726563 29.492188 8.726563 1.175781 0 2.386718-.039063 3.640624-.113282 15.949219-.976562 24.300782-9.746093 31.007813-16.792968 6.710937-7.046875 11.664063-12.242188 24.144531-12.402344 8.804688 4.933594 18.832032 7.722656 29.363282 7.722656 6.855468 0 13.496093-1.191406 19.730468-3.375 12.574219 4.433594 23.667969 6.15625 33.300782 6.15625 14.65625 0 25.941406-3.96875 33.941406-8.363281 16.742187-9.199219 26.71875-24.199219 31.34375-37.402344h24.1875c5.523437 0 10-4.480469 10-10 .003906-8.359375-3.132813-16.222656-8.832032-22.136719zm-428.308593 54.011719c-9.070313-4.953125-15.296875-12.289062-18.625-21.875h66.34375c1.441406 9.417969 4.890625 18.15625 9.878906 25.730469-18.015625 5.046875-41.261719 5.0625-57.597656-3.855469zm68.066406-21.878906h81.265625c-4.328125 19.308594-20.898438 33.734375-40.632812 33.734375-19.734376 0-36.304688-14.425781-40.632813-33.734375zm148.578125 33.878906c-6.332031 6.652344-10 10.144531-17.742188 10.617188-9.664062.59375-15.03125-2.285157-22.453124-6.269531-5.324219-2.855469-11.390626-6.109376-19.605469-8.382813 6.582031-8.457031 11.125-18.667969 12.835937-29.839844h56.5625c2.324219 6.960938 5.773438 13.339844 10.109375 18.933594-9.109375 3.824219-14.949219 9.945313-19.707031 14.941406zm31.25-33.878906h73.492188c-7.144532 13.820313-21.148438 22.988281-36.746094 22.988281s-29.601563-9.167968-36.746094-22.988281zm114.085938 19.878906c-9.707032 5.332031-21.371094 7.015625-34.355469 5.082031 6.855469-6.855468 12.207031-15.355468 15.414062-24.960937h38.203125c-3.867187 7.40625-10.125 14.855469-19.261718 19.878906zm0 0"/><path d="m373.804688 216.117188v-.007813c0-5.523437-4.480469-9.996094-10-9.996094-5.523438 0-10 4.480469-10 10.003907 0 5.523437 4.476562 10 10 10 5.519531 0 10-4.476563 10-10zm0 0"/><path d="m318.265625 155.945312c5.523437 0 10-4.476562 10-10v-.007812c0-5.523438-4.476563-9.996094-10-9.996094s-10 4.480469-10 10.003906c0 5.523438 4.476563 10 10 10zm0 0"/><path d="m132.320312 228.058594c5.523438 0 10-4.476563 10-10v-.007813c0-5.523437-4.476562-9.996093-10-9.996093-5.519531 0-10 4.480468-10 10.003906 0 5.523437 4.480469 10 10 10zm0 0"/><path d="m225.652344 190.007812c0 5.523438 4.476562 10 10 10 5.519531 0 10-4.476562 10-10v-.007812c0-5.523438-4.480469-9.996094-10-9.996094-5.523438 0-10 4.480469-10 10.003906zm0 0"/><path d="m249.609375 107.796875v-.007813c0-5.523437-4.480469-9.996093-10-9.996093-5.523437 0-10 4.480469-10 10.003906s4.476563 10 10 10c5.519531 0 10-4.476563 10-10zm0 0"/><path d="m141.410156 130.550781c2.71875 0 5.425782-1.105469 7.402344-3.273437l.003906-.007813c3.714844-4.085937 3.410156-10.40625-.675781-14.121093-4.089844-3.714844-10.414063-3.414063-14.128906.675781-3.714844 4.085937-3.414063 10.410156.671875 14.125 1.917968 1.742187 4.324218 2.601562 6.726562 2.601562zm0 0"/></svg>