<svg height="511pt" viewBox="-95 1 511 511.999" width="511pt" xmlns="http://www.w3.org/2000/svg"><g fill-rule="evenodd"><path d="m50.5 50v92h160v-92c0-22-18-40-40-40h-80c-22 0-40 18-40 40zm0 0" fill="#c9a0e1"/><path d="m210.5 142h-160c-11 0-20 9-20 20v40h200v-40c0-11-9-20-20-20zm0 0" fill="#b278d3"/><path d="m230.5 202h-200v240h200zm0 0" fill="#ffecd1"/><path d="m230.5 442h-200v40c0 11 9 20 20 20h160c11 0 20-9 20-20zm0 0" fill="#b278d3"/><path d="m230.5 402v40h60c11 0 20-9 20-20v-200c0-10.996094-9-20-20-20h-60v40h40v160zm0 0" fill="#c9a0e1"/></g><path d="m130.507812 392h-.007812c-5.523438 0-9.996094 4.476562-9.996094 10s4.480469 10 10.003906 10c5.523438 0 10-4.476562 10-10s-4.480468-10-10-10zm0 0"/><path d="m290.5 192h-50v-30c0-13.035156-8.363281-24.152344-20-28.277344v-83.722656c0-27.570312-22.429688-50-50-50h-80c-24.144531 0-44.347656 17.203125-48.992188 40h-11.007812c-16.542969 0-30 13.457031-30 30v32c0 16.542969 13.457031 30 30 30h10v1.71875c-11.636719 4.128906-20 15.246094-20 28.28125v320c0 16.542969 13.457031 30 30 30h160c16.542969 0 30-13.457031 30-30v-30h50c16.539062 0 30-13.457031 30-30v-200c0-16.542969-13.460938-30-30-30zm-260-80c-5.515625 0-10-4.484375-10-10v-32c0-5.515625 4.484375-10 10-10h10v52zm20 40h35.003906c5.523438 0 10-4.476562 10-10s-4.476562-10-10-10h-25.003906v-82c0-16.542969 13.457031-30 30-30h80c16.542969 0 30 13.457031 30 30v82h-24.996094c-5.523437 0-10 4.476562-10 10s4.476563 10 10 10h34.996094c5.511719 0 10 4.488281 10 10v30h-180v-30c0-5.511719 4.484375-10 10-10zm190 100h20v140h-20zm-20 140h-44.996094c-5.523437 0-10 4.476562-10 10s4.476563 10 10 10h44.996094v20h-180v-220h180zm0 90c0 5.515625-4.488281 10-10 10h-160c-5.515625 0-10-4.484375-10-10v-30h180zm80-60c0 5.515625-4.488281 10-10 10h-50v-20h30c5.519531 0 10-4.476562 10-10v-160c0-5.523438-4.480469-10-10-10h-30v-20h50c5.511719 0 10 4.488281 10 10zm0 0"/><path d="m120.789062 318.800781c-1.429687 5.335938 1.734376 10.816407 7.070313 12.246094.867187.234375 1.738281.34375 2.59375.34375 4.414063 0 8.457031-2.945313 9.652344-7.414063 2.910156-10.855468 1.398437-18.386718.1875-24.4375-1.003907-4.992187-1.726563-8.597656-.1875-14.339843 1.429687-5.332031-1.734375-10.816407-7.070313-12.246094-5.332031-1.429687-10.816406 1.738281-12.246094 7.070313-2.75 10.257812-1.285156 17.570312-.105468 23.445312 1.042968 5.222656 1.800781 8.996094.105468 15.332031zm0 0"/><path d="m80.679688 323.46875c1.046874 5.222656 1.804687 8.996094.105468 15.332031-1.429687 5.332031 1.738282 10.816407 7.070313 12.246094.867187.234375 1.738281.34375 2.59375.34375 4.417969 0 8.457031-2.945313 9.65625-7.414063 2.90625-10.851562 1.398437-18.386718.183593-24.4375-1-4.992187-1.722656-8.597656-.183593-14.339843 1.429687-5.332031-1.738281-10.816407-7.074219-12.246094s-10.816406 1.738281-12.246094 7.070313c-2.746094 10.257812-1.28125 17.570312-.105468 23.445312zm0 0"/><path d="m160.789062 338.800781c-1.429687 5.332031 1.734376 10.816407 7.070313 12.246094.867187.234375 1.738281.34375 2.59375.34375 4.414063 0 8.457031-2.945313 9.652344-7.414063 2.910156-10.851562 1.398437-18.386718.1875-24.4375-1-4.992187-1.722657-8.597656-.1875-14.339843 1.429687-5.332031-1.734375-10.816407-7.070313-12.246094-5.335937-1.429687-10.816406 1.738281-12.246094 7.070313-2.75 10.257812-1.28125 17.570312-.105468 23.445312 1.046875 5.222656 1.800781 8.996094.105468 15.332031zm0 0"/><path d="m130.507812 152c5.523438 0 10-4.476562 10-10s-4.476562-10-10-10h-.007812c-5.523438 0-9.996094 4.476562-9.996094 10s4.480469 10 10.003906 10zm0 0"/></svg>