<svg height="512pt" viewBox="0 0 512 512.00094" width="512pt" xmlns="http://www.w3.org/2000/svg"><g fill-rule="evenodd"><path d="m158.480469 415.402344c-.007813-29.019532-23.546875-52.542969-52.582031-52.542969-29.042969 0-52.585938 23.53125-52.585938 52.558594-23.921875 0-43.3125 19.382812-43.3125 43.292969 0 24.214843 19.710938 43.289062 43.3125 43.289062h156.695312c11.910157 0 21.65625-9.742188 21.65625-21.644531 0-11.90625-9.746093-21.648438-21.65625-21.648438h-20.894531c1.199219-3.382812 1.851563-7.027343 1.851563-10.820312 0-17.933594-14.542969-32.46875-32.484375-32.46875 0-.003907 0-.011719 0-.015625zm0 0" fill="#f8f8f8"/><path d="m215.246094 353.136719c0 31.324219 25.5 56 56.027344 56h202.703124c15.410157 0 28.015626-12.601563 28.015626-28 0-15.398438-12.605469-28-28.015626-28h-27.023437c1.546875-4.378907 2.390625-9.09375 2.390625-14 0-23.199219-18.8125-42.003907-42.019531-42.003907 0-.007812 0-.011718 0-.019531-.003907-15.625-5.285157-30.011719-14.152344-41.492187-1.910156.882812-3.933594 1.289062-5.933594 1.261718l-29.585937-.027343c-5.421875 0-10.023438 4.777343-10.019532 9.828125l.019532 29.980468c-.011719 7.601563-6.179688 13.753907-13.78125 13.742188-2.5625 0-4.960938-.707031-7.015625-1.929688l-25.605469-14.816406c-4.695312-2.710937-11.070312-.875-13.59375 3.5l-14.972656 25.972656c-3.808594 6.578126-12.230469 8.820313-18.804688 5.011719-2.21875-1.285156-3.945312-3.09375-5.109375-5.179687l-9.214843-15.996094c-14.679688 10.101562-24.308594 27.007812-24.308594 46.167969zm0 0" fill="#f8f8f8"/><path d="m248.765625 322.964844c1.167969 2.085937 2.890625 3.898437 5.109375 5.183594 6.578125 3.808593 15 1.566406 18.808594-5.011719l14.972656-25.976563c2.523438-4.375 8.894531-6.210937 13.59375-3.5l25.605469 14.816406c2.054687 1.226563 4.453125 1.929688 7.015625 1.933594 7.601562.007813 13.769531-6.144531 13.78125-13.746094l-.019532-29.980468c-.003906-5.046875 4.597657-9.828125 10.019532-9.824219l29.585937.027344c2 .027343 4.023438-.382813 5.933594-1.261719.375-.171875.742187-.363281 1.105469-.574219 6.589844-3.789062 8.855468-12.207031 5.0625-18.792969l-15.007813-25.953124c-2.527343-4.371094-.929687-10.8125 3.765625-13.519532l25.632813-14.773437c2.085937-1.164063 3.898437-2.890625 5.183593-5.109375 3.808594-6.574219 1.5625-14.996094-5.011718-18.804688l-25.976563-14.972656c-4.375-2.523438-6.210937-8.898438-3.5-13.59375l14.816407-25.609375c1.222656-2.050781 1.929687-4.449219 1.933593-7.011719.007813-7.601562-6.144531-13.773437-13.746093-13.785156l-29.980469.023438c-5.050781.003906-9.828125-4.601563-9.824219-10.023438l.023438-29.582031c.035156-2.390625-.554688-4.820313-1.832032-7.042969-3.792968-6.585938-12.207031-8.855469-18.792968-5.0625l-25.957032 15.007812c-4.371094 2.527344-10.808594.929688-13.519531-3.765624l-14.769531-25.632813c-1.164063-2.085937-2.890625-3.898437-5.109375-5.183594-6.574219-3.808593-14.996094-1.5625-18.808594 5.011719l-14.96875 25.972656c-2.519531 4.375-8.894531 6.214844-13.589844 3.5l-25.609375-14.8125c-2.054687-1.226562-4.453125-1.929687-7.015625-1.933594-7.601562-.007812-13.769531 6.144532-13.78125 13.746094l.019531 29.980469c.003907 5.046875-4.597656 9.828125-10.019531 9.828125l-29.585937-.03125c-2.390625-.03125-4.820313.558594-7.039063 1.835938-6.589843 3.792968-8.855469 12.207031-5.066406 18.792968l15.007813 25.953125c2.527343 4.375.933593 10.8125-3.765626 13.523438l-25.632812 14.769531c-2.085938 1.164062-3.894531 2.890625-5.179688 5.105469-3.8125 6.578125-1.566406 15 5.011719 18.808593l25.972657 14.972657c4.375 2.523437 6.210937 8.898437 3.5 13.59375l-14.816407 25.605469c-1.222656 2.054687-1.925781 4.453124-1.929687 7.015624-.011719 7.601563 6.144531 13.769532 13.742187 13.78125l29.980469-.019531c5.050781-.003906 9.828125 4.597657 9.828125 10.019531l-.027344 29.585938c-.03125 2.390625.554688 4.820312 1.835938 7.039062 3.789062 6.589844 12.203125 8.855469 18.792969 5.066407l25.953124-15.007813c4.371094-2.527344 10.8125-.933594 13.523438 3.765625l5.554688 9.640625zm92.007813-152.960938c0 44.183594-35.816407 80-80 80-44.183594 0-80-35.816406-80-80 0-44.179687 35.816406-79.996094 80-79.996094 44.183593 0 80 35.816407 80 79.996094zm0 0" fill="#ff9256"/><path d="m340.773438 170.003906c0 44.183594-35.816407 80-80 80-44.179688 0-80-35.816406-80-80 0-44.179687 35.820312-79.996094 80-79.996094 44.183593 0 80 35.816407 80 79.996094zm0 0" fill="#ffc059"/></g><path d="m473.980469 343.136719h-14.785157c.101563-1.328125.148438-2.664063.148438-4 0-25.441407-18.367188-46.671875-42.542969-51.140625-1.257812-10.875-4.773437-21.238282-10.375-30.628906 5.511719-7.375 6.457031-17.632813 1.574219-26.117188l-14.847656-25.675781c.011718-.070313.035156-.144531.0625-.199219l25.460937-14.671875c3.691407-2.078125 6.765625-5.117187 8.890625-8.789063 3.179688-5.492187 4.035156-11.894531 2.398438-18.027343-1.632813-6.132813-5.558594-11.261719-11.070313-14.457031l-25.695312-14.8125c-.023438-.066407-.039063-.144532-.042969-.207032l14.71875-25.4375c2.152344-3.644531 3.292969-7.808594 3.300781-12.050781.007813-6.347656-2.457031-12.320313-6.9375-16.8125-4.480469-4.496094-10.445312-6.976563-16.8125-6.984375l-29.660156.019531c-.054687-.042969-.109375-.105469-.140625-.15625l.027344-29.386719c.042968-4.234374-1.050782-8.414062-3.167969-12.089843-6.535156-11.355469-21.089844-15.277344-32.464844-8.734375l-25.679687 14.847656c-.066406-.011719-.144532-.035156-.199219-.0625l-14.667969-25.460938c-2.078125-3.691406-5.117187-6.765624-8.789062-8.890624-5.492188-3.1835942-11.894532-4.03125-18.027344-2.398438s-11.265625 5.558594-14.457031 11.066406l-14.8125 25.699219c-.066407.023437-.144531.039063-.207031.042969l-25.425782-14.710938c-3.648437-2.160156-7.816406-3.304687-12.0625-3.308594-.011718 0-.023437 0-.035156 0-13.085938 0-23.742188 10.640626-23.761719 23.75l.019531 29.660157c-.046874.054687-.105468.109375-.15625.140625l-29.386718-.027344c-4.238282-.054688-8.414063 1.050781-12.089844 3.167969-11.355469 6.535156-15.277344 21.09375-8.734375 32.46875l14.847656 25.675781c-.011719.066406-.035156.144531-.0625.199219l-25.460937 14.667969c-3.6875 2.078124-6.761719 5.117187-8.890625 8.789062-3.179688 5.496094-4.035157 11.894531-2.398438 18.03125 1.632813 6.132812 5.558594 11.261719 11.070313 14.453125l25.695312 14.8125c.023438.066406.039063.144531.042969.207031l-14.714844 25.433594c-2.15625 3.644531-3.300781 7.8125-3.304687 12.058594-.019532 13.101562 10.625 23.777344 23.75 23.792968l29.660156-.019531c.054688.046875.105469.105469.140625.15625l-.027344 29.390625c-.042969 4.230469 1.050781 8.410156 3.167969 12.089844 6.535156 11.355469 21.089844 15.277344 32.464844 8.730469l25.679687-14.847657c.066407.015626.144531.039063.199219.066407l1.203125 2.089843c-13.507813 12.414063-21.363281 29.992188-21.363281 48.597657 0 36.390625 29.621094 66 66.03125 66h202.703125c20.957031 0 38.011719-17.046875 38.011719-38s-17.054688-38-38.011719-38zm-248.851563-60.757813c-3.414062 0-6.769531.859375-9.660156 2.53125l-25.933594 14.996094c-1.800781 1.035156-4.105468.414062-5.140625-1.382812-.34375-.597657-.511719-1.238282-.503906-1.914063 0-.042969.003906-.085937.003906-.128906l.027344-29.59375c0-5.261719-2.113281-10.273438-5.945313-14.113281-3.753906-3.753907-8.808593-5.910157-13.878906-5.910157-.003906 0-.007812 0-.011718 0l-29.957032.019531c-2.078125 0-3.761718-1.691406-3.757812-3.769531 0-.683593.175781-1.328125.519531-1.90625.023437-.039062.042969-.074219.066406-.113281l14.820313-25.613281c2.628906-4.558594 3.308594-9.953125 1.90625-15.195313-1.371094-5.128906-4.675782-9.527344-9.074219-12.058594l-25.953125-14.964843c-1.796875-1.039063-2.410156-3.347657-1.371094-5.140625.34375-.597656.816406-1.0625 1.40625-1.394532.039063-.019531.074219-.042968.113282-.0625l25.640624-14.773437c4.558594-2.632813 7.84375-6.964844 9.25-12.207031 1.378907-5.128906.710938-10.589844-1.828124-14.980469l-14.996094-25.9375c-.675782-1.171875-.523438-2.292969-.371094-2.855469.148438-.5625.578125-1.605468 1.757812-2.28125.578126-.335937 1.203126-.503906 1.855469-.503906h.183594l29.597656.027344c5.261719 0 10.273438-2.109375 14.109375-5.945313 3.757813-3.753906 5.914063-8.816406 5.910156-13.886719l-.019531-29.960937c0-1.355469.691407-2.25 1.105469-2.660156.410156-.410157 1.304688-1.097657 2.65625-1.097657h.007812c.6875 0 1.328126.175782 1.90625.523438.035157.019531.074219.042969.113282.0625l25.613281 14.824219c4.558594 2.628906 9.953125 3.308593 15.195313 1.90625 5.128906-1.371094 9.527343-4.679688 12.0625-9.074219l14.960937-25.957031c.679687-1.171875 1.722656-1.597657 2.289063-1.75.558593-.148438 1.679687-.300781 2.855468.382812.589844.34375 1.058594.816407 1.390625 1.402344.019531.039063.042969.078125.0625.113281l14.773438 25.644532c2.632812 4.558593 6.964843 7.839843 12.207031 9.25 5.128906 1.375 10.589844.710937 14.980469-1.828126l25.9375-15c1.796875-1.035156 4.101562-.414062 5.140625 1.386719.339844.597657.507812 1.238281.5 1.914063v.128906l-.027344 29.59375c0 5.261719 2.109375 10.273438 5.945312 14.113281 3.75 3.753907 8.808594 5.910157 13.875 5.910157h.011719l29.960938-.019532c1.355469 0 2.25.691406 2.660156 1.105469.410156.410156 1.097656 1.304687 1.097656 2.660156 0 .6875-.175781 1.332031-.523437 1.910157-.019532.039062-.042969.074218-.0625.113281l-14.816406 25.605469c0 .003906-.003907.003906-.003907.007812-2.632812 4.558594-3.308593 9.953125-1.910156 15.195312 1.375 5.128907 4.679687 9.527344 9.074219 12.0625l25.957031 14.960938c1.171875.679688 1.601563 1.726562 1.75 2.289062s.300781 1.679688-.378906 2.855469c-.34375.59375-.820313 1.0625-1.410157 1.390625-.035156.023438-.074218.042969-.109374.0625l-25.640626 14.773438c-4.558593 2.632812-7.84375 6.964844-9.25 12.207031-1.378906 5.128906-.710937 10.589844 1.828126 14.980469l14.996093 25.9375c1.035157 1.796875.414063 4.101562-1.386719 5.136718-.113281.070313-.234374.125-.351562.175782-.21875.097656-.4375.171875-.664062.226562-.042969.007813-.082032.015625-.125.023438-.234376.046875-.476563.078125-.71875.078125-.0625 0-.121094 0-.179688 0l-29.59375-.027344h-.003906c-3.945313 0-7.75 1.1875-11.023438 3.398437-1.09375.738282-2.125 1.585938-3.085937 2.546876-3.757813 3.753906-5.914063 8.816406-5.910157 13.886718l.023438 29.960938c0 .238281-.027344.472656-.074219.699218-.003906.03125-.007812.066407-.015625.097657-.050781.21875-.117187.4375-.203125.640625-.003906.019531-.011719.035156-.019531.050781-.089844.207031-.199219.40625-.324219.59375-.007812.011719-.015625.023437-.023437.035156-.265625.386719-.597656.71875-.984375.980469-.011719.007812-.023438.019531-.035157.027344-.1875.125-.382812.230468-.589843.320312-.019531.007813-.039063.015625-.054688.023438-.207031.085937-.417969.148437-.640625.199218-.03125.003907-.066406.011719-.101562.015626-.226563.042968-.457032.070312-.695313.070312 0 0 0 0-.003906 0s-.003906 0-.007813 0c-.683593 0-1.328124-.175781-1.902343-.519531-.039063-.023438-.074219-.042969-.113281-.066407l-25.613282-14.820312c-3.105468-1.792969-6.597656-2.652344-10.160156-2.59375-1.675781.027344-3.363281.238281-5.035156.6875-5.132813 1.371094-9.527344 4.675781-12.0625 9.070312l-14.960938 25.957032c-.121094.207031-.261718.394531-.414062.570312-.019532.027344-.042969.050782-.0625.074219-.152344.167969-.320313.324219-.496094.457031-.015625.011719-.03125.023438-.046875.035156-.179687.132813-.371094.253907-.574219.351563-.015625.007813-.027344.011719-.039062.019531-.421875.199219-.878906.320313-1.34375.355469-.015625 0-.027344.003906-.042969.003906-.226563.015625-.453125.007813-.675781-.019531-.019532 0-.035156-.003906-.054688-.003906-.222656-.03125-.441406-.082032-.660156-.148438-.027344-.011718-.058594-.023437-.089844-.03125-.21875-.078125-.433594-.171875-.640625-.292968-.335937-.191407-.621093-.4375-.875-.710938-.195312-.214844-.375-.4375-.519531-.695312-.019531-.039063-.042969-.074219-.0625-.113282l-9.214844-15.992187c0-.003907-.003906-.003907-.003906-.007813l-5.554688-9.644531c-2.632812-4.554687-6.964843-7.839844-12.207031-9.246094-1.757812-.472656-3.550781-.703125-5.328125-.703125zm248.851563 116.757813h-202.703125c-25.382813 0-46.03125-20.636719-46.03125-46 0-11.425781 4.25-22.300781 11.707031-30.644531l3.125 5.421874c1.035156 1.84375 2.316406 3.53125 3.796875 5.027344 1.476562 1.496094 3.152344 2.792969 4.988281 3.859375.414063.238281.835938.460938 1.257813.671875.121094.0625.246094.121094.367187.179688.320313.15625.644531.300781.972657.441406.117187.050781.238281.105469.363281.15625.871093.355469 1.761719.660156 2.660156.90625.125.035156.25.066406.375.101562.34375.085938.691406.167969 1.039063.242188.125.027344.246093.054688.367187.078125.917969.175781 1.84375.300781 2.773437.367187.128907.007813.257813.015626.390626.023438.351562.019531.707031.027344 1.058593.035156.082031 0 .164063.007813.246094.007813.046875 0 .09375-.003907.136719-.007813.46875 0 .933594-.015625 1.402344-.046875h.019531c.457031-.03125.914062-.078125 1.371093-.136719.136719-.015624.273438-.035156.410157-.054687.339843-.050781.683593-.105469 1.027343-.167969.136719-.027344.273438-.050781.410157-.078125.460937-.097656.921875-.199219 1.382812-.324219 6.132813-1.632812 11.261719-5.558593 14.453125-11.066406l14.8125-25.699218c.066406-.019532.144532-.039063.207032-.042969l14.1875 8.210937 11.25 6.507813c1.640624.96875 3.386718 1.722656 5.199218 2.269531 2.210938.671875 4.519532 1.03125 6.855469 1.035156h.03125c.40625 0 .808594-.011718 1.210937-.03125.046876-.003906.09375-.007812.140626-.011718 5.824218-.324219 11.261718-2.742188 15.425781-6.894532 4.183593-4.171875 6.617187-9.625 6.945312-15.492187 0-.035157.003907-.070313.007813-.109375.019531-.402344.03125-.804688.03125-1.214844l-.019532-29.660156c.042969-.050782.101563-.105469.15625-.140625l29.382813.027343h.003906c.035157 0 .070313-.003906.105469-.003906.503906.007813 1.011719-.003906 1.515625-.035156 4.042969 6.566406 6.6875 13.796875 7.847656 21.394531-5.367187 1.125-10.550781 3.085938-15.332031 5.84375-4.78125 2.761719-6.421875 8.875-3.660156 13.660157 1.851562 3.207031 5.214844 5 8.667968 5 1.699219 0 3.417969-.433594 4.992188-1.339844 4.792969-2.769532 10.242188-4.242188 15.777344-4.28125.078125 0 .15625.011718.234375.011718 17.65625 0 32.019531 14.355469 32.019531 32 0 1.34375-.082031 2.679688-.246094 4h-37.140625c-5.523437 0-10 4.476563-10 10 0 5.523438 4.476563 10 10 10h72.019531c9.933594 0 18.011719 8.074219 18.011719 18 0 9.925782-8.078125 18.003907-18.007812 18.003907zm0 0"/><path d="m210.007812 448.710938h-9.050781c.007813-.273438.007813-.550782.007813-.824219 0-20.203125-14.183594-37.15625-33.125-41.429688-4.359375-30.265625-30.476563-53.597656-61.941406-53.597656-31.390626 0-57.457032 23.214844-61.914063 53.375-24.964844 4.421875-43.984375 26.269531-43.984375 52.476563 0 29.382812 23.917969 53.289062 53.3125 53.289062h156.695312c17.457032 0 31.65625-14.195312 31.65625-31.644531s-14.203124-31.644531-31.65625-31.644531zm0 43.289062h-156.695312c-18.371094 0-33.3125-14.933594-33.3125-33.289062 0-18.359376 14.941406-33.292969 33.3125-33.292969 11.855469 0 22.902344 6.378906 28.832031 16.644531 1.851563 3.210938 5.210938 5.003906 8.667969 5.003906 1.695312 0 3.414062-.433594 4.992188-1.34375 4.78125-2.757812 6.417968-8.875 3.65625-13.660156-7.632813-13.21875-20.570313-22.40625-35.214844-25.496094 4.085937-19.234375 21.207031-33.707031 41.652344-33.707031 20.535156 0 37.722656 14.601563 41.710937 33.964844-3.617187.957031-7.109375 2.386719-10.371094 4.273437-4.78125 2.761719-6.421875 8.875-3.65625 13.660156 1.851563 3.207032 5.210938 5 8.667969 5 1.695312 0 3.414062-.433593 4.988281-1.34375 3.363281-1.9375 7.183594-2.972656 11.0625-3.003906.058594 0 .117188.007813.179688.007813 12.398437 0 22.484375 10.082031 22.484375 22.46875 0 2.570312-.429688 5.089843-1.277344 7.488281-1.082031 3.0625-.613281 6.457031 1.261719 9.105469 1.875 2.652343 4.917969 4.226562 8.164062 4.226562h20.894531c6.425782 0 11.65625 5.226563 11.65625 11.648438s-5.230468 11.644531-11.65625 11.644531zm0 0"/><path d="m350.769531 170.003906c0-49.625-40.371093-89.996094-89.996093-89.996094-5.632813 0-11.292969.53125-16.820313 1.578126-5.429687 1.027343-8.996094 6.257812-7.96875 11.683593s6.261719 8.992188 11.6875 7.964844c4.308594-.8125 8.714844-1.226563 13.101563-1.226563 38.597656 0 70 31.402344 70 70 0 38.59375-31.402344 69.996094-70 69.996094-38.597657 0-70-31.402344-70-69.996094 0-4.386718.414062-8.792968 1.230468-13.097656 1.023438-5.425781-2.542968-10.65625-7.96875-11.683594-5.421875-1.023437-10.65625 2.539063-11.683594 7.964844-1.046874 5.527344-1.578124 11.183594-1.578124 16.816406 0 49.625 40.375 89.996094 90 89.996094s89.996093-40.375 89.996093-90zm0 0"/><path d="m356.960938 343.136719h-.007813c-5.523437 0-9.996094 4.476562-9.996094 10 0 5.523437 4.480469 10 10.003907 10 5.523437 0 10-4.476563 10-10 0-5.523438-4.476563-10-10-10zm0 0"/><path d="m204.199219 123.4375c2.71875 0 5.429687-1.101562 7.40625-3.273438 3.714843-4.085937 3.414062-10.410156-.671875-14.125-4.085938-3.714843-10.414063-3.414062-14.128906.671876l-.003907.003906c-3.714843 4.085937-3.410156 10.410156.675781 14.125 1.914063 1.742187 4.324219 2.597656 6.722657 2.597656zm0 0"/></svg>