<svg height="512pt" viewBox="0 -66 512 512" width="512pt" xmlns="http://www.w3.org/2000/svg"><g fill-rule="evenodd"><path d="m50 60h90v-20c0-11-9-20-20-20h-50c-11 0-20 9-20 20zm0 0" fill="#b5bbc9"/><path d="m130 60h-100c-11 0-20 9-20 20v40h159.691406c28.800782-42.253906 77.3125-70 132.308594-70 54.992188 0 103.507812 27.746094 132.304688 70h67.695312v-40c0-11-9-20-20-20h-85.953125v-26.539062c-28.035156-14.96875-60.046875-23.460938-94.046875-23.460938s-66.011719 8.492188-94.046875 23.460938v26.539062zm0 0" fill="#b5bbc9"/><path d="m169.691406 120h-159.691406v199.996094h175.808594c-13.53125-14.285156-24.453125-31.066406-32.007813-49.582032l-39.808593 10.667969c-10.625 2.847657-21.648438-3.515625-24.496094-14.140625s3.519531-21.648437 14.144531-24.496094l39.828125-10.671874c-.96875-7.121094-1.46875-14.390626-1.46875-21.773438 0-33.371094 10.214844-64.355469 27.691406-90zm0 0" fill="#b278d3"/><path d="m302 50c-54.996094 0-103.507812 27.746094-132.308594 70-17.476562 25.644531-27.691406 56.628906-27.691406 90 0 7.382812.5 14.652344 1.46875 21.773438 1.835938 13.488281 5.351562 26.441406 10.332031 38.640624 7.554688 18.515626 18.476563 35.296876 32.007813 49.585938 16.652344 17.582031 37.257812 31.390625 60.390625 40 17.371093 6.464844 36.171875 10 55.800781 10 19.625 0 38.425781-3.535156 55.800781-10 23.132813-8.609375 43.738281-22.417969 60.390625-40 27.152344-28.675781 43.808594-67.390625 43.808594-110 0-33.371094-10.21875-64.355469-27.695312-90-28.796876-42.253906-77.3125-70-132.304688-70zm-120 160c0-66.273438 53.726562-120 120-120s120 53.726562 120 120-53.726562 120-120 120-120-53.726562-120-120zm0 0" fill="#b5bbc9"/><path d="m434.308594 120c17.472656 25.644531 27.691406 56.628906 27.691406 90 0 42.609375-16.65625 81.324219-43.808594 110h83.808594v-200zm0 0" fill="#b278d3"/><path d="m422 210c0 66.273438-53.726562 120-120 120s-120-53.726562-120-120 53.726562-120 120-120 120 53.726562 120 120zm0 0" fill="#858fa6"/><path d="m153.800781 270.414062c-4.980469-12.199218-8.496093-25.152343-10.332031-38.640624l-39.828125 10.671874c-10.625 2.847657-16.992187 13.867188-14.144531 24.496094 2.847656 10.625 13.871094 16.988282 24.496094 14.140625zm0 0" fill="#b5bbc9"/><path d="m185.808594 319.996094h-175.808594v20.003906c0 11 9 20 20 20h216.199219c-23.132813-8.609375-43.738281-22.417969-60.390625-40.003906zm0 0" fill="#b5bbc9"/><path d="m418.191406 319.996094c-16.65625 17.585937-37.257812 31.394531-60.390625 40.003906h124.199219c11 0 20-9 20-20v-20.003906zm0 0" fill="#b5bbc9"/></g><path d="m302 80c-71.683594 0-130 58.316406-130 130 0 71.679688 58.316406 130 130 130 71.679688 0 130-58.316406 130-130s-58.316406-130-130-130zm0 240c-60.65625 0-110-49.347656-110-110 0-60.65625 49.34375-110 110-110 60.652344 0 110 49.34375 110 110 0 60.652344-49.347656 110-110 110zm0 0"/><path d="m382 200c-5.523438 0-10 4.476562-10 10 0 23.171875-11.453125 44.8125-30.636719 57.886719-4.5625 3.109375-5.742187 9.332031-2.628906 13.894531 1.933594 2.839844 5.074219 4.371094 8.269531 4.371094 1.941406 0 3.902344-.5625 5.625-1.738282 24.652344-16.800781 39.371094-44.621093 39.371094-74.414062 0-5.523438-4.476562-10-10-10zm0 0"/><path d="m482 50h-75.953125v-16.539062c0-3.691407-2.035156-7.085938-5.292969-8.824219-30.191406-16.117188-64.339844-24.636719-98.753906-24.636719s-68.5625 8.519531-98.757812 24.640625c-3.253907 1.738281-5.289063 5.128906-5.289063 8.820313v16.539062h-47.953125v-10c0-16.542969-13.457031-30-30-30h-50c-16.542969 0-30 13.457031-30 30v10h-10c-16.542969 0-30 13.457031-30 30v260c0 16.539062 13.457031 30 30 30h214.550781c17.953125 6.464844 37.296875 10 57.449219 10s39.496094-3.535156 57.449219-10h122.550781c16.542969 0 30-13.460938 30-30v-260c0-16.542969-13.457031-30-30-30zm10 260h-52.613281c20.496093-28.082031 32.613281-62.652344 32.613281-100 0-28.90625-7.261719-56.140625-20.039062-80h40.039062zm-10-240c5.515625 0 10 4.484375 10 10v30h-52.613281c-11.332031-15.53125-25.230469-29.070312-41.066407-40.003906h83.679688zm-264.046875-30.433594c25.972656-12.816406 54.902344-19.566406 84.046875-19.566406s58.070312 6.75 84.046875 19.566406v20.433594c0 .847656.117187 1.664062.3125 2.449219-24.875-14.277344-53.679687-22.449219-84.359375-22.449219s-59.488281 8.171875-84.363281 22.449219c.199219-.785157.316406-1.601563.316406-2.449219zm-157.953125.433594c0-5.515625 4.484375-10 10-10h50c5.515625 0 10 4.484375 10 10v10h-70zm-30 30h175.679688c-15.835938 10.929688-29.734376 24.472656-41.066407 40h-24.613281c-5.519531 0-10 4.476562-10 10s4.480469 10 10 10h12.039062c-12.78125 23.859375-20.039062 51.09375-20.039062 80 0 4.828125.210938 9.605469.609375 14.328125l-31.558594 8.457031c-15.980469 4.28125-25.496093 20.765625-21.214843 36.742188 2.070312 7.71875 7.039062 14.179687 13.992187 18.195312 4.640625 2.679688 9.78125 4.046875 14.980469 4.046875 2.59375 0 5.203125-.339843 7.769531-1.027343l31.578125-8.460938c4.617188 9.78125 10.136719 19.058594 16.457031 27.71875h-144.613281v-180h30c5.523438 0 10-4.476562 10-10s-4.476562-10-10-10h-30v-30c0-5.515625 4.484375-10 10-10zm110.660156 193.582031-29.257812 7.839844c-5.324219 1.425781-10.820313-1.746094-12.246094-7.070313-1.425781-5.324218 1.746094-10.820312 7.070312-12.25l29.246094-7.835937c1.351563 6.585937 3.09375 13.03125 5.1875 19.316406zm-110.660156 86.417969c-5.515625 0-10-4.488281-10-10v-10h161.699219c7.355469 7.371094 15.386719 14.066406 23.980469 20zm122-140c0-82.710938 67.289062-150 150-150s150 67.289062 150 150-67.289062 150-150 150-150-67.289062-150-150zm330 140h-83.683594c8.597656-5.933594 16.628906-12.628906 23.984375-20h69.699219v10c0 5.511719-4.484375 10-10 10zm0 0"/><path d="m302 280h-.007812c-5.523438 0-9.996094 4.476562-9.996094 10s4.480468 10 10.003906 10 10-4.476562 10-10-4.476562-10-10-10zm0 0"/><path d="m95.003906 130c5.523438 0 10-4.476562 10-10s-4.476562-10-10-10h-.007812c-5.519532 0-9.996094 4.476562-9.996094 10s4.480469 10 10.003906 10zm0 0"/></svg>