<svg height="511pt" viewBox="-95 1 511 511.999" width="511pt" xmlns="http://www.w3.org/2000/svg"><g fill-rule="evenodd"><path d="m19.875 60h281.25l-10-50h-261.25zm0 0" fill="#f8f8f8"/><path d="m301.125 60h-281.25c-5.15625 0-9.375 4.21875-9.375 9.375v153.871094h40c0-60.5 49.5-110 110-110s110 49.5 110 110h40v-153.871094c0-5.15625-4.21875-9.375-9.375-9.375zm0 0" fill="#78d0a9"/><path d="m160.5 113.246094c-60.5 0-110 49.5-110 110h-40v75.503906h40c0 60.5 49.5 110 110 110s110-49.5 110-110h40v-75.503906h-40c0-60.5-49.5-110-110-110zm25.910156 117.417968 28.628906 3.121094c8.464844.898438 14.601563 8.492188 13.703126 16.960938-.417969 3.910156-2.257813 7.320312-4.957032 9.773437l-21.382812 19.414063 5.890625 28.238281c1.730469 8.332031-3.621094 16.496094-11.953125 18.226563-3.835938.800781-7.636719.09375-10.792969-1.710938l-25.042969-14.300781-25.03125 14.324219c-7.402344 4.230468-16.832031 1.664062-21.066406-5.734376-2.105469-3.679687-2.527344-7.863281-1.511719-11.65625l5.710938-27.390624-21.390625-19.40625c-6.296875-5.734376-6.757813-15.492188-1.023438-21.789063 2.742188-3.015625 6.402344-4.691406 10.164063-4.992187l28.242187-3.078126 11.84375-26.324218c3.5-7.769532 12.632813-11.226563 20.402344-7.726563 3.570312 1.609375 6.230469 4.414063 7.726562 7.726563zm0 0" fill="#ffd89e"/><path d="m146.4375 204.339844-11.839844 26.324218-28.246094 3.078126c-3.761718.304687-7.421874 1.980468-10.164062 4.992187-5.734375 6.300781-5.273438 16.054687 1.027344 21.789063l21.386718 19.410156-5.710937 27.386718c-1.015625 3.796876-.59375 7.976563 1.511719 11.65625 4.234375 7.402344 13.667968 9.96875 21.066406 5.734376l25.03125-14.324219 25.046875 14.300781c3.152344 1.804688 6.953125 2.511719 10.789063 1.714844 8.335937-1.734375 13.6875-9.894532 11.953124-18.230469l-5.890624-28.238281 21.382812-19.414063c2.699219-2.453125 4.539062-5.863281 4.957031-9.773437.898438-8.464844-5.234375-16.058594-13.703125-16.960938l-28.628906-3.121094-11.84375-26.320312c-1.492188-3.316406-4.152344-6.117188-7.726562-7.726562-7.761719-3.503907-16.894532-.042969-20.398438 7.722656zm0 0" fill="#f8f8f8"/><path d="m160.5 408.75c-60.5 0-110-49.5-110-110h-40v153.875c0 5.15625 4.21875 9.375 9.375 9.375h281.25c5.15625 0 9.375-4.21875 9.375-9.375v-153.875h-40c0 60.5-49.5 110-110 110zm0 0" fill="#78d0a9"/><path d="m300.5 462h-280l10 40h260zm0 0" fill="#f8f8f8"/></g><path d="m309.730469 52.042969-8.800781-44.003907c-.933594-4.675781-5.039063-8.039062-9.804688-8.039062h-151.25c-5.523438 0-10 4.476562-10 10s4.476562 10 10 10h143.050781l6 30h-256.851562l6-30h11.800781c5.523438 0 10-4.476562 10-10s-4.476562-10-10-10h-20c-4.765625 0-8.871094 3.363281-9.804688 8.039062l-8.800781 44.003907c-6.371093 3.175781-10.769531 9.742187-10.769531 17.332031v383.25c0 8 4.875 14.882812 11.804688 17.835938l8.492187 33.964843c1.113281 4.449219 5.113281 7.574219 9.703125 7.574219h260c4.589844 0 8.589844-3.125 9.699219-7.574219l8.492187-33.96875c6.933594-2.953125 11.808594-9.835937 11.808594-17.832031v-383.25c0-7.589844-4.398438-14.15625-10.769531-17.332031zm-9.230469 17.957031v143.246094h-20.414062c-5.097657-61.503906-56.785157-110-119.585938-110s-114.488281 48.496094-119.585938 110h-20.414062v-143.246094zm-280 163.246094h30c5.523438 0 10-4.476563 10-10 0-55.136719 44.859375-100 100-100s100 44.863281 100 100c0 5.523437 4.476562 10 10 10h30v55.503906h-30c-5.523438 0-10 4.476562-10 10 0 55.140625-44.859375 100-100 100s-100-44.859375-100-100c0-5.523438-4.476562-10-10-10h-30zm17.808594 258.753906-5-20h147.191406c5.519531 0 10-4.476562 10-10s-4.480469-10-10-10h-160v-143.25h20.410156c5.101563 61.507812 56.789063 110 119.589844 110s114.488281-48.492188 119.585938-110h20.414062v143.25h-30c-5.523438 0-10 4.476562-10 10s4.476562 10 10 10h17.191406l-5 20zm0 0"/><path d="m90.496094 267.929688 17.152344 15.5625-4.496094 21.546874c-1.636719 6.433594-.730469 13.132813 2.570312 18.902344 4.695313 8.203125 13.289063 12.800782 22.125 12.800782 4.28125 0 8.617188-1.078126 12.589844-3.351563l20.070312-11.484375 20.074219 11.460938c5.390625 3.085937 11.710938 4.089843 17.792969 2.824218 6.648438-1.382812 12.355469-5.269531 16.078125-10.949218 3.722656-5.675782 5.011719-12.460938 3.625-19.113282l-4.71875-22.636718 17.152344-15.578126c4.609375-4.191406 7.511719-9.910156 8.171875-16.113281 1.480468-13.9375-8.652344-26.480469-22.5625-27.957031l-22.941406-2.5-9.492188-21.105469c-.003906 0-.003906-.003906-.003906-.003906-2.550782-5.664063-7.070313-10.183594-12.734375-12.738281-6.191407-2.789063-13.101563-3-19.449219-.597656-6.351562 2.40625-11.386719 7.140624-14.179688 13.339843l-9.496093 21.105469-22.429688 2.445312c-6.390625.554688-12.28125 3.46875-16.601562 8.214844-4.570313 5.023438-6.914063 11.523438-6.59375 18.308594.320312 6.785156 3.261719 13.039062 8.296875 17.617188zm13.089844-22.464844c.925781-1.019532 2.195312-1.644532 3.570312-1.753906.09375-.007813.1875-.015626.28125-.027344l28.242188-3.078125c3.523437-.382813 6.582031-2.605469 8.035156-5.839844l11.839844-26.316406c.597656-1.320313 1.667968-2.332031 3.027343-2.84375.625-.238281 1.273438-.355469 1.921875-.355469.757813 0 1.515625.160156 2.230469.480469 1.546875.699219 2.328125 1.863281 2.714844 2.714843l11.839843 26.320313c1.453126 3.234375 4.511719 5.457031 8.035157 5.839844l28.65625 3.121093c2.972656.316407 5.132812 2.992188 4.816406 5.960938-.179687 1.691406-1.046875 2.800781-1.734375 3.425781l-21.382812 19.414063c-2.625 2.382812-3.792969 5.976562-3.066407 9.445312l5.886719 28.234375c.605469 2.921875-1.277344 5.796875-4.199219 6.402344-1.660156.34375-2.976562-.136719-3.796875-.605469l-25.042968-14.300781c-3.078126-1.757813-6.851563-1.753906-9.925782.003906l-25.03125 14.324219c-1.261718.71875-2.726562.90625-4.128906.527344-1.402344-.382813-2.570312-1.289063-3.292969-2.546875-.714843-1.253907-.902343-2.710938-.53125-4.109375.046875-.175782.089844-.359375.128907-.539063l5.710937-27.390625c.726563-3.46875-.441406-7.066406-3.066406-9.445312l-21.378907-19.398438c-1.074218-.976562-1.699218-2.3125-1.769531-3.757812-.066406-1.445313.433594-2.835938 1.410157-3.90625zm0 0"/><path d="m225.5 452h-.007812c-5.519532 0-9.996094 4.476562-9.996094 10s4.480468 10 10.003906 10 10-4.476562 10-10-4.476562-10-10-10zm0 0"/><path d="m94.878906 20c5.523438 0 10-4.476562 10-10s-4.476562-10-10-10h-.007812c-5.523438 0-9.996094 4.476562-9.996094 10s4.480469 10 10.003906 10zm0 0"/></svg>