<svg height="512pt" viewBox="-42 0 512 512.00262" width="512pt" xmlns="http://www.w3.org/2000/svg"><path d="m127.164062 299.015625c33.816407-58.570313 75.4375-112.890625 123.992188-161.445313 7.808594-7.808593 7.808594-20.472656 0-28.28125-7.808594-7.808593-20.472656-7.808593-28.28125 0-50.730469 50.730469-94.453125 107.890626-130.242188 169.882813-35.734374 61.890625-63.355468 128.320313-81.941406 197.683594-2.847656 10.65625 3.484375 21.605469 14.144532 24.453125 10.65625 2.847656 21.605468-3.484375 24.453124-14.140625 17.753907-66.261719 44.003907-129.484375 77.875-188.152344zm0 0" fill="#dca98a" fill-rule="evenodd"/><path d="m414.53125 207.273438c2.699219-36.582032-18.636719-59.578126-37.601562-80.019532-10.445313-11.261718-20.429688-22.023437-26.335938-34.449218 2.324219-.535157 4.609375-1.121094 6.855469-1.757813 26.042969-7.390625 47.273437-30.121094 49.378906-52.878906 1.375-14.859375-5.648437-27.261719-19.269531-34.023438-14.441406-7.175781-32.84375-4.882812-45.792969 5.707031-9.882813 8.082032-24.320313 27.207032-16.691406 67.234376-3.515625.511718-7.046875.988281-10.546875 1.464843-23.304688 3.15625-47.300782 6.410157-63.875 18.152344-4.171875-2.132813-8.816406-3.273437-13.636719-3.273437-8.015625 0-15.546875 3.121093-21.214844 8.789062-51.109375 51.109375-95.464843 108.964844-131.828125 171.953125-16.640625 28.816406-31.691406 58.933594-44.734375 89.507813-2.167969 5.078124.191407 10.953124 5.269531 13.121093 5.085938 2.167969 10.957032-.191406 13.125-5.273437 12.730469-29.839844 27.421876-59.230469 43.660157-87.355469 35.492187-61.476563 78.777343-117.933594 128.652343-167.808594 1.886719-1.890625 4.398438-2.929687 7.066407-2.929687 2.671875 0 5.179687 1.039062 7.070312 2.925781v.003906h.003907c3.894531 3.902344 3.894531 10.242188 0 14.140625-48.949219 48.945313-91.199219 103.960938-125.582032 163.515625-34.441406 59.652344-60.980468 123.769531-78.878906 190.570313-.6875 2.574218-2.335938 4.726562-4.644531 6.058594-2.304688 1.335937-4.992188 1.691406-7.566407 1-2.574218-.6875-4.726562-2.335938-6.058593-4.640626-1.335938-2.308593-1.691407-4.996093-1.003907-7.5625 2.164063-8.078124 4.496094-16.269531 6.9375-24.347656 1.597657-5.285156-1.398437-10.867187-6.683593-12.460937-5.285157-1.597657-10.867188 1.394531-12.464844 6.679687-2.496094 8.277344-4.890625 16.671875-7.109375 24.960938-2.066406 7.734375-1 15.8125 3.007812 22.742187 4.011719 6.933594 10.476563 11.886719 18.210938 13.953125 2.578125.6875 5.191406 1.03125 7.789062 1.03125 5.199219 0 10.332032-1.367187 14.953126-4.039062 6.933593-4.007813 11.890624-10.476563 13.953124-18.203125 17.445313-65.109375 43.3125-127.601563 76.878907-185.742188 33.507812-58.039062 74.691406-111.660156 122.402343-159.375 8.941407-8.941406 11.039063-22.171875 6.304688-33.132812 12.792969-7.734375 33.019531-10.476563 52.683594-13.140625 4.367187-.589844 8.78125-1.1875 13.183594-1.847656 6.929687 17.453124 19.582031 31.089843 31.867187 44.335937 17.667969 19.042969 33.15625 35.75 32.46875 61.828125-14.878906 1.761719-26.457031 14.441406-26.457031 29.785156 0 8.863282 3.867187 16.839844 10 22.339844-.789063 1.40625-1.605469 2.824219-2.457032 4.257812-4.605468-2.144531-9.65625-3.273437-14.886718-3.273437-19.433594 0-35.25 15.8125-35.25 35.25s15.816406 35.25 35.25 35.25c5.523437 0 10.003906-4.476563 10.003906-10s-4.480469-10-10.003906-10c-8.40625 0-15.25-6.84375-15.25-15.25 0-8.410156 6.84375-15.25 15.25-15.25 4.074218 0 7.90625 1.585937 10.785156 4.464844 2.128906 2.132812 5.105469 3.1875 8.101562 2.875 2.996094-.308594 5.695313-1.953125 7.34375-4.476563 3.605469-5.519531 6.875-10.957031 9.757813-16.222656.449219.023438.902344.035156 1.355469.035156 16.542968 0 30-13.457031 30-30 0-10.558594-5.484375-19.851562-13.746094-25.199218zm-60.105469-181.941407c4.6875-3.832031 10.011719-5.367187 14.875-5.367187 3.488281 0 6.746094.789062 9.363281 2.089844 6.15625 3.058593 8.855469 7.726562 8.25 14.269531-1.167968 12.628906-14.855468 29.789062-34.925781 35.480469-2.316406.660156-4.726562 1.257812-7.199219 1.808593-4.257812-22.355469-.882812-39.679687 9.636719-48.28125zm43.851563 217.136719c-5.511719 0-10-4.484375-10-10s4.488281-10 10-10c5.515625 0 10 4.484375 10 10s-4.484375 10-10 10zm0 0"/><path d="m29.160156 419.113281c.917969.261719 1.839844.386719 2.75.386719 4.351563 0 8.355469-2.863281 9.609375-7.257812l.003907-.003907c1.515624-5.3125-1.558594-10.84375-6.871094-12.359375-5.304688-1.519531-10.847656 1.558594-12.363282 6.871094-1.515624 5.308594 1.558594 10.84375 6.871094 12.363281zm0 0"/></svg>