<svg height="512pt" viewBox="-26 0 512 512" width="512pt" xmlns="http://www.w3.org/2000/svg"><g fill-rule="evenodd"><path d="m321.695312 120.898438c-25.523437-17.519532-15.867187-41.21875-5.773437-63.296876 6.609375-14.453124 10.125-25.851562 27.304687-10.644531 15.542969 13.757813 24.132813 37.996094 21.597657 55.585938-2.832031 19.6875-30.042969 27.34375-43.128907 18.355469zm0 0" fill="#ffc059"/><path d="m240.675781 93.503906c5.539063 10.371094 7.832031 26.246094 11.015625 41.863282 8.789063 43.144531 22.265625 33.828124 63.648438 61.34375 45.613281 30.332031 50.082031 89.496093 33.488281 128.167968-2.691406 6.269532-5.863281 12.285156-9.46875 17.996094-12.078125 19.117188-29.035156 34.847656-49.121094 45.4375-17.964843 9.472656-38.433593 14.832031-60.152343 14.832031-45.980469 0-86.351563-24.03125-109.234376-60.21875-12.613281-19.945312-19.914062-43.585937-19.914062-68.933593 0-75.796876 34.074219-151.054688 81.050781-185.429688 21.007813-15.378906 46.234375-18.367188 58.6875 4.941406zm-25.125 97.3125c-28.441406-53.234375-66.574219 26.136719-66.574219 91.277344 0 51.527344 33.273438 83.296875 84.800782 83.296875 64.558594 0 114.773437-81.96875 34.277344-129.316406-17.609376-10.355469-35.199219-12.867188-52.503907-45.257813zm0 0" fill="#ffc059"/><path d="m215.550781 190.816406c17.304688 32.390625 34.894531 34.898438 52.503907 45.257813 80.496093 47.347656 30.28125 129.316406-34.277344 129.316406-51.527344 0-84.800782-31.769531-84.800782-83.300781 0-65.136719 38.132813-144.507813 66.574219-91.273438zm0 0" fill="#ff9256"/><path d="m339.355469 342.875 78.125-20.933594c9.15625-2.453125 18.652343 3.027344 21.105469 12.183594l10.828124 40.421875c2.453126 9.152344-3.027343 18.648437-12.183593 21.101563l-59.808594 16.027343-87.1875-23.363281c20.089844-10.589844 37.046875-26.320312 49.121094-45.4375zm0 0" fill="#dca98a"/><path d="m82.585938 411.675781 147.417968 39.5-187.476562 50.234375c-9.152344 2.453125-18.648438-3.03125-21.101563-12.183594l-10.832031-40.421874c-2.453125-9.15625 3.03125-18.652344 12.183594-21.105469zm0 0" fill="#dca98a"/><path d="m230.003906 451.175781-147.417968-39.5-59.808594-16.027343c-9.152344-2.453126-14.636719-11.949219-12.183594-21.101563l10.832031-40.421875c2.453125-9.15625 11.949219-14.636719 21.101563-12.183594l78.320312 20.984375c22.882813 36.1875 63.253906 60.21875 109.238282 60.21875 21.71875 0 42.183593-5.359375 60.144531-14.832031l87.191406 23.363281 59.808594 16.023438c9.152343 2.453125 14.636719 11.949219 12.183593 21.105469l-10.832031 40.421874c-2.453125 9.152344-11.949219 14.636719-21.101562 12.183594zm0 0" fill="#dca98a"/></g><path d="m439.820312 418.042969-23.761718-6.367188 23.761718-6.367187c7.007813-1.878906 12.875-6.386719 16.515626-12.699219 3.644531-6.3125 4.617187-13.644531 2.738281-20.652344l-10.828125-40.421875c-3.886719-14.503906-18.851563-23.140625-33.351563-19.253906l-56.269531 15.074219c17.964844-43.609375 10.925781-106.605469-37.75-138.972657-12.65625-8.414062-22.753906-13.496093-30.867188-17.578124-18.347656-9.230469-23.277343-11.714844-28.519531-37.433594-.5625-2.761719-1.09375-5.527344-1.625-8.269532-2.625-13.609374-5.105469-26.460937-10.367187-36.3125-6.058594-11.332031-15.226563-18.683593-26.511719-21.257812-14.355469-3.273438-31.015625 1.328125-46.90625 12.957031-2.355469 1.722657-4.710937 3.566407-7.003906 5.480469-4.242188 3.535156-4.8125 9.84375-1.277344 14.082031 3.539063 4.242188 9.84375 4.816407 14.085937 1.277344 1.972657-1.644531 3.992188-3.222656 6.007813-4.699219 10.980469-8.039062 22.152344-11.535156 30.644531-9.597656 5.628906 1.28125 9.984375 4.941406 13.316406 11.183594 3.839844 7.183594 6.042969 18.59375 8.375 30.675781.542969 2.8125 1.089844 5.644531 1.664063 8.46875 6.871094 33.734375 17.550781 40.453125 39.128906 51.308594 7.632813 3.84375 17.132813 8.621093 28.78125 16.367187 40.210938 26.738282 45.382813 79.671875 29.835938 115.898438-18.824219 43.867187-61.824219 72.210937-109.550781 72.210937-65.703126 0-119.152344-53.453125-119.152344-119.152343 0-35.023438 7.449218-70.644532 21.539062-103.019532 2.203125-5.0625-.113281-10.957031-5.179687-13.160156-5.058594-2.203125-10.953125.113281-13.15625 5.179688-15.179688 34.867187-23.203125 73.253906-23.203125 111 0 18.917968 3.800781 36.964843 10.671875 53.421874l-56.492188-15.136718c-14.496093-3.886719-29.464843 4.75-33.347656 19.253906l-10.832031 40.425781c-1.878906 7.007813-.902344 14.339844 2.738281 20.652344 3.644531 6.3125 9.507813 10.820313 16.515625 12.699219l23.761719 6.367187-23.761719 6.367188c-7.007812 1.875-12.871094 6.386719-16.515625 12.695312-3.6445312 6.3125-4.617187 13.648438-2.738281 20.652344l10.832031 40.421875c3.257813 12.152344 14.285156 20.1875 26.308594 20.1875 2.328125 0 4.691406-.300781 7.042969-.929688l184.886718-49.542968 64.195313 17.199218c.867187.234376 1.738281.34375 2.59375.34375 4.414062 0 8.457031-2.945312 9.652343-7.414062 1.429688-5.332031-1.734374-10.816406-7.070312-12.246094l-274.007812-73.421875c-1.847657-.492187-3.402344-1.695312-4.375-3.378906-.972657-1.683594-1.234376-3.628906-.738282-5.476563l10.832032-40.421874c1.03125-3.851563 5.007812-6.144532 8.855468-5.113282l74.710938 20.019532c25.019531 37.085937 67.429687 61.527343 115.433594 61.527343 21.703124 0 42.554687-5.039062 61.238281-14.1875l83.632812 22.40625c.015625.003907.03125.011719.050781.015625l59.636719 15.980469c1.847657.492187 3.398438 1.695313 4.371094 3.378906.972656 1.683594 1.234375 3.628907.742187 5.476563l-10.832031 40.421875c-1.03125 3.851562-5.007812 6.140625-8.855469 5.113281l-33.765624-9.046875c-5.328126-1.433594-10.816407 1.734375-12.246094 7.070313-1.429688 5.335937 1.738281 10.816406 7.070312 12.246093l33.765625 9.046875c2.351563.632813 4.714844.933594 7.039063.933594 12.023437 0 23.054687-8.035156 26.3125-20.1875l10.828125-40.421875c1.878906-7.007813.90625-14.34375-2.738281-20.652344-3.640626-6.308593-9.507813-10.820312-16.515626-12.695312zm-399.878906 73.707031c-3.855468 1.03125-7.824218-1.261719-8.855468-5.113281l-10.832032-40.421875c-.496094-1.847656-.234375-3.792969.738282-5.476563.972656-1.683593 2.527343-2.882812 4.375-3.378906l57.21875-15.332031 108.78125 29.148437zm305.730469-140.21875 74.398437-19.933594c3.851563-1.027344 7.820313 1.261719 8.855469 5.113282l10.828125 40.421874c.496094 1.847657.234375 3.792969-.738281 5.476563-.972656 1.6875-2.523437 2.886719-4.371094 3.378906l-57.222656 15.332031-62.730469-16.808593c11.949219-9.140625 22.445313-20.246094 30.980469-32.980469zm0 0"/><path d="m316.035156 129.144531c5.320313 3.652344 12.09375 5.503907 19.234375 5.503907 5.859375 0 11.96875-1.25 17.722657-3.769532 12.113281-5.3125 20.035156-15.121094 21.730468-26.910156 3.144532-21.835938-7.316406-48.960938-24.867187-64.5-5.621094-4.976562-14.179688-11.359375-23.582031-9.339844-9.910157 2.132813-14.152344 11.5625-18.253907 20.683594-.386719.859375-.78125 1.738281-1.191406 2.628906-9.027344 19.75-24.140625 52.808594 9.207031 75.703125zm8.984375-67.386719c.421875-.925781.835938-1.84375 1.238281-2.742187 1.289063-2.867187 3.128907-6.957031 4.460938-8.875 1.042969.519531 2.929688 1.695313 5.878906 4.304687 12.457032 11.027344 20.511719 31.53125 18.332032 46.671876-.945313 6.570312-6.652344 9.992187-9.96875 11.441406-6.277344 2.75-13.679688 2.792968-17.605469.097656-16.78125-11.523438-14.433594-24.441406-2.335938-50.898438zm0 0"/><path d="m209.433594 20.003906c5.523437 0 10-4.480468 10-10.003906s-4.476563-10-10-10c-5.523438 0-10 4.476562-10 10v.007812c0 5.523438 4.476562 9.996094 10 9.996094zm0 0"/><path d="m10.007812 161.941406c5.523438 0 10-4.484375 10-10.003906 0-5.523438-4.476562-10-10-10-5.519531 0-9.9999995 4.476562-9.9999995 10v.003906c0 5.523438 4.4804685 10 9.9999995 10zm0 0"/><path d="m46.933594 272.679688c5.519531 0 10-4.480469 10-10.003907 0-5.519531-4.480469-10-10-10-5.523438 0-10 4.480469-10 10v.007813c0 5.523437 4.476562 9.996094 10 9.996094zm0 0"/><path d="m407.429688 176.363281c5.523437 0 10-4.484375 10-10.003906 0-5.523437-4.476563-10-10-10-5.519532 0-10 4.476563-10 10v.007813c0 5.519531 4.480468 9.996093 10 9.996093zm0 0"/><path d="m423.429688 248.355469v.007812c0 5.523438 4.480468 9.996094 10 9.996094 5.523437 0 10-4.480469 10-10.003906 0-5.523438-4.476563-10-10-10-5.519532 0-10 4.476562-10 10zm0 0"/><path d="m138.976562 282.09375c0 56.675781 37.210938 93.296875 94.800782 93.296875 18.789062 0 37.59375-6.285156 52.957031-17.699219 15.109375-11.226562 25.9375-26.605468 30.484375-43.304687 4.21875-15.5 2.851562-31.390625-3.960938-45.953125-7.4375-15.902344-20.941406-29.691406-40.132812-40.976563-3.953125-2.324219-7.820312-4.242187-11.558594-6.097656-13.40625-6.648437-24.984375-12.390625-37.195312-35.253906-12.660156-23.695313-27.621094-23.960938-35.410156-22.011719-17.652344 4.417969-29.53125 26.632812-36.386719 44.492188-8.640625 22.507812-13.597657 49.300781-13.597657 73.507812zm32.269532-66.339844c7.808594-20.335937 16.960937-30.855468 22.570312-32.257812.332032-.085938.664063-.125 1-.125 4.867188 0 9.890625 8.367187 11.914063 12.15625 15.230469 28.511718 31.550781 36.605468 45.949219 43.746094 3.582031 1.777343 6.96875 3.457031 10.304687 5.421874 29.171875 17.15625 41.578125 40.039063 34.9375 64.433594-7.183594 26.375-34.757813 46.261719-64.144531 46.261719-46.140625 0-74.800782-28.085937-74.800782-73.300781 0-21.527344 4.585938-46.324219 12.269532-66.335938zm0 0"/><path d="m421.425781 60.003906c5.523438 0 10-4.480468 10-10.003906s-4.476562-10-10-10c-5.519531 0-10 4.476562-10 10v.007812c0 5.523438 4.480469 9.996094 10 9.996094zm0 0"/><path d="m84.433594 58.683594c5.519531 0 10-4.480469 10-10.003906 0-5.519532-4.480469-10-10-10-5.523438 0-10 4.480468-10 10v.007812c0 5.523438 4.476562 9.996094 10 9.996094zm0 0"/><path d="m138.785156 135.046875c1.871094 1.558594 4.140625 2.316406 6.394532 2.316406 2.867187 0 5.710937-1.222656 7.691406-3.597656l.003906-.003906c3.535156-4.246094 2.957031-10.546875-1.285156-14.082031-4.242188-3.539063-10.550782-2.960938-14.085938 1.28125-3.535156 4.246093-2.960937 10.550781 1.28125 14.085937zm0 0"/><path d="m343.003906 471.097656h-.007812c-5.308594-1.515625-10.839844 1.558594-12.359375 6.867188-1.515625 5.3125 1.5625 10.847656 6.871093 12.363281.917969.261719 1.84375.386719 2.753907.386719 4.351562 0 8.355469-2.863282 9.609375-7.253906 1.519531-5.308594-1.558594-10.84375-6.867188-12.363282zm0 0"/></svg>