<svg height="512pt" viewBox="0 -126 512 512" width="512pt" xmlns="http://www.w3.org/2000/svg"><g fill-rule="evenodd"><path d="m476.105469 90c-63.355469 0-113.75-80-220.105469-80-106.359375 0-156.75 80-220.105469 80zm0 0" fill="#efc9b4"/><path d="m476.105469 90h-440.210938c-14.242187 0-25.894531 11.65625-25.894531 25.894531 0 14.242188 11.652344 25.894531 25.894531 25.894531h12.945313c33.367187 0 35.6875 20.121094 69.054687 20.121094 33.367188 0 35.683594-20.121094 69.050781-20.121094 33.371094 0 35.6875 20.121094 69.054688 20.121094s35.6875-20.121094 69.054688-20.121094c33.367187 0 35.683593 20.121094 69.050781 20.121094 33.367187 0 35.6875-20.121094 69.054687-20.121094h12.945313c14.242187 0 25.894531-11.652343 25.894531-25.894531 0-14.242187-11.652344-25.894531-25.894531-25.894531zm0 0" fill="#efc9b4"/><path d="m325.054688 141.789062c-33.367188 0-35.6875 20.121094-69.054688 20.121094s-35.683594-20.121094-69.054688-20.121094c-33.367187 0-35.683593 20.121094-69.050781 20.121094-33.367187 0-35.6875-20.121094-69.054687-20.121094h-12.945313l20 88.210938c2.433594 10.730469 9.003907 20 20 20h360.210938c11 0 17.570312-9.273438 20-20l20-88.210938h-12.945313c-33.367187 0-35.683594 20.121094-69.050781 20.121094-33.371094 0-35.6875-20.121094-69.054687-20.121094zm0 0" fill="#dca98a"/></g><path d="m512 115.894531c0-19.792969-16.101562-35.894531-35.894531-35.894531-24.8125 0-48.507813-14.308594-75.945313-30.875-38.128906-23.027344-81.347656-49.125-144.160156-49.125-25.925781 0-50.636719 4.503906-75.542969 13.761719-5.175781 1.925781-7.8125 7.683593-5.886719 12.859375 1.921876 5.175781 7.679688 7.8125 12.855469 5.886718 22.640625-8.414062 45.070313-12.507812 68.574219-12.507812 57.242188 0 97.929688 24.566406 133.824219 46.246094 7.890625 4.765625 15.660156 9.453125 23.410156 13.753906h-314.425781c3.601562-2.007812 7.152344-4.070312 10.664062-6.144531 4.757813-2.804688 6.339844-8.9375 3.53125-13.695313-2.808594-4.753906-8.9375-6.335937-13.695312-3.527344-24.445313 14.425782-43.582032 23.367188-63.414063 23.367188-19.792969 0-35.894531 16.101562-35.894531 35.894531 0 16.96875 11.839844 31.21875 27.691406 34.9375l18.453125 81.378907c3.882813 17.140624 15.285157 27.789062 29.75 27.789062h360.210938c14.464843 0 25.867187-10.648438 29.75-27.789062l18.453125-81.378907c15.851562-3.71875 27.691406-17.96875 27.691406-34.9375zm-65.648438 111.894531c-.832031 3.671876-3.496093 12.210938-10.246093 12.210938h-360.210938c-6.75 0-9.414062-8.539062-10.246093-12.210938l-17.234376-76h.425782c14.058594 0 21.269531 4.066407 29.617187 8.773438 9.433594 5.316406 20.128907 11.347656 39.4375 11.347656 19.308594 0 30.003907-6.027344 39.4375-11.347656 8.347657-4.707031 15.554688-8.773438 29.613281-8.773438 14.058594 0 21.269532 4.066407 29.617188 8.773438 9.433594 5.320312 20.128906 11.347656 39.4375 11.347656s30-6.027344 39.4375-11.347656c8.347656-4.707031 15.558594-8.773438 29.613281-8.773438 14.0625 0 21.269531 4.066407 29.617188 8.773438 9.4375 5.320312 20.128906 11.347656 39.4375 11.347656 19.308593 0 30.003906-6.027344 39.4375-11.347656 8.347656-4.707031 15.558593-8.773438 29.617187-8.773438h.425782zm29.753907-96h-12.945313c-19.308594 0-30.003906 6.03125-39.4375 11.351563-8.347656 4.707031-15.554687 8.769531-29.617187 8.769531-14.058594 0-21.265625-4.0625-29.613281-8.769531-9.4375-5.320313-20.128907-11.351563-39.4375-11.351563-19.308594 0-30.003907 6.03125-39.4375 11.351563-8.347657 4.707031-15.558594 8.769531-29.617188 8.769531s-21.265625-4.0625-29.613281-8.769531c-9.4375-5.320313-20.128907-11.351563-39.4375-11.351563-19.308594 0-30.003907 6.03125-39.4375 11.351563-8.347657 4.707031-15.558594 8.769531-29.617188 8.769531-14.058593 0-21.265625-4.0625-29.613281-8.769531-9.4375-5.320313-20.128906-11.351563-39.4375-11.351563h-12.949219c-8.765625 0-15.894531-7.128906-15.894531-15.894531s7.128906-15.894531 15.894531-15.894531h440.210938c8.765625 0 15.894531 7.128906 15.894531 15.894531s-7.128906 15.894531-15.894531 15.894531zm0 0"/><path d="m143.15625 52.332031c1.789062 0 3.597656-.480469 5.230469-1.484375l.007812-.003906c4.703125-2.894531 6.167969-9.050781 3.269531-13.753906-2.890624-4.703125-9.054687-6.167969-13.757812-3.273438-4.703125 2.894532-6.171875 9.050782-3.277344 13.757813 1.890625 3.066406 5.167969 4.757812 8.527344 4.757812zm0 0"/><path d="m416.105469 200h-54.996094c-5.523437 0-10 4.476562-10 10s4.476563 10 10 10h54.996094c5.523437 0 10-4.476562 10-10s-4.476563-10-10-10zm0 0"/><path d="m316.113281 200h-.007812c-5.523438 0-9.996094 4.476562-9.996094 10s4.480469 10 10.003906 10c5.523438 0 10-4.476562 10-10s-4.476562-10-10-10zm0 0"/></svg>