<svg height="512pt" viewBox="-126 0 512 512.001" width="512pt" xmlns="http://www.w3.org/2000/svg"><g fill-rule="evenodd"><path d="m67.285156 502c-10.535156 0-18.816406-9.003906-19.167968-20l-4.15625-130c-10.542969 0-18.816407-9.003906-19.167969-20l-2.875-89.945312c24.761719 1.1875 27.160156 25.234374 53.082031 25.234374 26.578125 0 28.421875-25.285156 55-25.285156 8.765625 0 14.839844 2.75 20 6.4375 10.484375 7.492188 17.1875 18.851563 35 18.851563 25.921875 0 28.320312-24.050781 53.082031-25.238281l-2.875 89.949218c-.351562 10.992188-8.625 20-19.167969 20l-4.152343 130c-.351563 10.988282-8.628907 20-19.171875 20h-125.429688zm0 0" fill="#ff9256"/><path d="m150 105.519531 67.238281-67.238281-28.28125-28.28125-72.960937 72.960938c-3.699219 3.628906-5.996094 8.683593-5.996094 14.277343v44.761719h40zm0 0" fill="#c9a0e1"/><path d="m150 142h-120c-11 0-20 9-20 20v20h240v-20c0-11-9-20-20-20zm0 0" fill="#f5828c"/><path d="m150 182h-40v66.441406c5.160156-3.6875 11.234375-6.4375 20-6.4375s14.84375 2.75 20 6.4375zm0 0" fill="#60c"/><path d="m110 182h-90l1.921875 60.050781c24.757813 1.1875 27.160156 25.238281 53.078125 25.238281 17.8125 0 24.515625-11.355468 35-18.847656zm0 0" fill="#f8f8f8"/><path d="m130 242.003906c8.765625 0 14.84375 2.75 20 6.4375v-66.441406h-40v66.441406c5.160156-3.6875 11.234375-6.4375 20-6.4375zm0 0" fill="#c9a0e1"/><path d="m150 182v66.441406c10.484375 7.492188 17.1875 18.847656 35 18.847656 25.921875 0 28.324219-24.046874 53.082031-25.234374l1.921875-60.054688zm0 0" fill="#f8f8f8"/></g><path d="m230 132h-70v-22.339844l64.308594-64.308594c3.90625-3.90625 3.90625-10.238281 0-14.144531l-28.28125-28.277343c-3.902344-3.90625-10.234375-3.90625-14.140625 0l-4.664063 4.664062c-3.90625 3.902344-3.90625 10.234375 0 14.140625 3.058594 3.0625 7.609375 3.722656 11.316406 1.988281l14.558594 14.558594-60.167968 60.164062c-1.875 1.878907-2.929688 4.421876-2.929688 7.074219v26.480469h-20v-34.761719c0-2.707031 1.066406-5.242187 3.066406-7.207031l4.65625-4.65625c3.90625-3.90625 3.90625-10.238281 0-14.144531-3.90625-3.902344-10.238281-3.902344-14.140625.003906l-4.589843 4.589844c-5.800782 5.6875-8.992188 13.292969-8.992188 21.414062v34.761719h-70c-16.542969 0-30 13.460938-30 30v20c0 5.523438 4.476562 10 10 10h.316406l4.480469 140.320312c.417969 13.046876 8.378906 23.878907 19.425781 27.949219l3.898438 122.050781c.53125 16.644532 13.34375 29.679688 29.164062 29.679688h125.429688c15.820312 0 28.632812-13.035156 29.167968-29.679688l3.898438-122.050781c11.042969-4.070312 19.003906-14.902343 19.421875-27.949219l4.484375-140.320312h.3125c5.523438 0 10-4.476562 10-10v-20c0-16.542969-13.457031-30-30-30zm-210 30c0-5.511719 4.488281-10 10-10h200c5.515625 0 10 4.488281 10 10v10h-220zm110 70.003906c-3.671875 0-6.972656.40625-10 1.082032v-41.085938h20v41.085938c-3.023438-.675782-6.324219-1.082032-10-1.082032zm-30-40.003906v51.570312c-1.453125 1.214844-2.832031 2.433594-4.144531 3.605469-6.601563 5.871094-11.371094 10.113281-20.855469 10.113281s-14.253906-4.242187-20.855469-10.113281c-5.632812-5.011719-12.363281-10.964843-22.492187-13.679687l-1.328125-41.496094zm125.214844 139.683594c-.1875 5.785156-4.214844 10.316406-9.175782 10.316406-5.398437 0-9.820312 4.285156-9.996093 9.679688l-3.203125 100.320312h-45.3125c-5.519532 0-10 4.476562-10 10 0 5.519531 4.480468 10 10 10h44.671875l-.308594 9.679688c-.183594 5.789062-4.214844 10.320312-9.175781 10.320312h-125.429688c-4.960937 0-8.988281-4.53125-9.175781-10.320312l-4.152344-130c-.171875-5.394532-4.597656-9.679688-9.996093-9.679688-4.957032 0-8.988282-4.53125-9.171876-10.320312l-2.441406-76.320313c2.855469 1.742187 5.480469 4.070313 8.503906 6.761719 7.601563 6.757812 17.058594 15.167968 34.148438 15.167968 17.09375 0 26.550781-8.414062 34.144531-15.171874 6.601563-5.871094 11.371094-10.113282 20.855469-10.113282s14.253906 4.242188 20.851562 10.113282c7.601563 6.757812 17.054688 15.171874 34.148438 15.171874 17.089844 0 26.550781-8.410156 34.148438-15.167968 3.023437-2.691406 5.652343-5.019532 8.5-6.761719zm3.136718-98.1875c-10.132812 2.714844-16.859374 8.667968-22.492187 13.679687-6.605469 5.871094-11.375 10.113281-20.859375 10.113281s-14.25-4.242187-20.851562-10.113281c-1.316407-1.167969-2.691407-2.390625-4.148438-3.605469v-51.570312h69.675781zm0 0"/><path d="m160.113281 311.679688c-5.519531 0-10 4.480468-10 10v.007812c0 5.523438 4.480469 9.996094 10 9.996094 5.523438 0 10-4.480469 10-10.003906 0-5.519532-4.476562-10-10-10zm0 0"/><path d="m116.113281 375.679688c0-5.519532-4.476562-10-10-10-5.519531 0-10 4.480468-10 10v.007812c0 5.523438 4.480469 9.996094 10 9.996094 5.523438 0 10-4.480469 10-10.003906zm0 0"/><path d="m154.113281 405.679688c-5.519531 0-10 4.480468-10 10v.007812c0 5.523438 4.480469 9.996094 10 9.996094 5.523438 0 10-4.480469 10-10.003906 0-5.523438-4.476562-10-10-10zm0 0"/><path d="m152.472656 56.484375c2.558594 0 5.117188-.976563 7.070313-2.925781l.003906-.007813c3.90625-3.90625 3.902344-10.234375 0-14.140625-3.90625-3.902344-10.242187-3.902344-14.148437.003906-3.902344 3.90625-3.902344 10.238282 0 14.144532 1.953124 1.949218 4.511718 2.925781 7.074218 2.925781zm0 0"/><path d="m112.53125 452h-.007812c-5.519532 0-9.996094 4.476562-9.996094 10 0 5.519531 4.480468 10 10.003906 10s10-4.480469 10-10c0-5.523438-4.476562-10-10-10zm0 0"/></svg>