<svg height="511pt" viewBox="-176 0 511 511.99983" width="511pt" xmlns="http://www.w3.org/2000/svg"><g fill-rule="evenodd"><path d="m10.949219 71.867188c0 22.066406 17.890625 39.957031 39.957031 39.957031 16.476562 0 30.625-9.972657 36.734375-24.210938 10.363281-24.148437-23.371094-39.796875-24.027344-60.640625-.507812-16.199218-14.914062-21.746094-27.589843-12.472656-14.53125 10.632812-25.074219 33.917969-25.074219 57.367188zm0 0" fill="#ffc059"/><path d="m70.070312 122.007812h-59.570312v60h79.570312v-40c0-11-9-20-20-20zm0 0" fill="#b5bbc9"/><path d="m90.070312 182.007812h-79.570312v149.996094c67.648438 0 72.347656-25.285156 139.996094-25.285156v-104.710938c0-11-9-20-20-20zm0 0" fill="#ffd89e"/><path d="m150.496094 306.71875c-67.644532 0-72.347656 25.285156-139.996094 25.285156v60c67.648438 0 72.347656-25.285156 139.996094-25.285156zm0 0" fill="#78d0a9"/><path d="m150.496094 366.71875c-67.644532 0-72.347656 25.285156-139.996094 25.285156v89.996094c0 11 9 20 20 20h100c11 0 20-9 20-20zm0 0" fill="#ff9256"/></g><path d="m130.5 172.007812h-30.429688v-20h30.429688c5.519531 0 10-4.476562 10-10 0-5.519531-4.480469-10-10-10h-32.152344c-3.164062-8.921874-10.4375-15.917968-19.535156-18.695312 7.808594-5.253906 14.140625-12.71875 18.019531-21.757812 8.320313-19.394532-3.78125-34.816407-12.621093-46.078126-5.363282-6.835937-10.425782-13.289062-10.601563-18.820312-.351563-11.125-5.539063-19.9375-14.234375-24.179688-8.960938-4.371093-19.898438-2.894531-29.253906 3.953126-17.449219 12.769531-29.171875 39.066406-29.171875 65.4375 0 16.433593 7.976562 31.03125 20.257812 40.144531h-10.707031c-5.523438 0-10 4.476562-10 9.996093v80c0 5.523438 4.476562 10 10 10s10-4.476562 10-10v-10h109.996094c5.515625 0 10 4.484376 10 10v94.902344c-29.28125 1.125-46.546875 7.15625-63.296875 13.011719-15.835938 5.535156-30.898438 10.792969-56.699219 11.875v-29.789063c0-5.523437-4.476562-10-10-10s-10 4.476563-10 10v189.992188c0 16.542969 13.457031 30 30 30h100c16.539062 0 29.996094-13.457031 29.996094-30v-10c0-5.519531-4.476563-10-9.996094-10-5.523438 0-10 4.480469-10 10v10c0 5.515625-4.488281 10-10 10h-100c-5.515625 0-10-4.484375-10-10v-80.183594c29.28125-1.128906 46.550781-7.160156 63.296875-13.015625 15.835937-5.535156 30.898437-10.792969 56.699219-11.875v5.078125c0 5.519532 4.476562 10 10 10 5.523437 0 10-4.480468 10-10v-179.996094c0-16.542968-13.457032-30-29.996094-30zm-88.570312-149.4375c3.214843-2.351562 6.539062-3.164062 8.679687-2.121093 1.804687.882812 2.902344 3.375 3.011719 6.839843.382812 12.085938 8.074218 21.886719 14.855468 30.53125 9.46875 12.066407 13.277344 18.160157 9.976563 25.847657-4.730469 11.03125-15.542969 18.15625-27.546875 18.15625-16.515625 0-29.957031-13.4375-29.957031-29.957031 0-19.667969 8.824219-40.402344 20.980469-49.296876zm28.140624 109.4375c5.511719 0 10 4.488282 10 10v30h-59.570312v-40zm7.128907 237.914063c-15.832031 5.535156-30.894531 10.792969-56.699219 11.875v-39.980469c29.28125-1.128906 46.550781-7.160156 63.296875-13.015625 15.835937-5.53125 30.898437-10.792969 56.703125-11.875v39.984375c-29.28125 1.125-46.550781 7.15625-63.300781 13.011719zm0 0"/><path d="m10.5 257.011719c5.523438 0 10-4.480469 10-10v-.007813c0-5.523437-4.476562-9.996094-10-9.996094s-10 4.480469-10 10.003907c0 5.523437 4.476562 10 10 10zm0 0"/><path d="m150.496094 417c-5.523438 0-10 4.480469-10 10.003906 0 5.523438 4.476562 10 10 10 5.523437 0 10-4.476562 10-10v-.007812c0-5.519532-4.476563-9.996094-10-9.996094zm0 0"/></svg>