<svg height="512pt" viewBox="-56 0 512 512.00483" width="512pt" xmlns="http://www.w3.org/2000/svg"><g fill-rule="evenodd"><path d="m30.003906 69.996094h340.007813c5.5 0 10-4.5 10-10.003906v-47.882813c-.539063-.628906-1.332031-1.171875-2.355469-1.558594-3.03125-1.144531-6.914062-.46875-8.671875 1.507813l-13.921875 15.71875v-.050782c-.539062.625-1.332031 1.171876-2.355469 1.558594-3.03125 1.144532-6.914062.46875-8.671875-1.507812l-13.878906-15.667969c-.535156-.628906-1.332031-1.171875-2.355469-1.558594-3.03125-1.144531-6.914062-.46875-8.667969 1.507813l-13.925781 15.71875c-.535156.628906-1.332031 1.171875-2.355469 1.558594-3.03125 1.144531-6.914062.46875-8.667968-1.507813l-13.878906-15.667969c-.539063-.628906-1.335938-1.171875-2.355469-1.558594-3.035157-1.144531-6.914063-.46875-8.671875 1.507813l-13.925782 15.71875v-.050781c-.535156.625-1.332031 1.171875-2.355468 1.554687-3.03125 1.144531-6.914063.472657-8.667969-1.503906l-13.878906-15.671875c-.539063-.625-1.332031-1.167969-2.355469-1.554688-3.035156-1.144531-6.917969-.472656-8.671875 1.503907l-13.925781 15.722656c-.535156.625-1.332032 1.167969-2.351563 1.554687-3.035156 1.144532-6.917969.472657-8.671875-1.503906l-13.878906-15.671875c-.539062-.625-1.332031-1.171875-2.355469-1.554687-3.03125-1.144532-6.914062-.472656-8.671875 1.503906l-13.921875 15.722656v-.050781c-.539062.625-1.332031 1.167969-2.355469 1.554687-3.03125 1.144532-6.914062.472657-8.671874-1.503906l-13.878907-15.671875c-.535156-.625-1.332031-1.171875-2.355469-1.554687-3.03125-1.144532-6.914062-.472656-8.667968 1.503906l-13.925782 15.722656c-.535156.625-1.332031 1.167969-2.355468 1.554688-3.03125 1.144531-6.914063.472656-8.671875-1.503906l-13.875-15.667969c-.539063-.628907-1.332031-1.171875-2.355469-1.558594-3.035156-1.144531-6.914062-.46875-8.671875 1.507813l-13.921875 15.71875v-.050782c-.539062.625-1.332031 1.167969-2.355469 1.554688-3.035156 1.144531-6.917969.472656-8.671875-1.503906l-13.878906-15.667969c-.539062-.628907-1.332031-1.171875-2.355469-1.558594-3.03125-1.144531-6.914062-.46875-8.671875 1.507813v47.78125c0 5.503906 4.5 10.003906 10 10.003906zm0 0" fill="#aae2c9"/><path d="m370.011719 69.996094h-340.007813c-11 0-20 9-20 20 0 55.582031 10 110.667968 10 166.003906s-10 110.417969-10 166.003906c0 11 9 20 20 20h340.007813c11 0 20-9 20-20 0-55.585937-10-110.667968-10-166.003906s10-110.421875 10-166.003906c0-11-9-20-20-20zm-279.527344 186.003906c0-39.90625 35.371094-72.253906 79-72.253906 42.027344 0 76.382813 30.015625 78.855469 67.882812 6.800781-1.308594 13.042968-3.210937 18.316406-4.21875 79.238281-15.089844 42.027344 109.84375-57.464844 71.058594-11.667968 6.21875-25.230468 9.78125-39.707031 9.78125-43.628906 0-79-32.347656-79-72.25zm0 0" fill="#78d0a9"/><path d="m169.484375 183.746094c-43.628906 0-79 32.351562-79 72.253906s35.371094 72.25 79 72.25c14.476563 0 28.039063-3.5625 39.707031-9.777344-2.964844-1.152344-5.980468-2.453125-9.054687-3.90625-84.3125-39.886718-37.753907-103.371094 9.605469-69.539062 13.105468 9.359375 26.703124 8.894531 38.597656 6.601562-2.46875-37.867187-36.828125-67.882812-78.855469-67.882812zm0 0" fill="#dca98a"/><path d="m209.742188 245.027344c-47.359376-33.832032-93.914063 29.652344-9.605469 69.539062 3.070312 1.453125 6.089843 2.75 9.054687 3.90625 99.492188 38.78125 136.703125-86.152344 57.464844-71.058594-5.273438 1.003907-11.515625 2.910157-18.316406 4.21875-11.894532 2.289063-25.492188 2.753907-38.597656-6.605468zm0 0" fill="#ffecd1"/><path d="m370.011719 442.003906h-340.007813c-5.5 0-10 4.5-10 10v47.785156c1.757813 1.976563 5.640625 2.652344 8.671875 1.503907 1.023438-.382813 1.820313-.929688 2.355469-1.554688l13.878906-15.671875c1.757813-1.976562 5.640625-2.648437 8.671875-1.503906 1.023438.386719 1.816407.929688 2.355469 1.558594v-.054688l13.921875 15.722656c1.757813 1.976563 5.640625 2.652344 8.671875 1.503907 1.023438-.382813 1.820312-.929688 2.355469-1.554688l13.878906-15.671875c1.757813-1.976562 5.636719-2.648437 8.671875-1.503906 1.019531.386719 1.816406.929688 2.355469 1.558594l13.921875 15.71875c1.753906 1.976562 5.636718 2.652344 8.671875 1.503906 1.019531-.382812 1.816406-.929688 2.351562-1.554688l13.878907-15.667968c1.757812-1.980469 5.640624-2.652344 8.671874-1.507813 1.023438.386719 1.820313.929688 2.355469 1.558594v-.050781l13.921875 15.71875c1.757813 1.976562 5.640625 2.652344 8.671875 1.503906 1.023438-.382812 1.820313-.929688 2.355469-1.554688l13.878906-15.667968c1.757813-1.980469 5.636719-2.652344 8.671875-1.507813 1.023438.386719 1.816407.929688 2.355469 1.558594l13.921875 15.71875c1.757813 1.976563 5.636719 2.652344 8.671875 1.507813 1.023438-.386719 1.816406-.933594 2.355469-1.558594l13.878906-15.667969c1.753906-1.980469 5.636719-2.652344 8.671875-1.507813 1.023438.386719 1.816406.929688 2.355469 1.558594v-.050781l13.921875 15.71875c1.757812 1.976563 5.640625 2.652344 8.671875 1.507813 1.023437-.386719 1.816406-.933594 2.355469-1.558594l13.878906-15.667969c1.753906-1.980469 5.636718-2.652344 8.671875-1.507813 1.019531.386719 1.816406.929688 2.351562 1.558594l13.925781 15.71875c1.753907 1.976563 5.636719 2.648438 8.671876 1.503906 1.023437-.382812 1.816406-.929687 2.355468-1.554687l13.875-15.671875c1.757813-1.976562 5.640625-2.648438 8.671875-1.503906 1.023438.386718 1.820313.929687 2.355469 1.554687v-.050781l13.925781 15.722656c1.753907 1.976563 5.636719 2.648438 8.667969 1.503906 1.023438-.386718 1.820312-.929687 2.355469-1.558593v-47.882813c0-5.5-4.5-10-10-10zm0 0" fill="#aae2c9"/></g><path d="m390.011719 256c0-27.1875 2.519531-55.007812 4.953125-81.914062 2.480468-27.441407 5.046875-55.816407 5.046875-84.089844 0-9.414063-4.363281-17.828125-11.167969-23.332032.742188-2.089843 1.167969-4.328124 1.167969-6.671874v-47.882813c0-2.390625-.855469-4.699219-2.410157-6.515625-1.644531-1.914062-3.859374-3.433594-6.414062-4.398438-6.910156-2.609374-15.1875-.835937-19.6875 4.230469l-11.949219 13.496094-11.875-13.40625c-1.632812-1.875-3.820312-3.367187-6.34375-4.320313-6.910156-2.609374-15.1875-.832031-19.6875 4.230469l-11.96875 13.519531-11.851562-13.378906c-1.636719-1.878906-3.828125-3.371094-6.34375-4.320312-6.914063-2.609375-15.191407-.835938-19.6875 4.230468l-11.953125 13.492188-11.871094-13.402344c-1.636719-1.878906-3.828125-3.371094-6.339844-4.320312-6.914062-2.609375-15.191406-.835938-19.695312 4.230468l-11.96875 13.519532-11.84375-13.371094c-1.640625-1.882812-3.832032-3.378906-6.347656-4.324219-6.914063-2.617187-15.191407-.839843-19.691407 4.226563l-11.953125 13.492187-11.867187-13.398437c-1.636719-1.882813-3.832031-3.375-6.34375-4.320313-6.917969-2.613281-15.191407-.839843-19.691407 4.226563l-11.972656 13.519531-11.847656-13.378906c-1.636719-1.875-3.824219-3.367188-6.347656-4.320313-6.910156-2.605468-15.1875-.832031-19.6875 4.230469l-11.949219 13.492187-11.871094-13.402343c-1.636719-1.875-3.824219-3.367188-6.34375-4.320313-6.910156-2.609375-15.1875-.832031-19.679687 4.222656-1.625 1.828126-2.523438 4.191407-2.523438 6.640626v47.785156c0 2.339844.425782 4.578125 1.167969 6.667968-6.804687 5.503907-11.16796875 13.917969-11.16796875 23.332032 0 28.273437 2.56640575 56.648437 5.04687475 84.089844 2.433594 26.90625 4.953125 54.730468 4.953125 81.914062s-2.519531 55.007812-4.953125 81.914062c-2.480469 27.441407-5.04687475 55.816407-5.04687475 84.089844 0 9.417969 4.36328175 17.828125 11.16796875 23.332032-.742187 2.089843-1.167969 4.328124-1.167969 6.667968v47.785156c0 2.449219.898438 4.8125 2.523438 6.644532 4.492187 5.054687 12.769531 6.828125 19.683594 4.21875 2.515624-.953125 4.703124-2.441406 6.335937-4.316406l11.875-13.40625 11.960937 13.503906c4.488282 5.054687 12.765626 6.832031 19.683594 4.21875 2.515625-.953125 4.703125-2.441406 6.335938-4.316406l11.851562-13.382813 11.980469 13.527344c4.492187 5.058593 12.769531 6.835937 19.675781 4.222656 2.519532-.949219 4.710938-2.441406 6.347656-4.320313l11.871094-13.402343 11.960938 13.503906c4.488281 5.054687 12.769531 6.828125 19.675781 4.222656 2.523437-.953125 4.714844-2.445312 6.351563-4.328125l11.84375-13.371094 11.984374 13.53125c4.496094 5.054688 12.773438 6.828126 19.675782 4.21875 2.519531-.949218 4.714844-2.445312 6.351562-4.324218l11.867188-13.398438 11.960937 13.5c4.492188 5.058594 12.769531 6.832032 19.675781 4.222656 2.519532-.949218 4.707032-2.441406 6.34375-4.320312l11.851563-13.378906 11.980469 13.527344c4.488281 5.054687 12.765625 6.835937 19.683594 4.222656 2.515624-.953125 4.707031-2.445313 6.339843-4.320313l11.871094-13.402343 11.960937 13.5c3.097657 3.492187 8 5.417968 13.019532 5.417968 2.25 0 4.519531-.386718 6.664062-1.195312 2.550782-.964844 4.765625-2.484375 6.410156-4.398438 1.554688-1.8125 2.410157-4.125 2.410157-6.511718v-47.886719c0-2.34375-.425781-4.582031-1.167969-6.671875 6.804688-5.503906 11.167969-13.914063 11.167969-23.328125 0-28.277344-2.566407-56.652344-5.046875-84.09375-2.433594-26.910157-4.953125-54.734375-4.953125-81.917969zm-360.007813-229.816406 7.425782 8.386718c4.492187 5.054688 12.769531 6.832032 19.679687 4.222657 2.007813-.757813 3.808594-1.859375 5.285156-3.226563.359375-.308594.707031-.644531 1.027344-1.007812l11.929687-13.464844 11.933594 13.476562c4.492188 5.054688 12.769532 6.832032 19.679688 4.222657 2.519531-.949219 4.710937-2.445313 6.347656-4.324219l11.890625-13.425781 11.9375 13.476562c4.492187 5.054688 12.769531 6.832031 19.679687 4.222657 2.003907-.753907 3.800782-1.855469 5.277344-3.21875.363282-.3125.710938-.648438 1.035156-1.015626l11.925782-13.464843 11.9375 13.476562c4.488281 5.054688 12.765625 6.832031 19.675781 4.222657 2.523437-.949219 4.71875-2.445313 6.355469-4.328126l11.886718-13.421874 11.933594 13.476562c4.492188 5.058594 12.769532 6.832031 19.6875 4.222656 2.011719-.761718 3.808594-1.863281 5.285156-3.230468.359376-.304688.699219-.640626 1.019532-1l11.929687-13.46875 11.9375 13.476562c4.488281 5.058594 12.765625 6.832031 19.683594 4.222656 2.515625-.949218 4.703125-2.441406 6.335937-4.316406l11.898438-13.433594 11.9375 13.480469c4.488281 5.054687 12.765625 6.828125 19.675781 4.222656 1.996094-.753906 3.789063-1.847656 5.261719-3.207031.371094-.3125.722656-.65625 1.050781-1.027344l7.464844-8.425781v34.015625h-230.007813c-5.523437 0-10 4.476562-10 10 0 5.519531 4.476563 10 10 10h230.003907c5.515625 0 10 4.484375 10 10 0 27.371094-2.523438 55.289062-4.964844 82.285156-2.476563 27.351563-5.035156 55.628906-5.035156 83.71875 0 28.085938 2.558593 56.367188 5.035156 83.714844 2.441406 27 4.964844 54.917969 4.964844 82.289062 0 5.515626-4.484375 10-10 10-.003907 0-.011719 0-.015625 0h-339.972656c-.007813 0-.011719 0-.019532 0-5.515625 0-10-4.484374-10-10 0-27.371093 2.527344-55.289062 4.96875-82.289062 2.472656-27.347656 5.03125-55.628906 5.03125-83.714844 0-28.089844-2.558594-56.367187-5.03125-83.71875-2.445312-26.996094-4.96875-54.914062-4.96875-82.285156 0-5.515625 4.484375-10 10-10h20c5.523438 0 10-4.480469 10-10 0-5.523438-4.476562-10-10-10h-20zm340.007813 459.832031-7.460938-8.425781c-.328125-.367188-.675781-.707032-1.042969-1.015625-1.472656-1.359375-3.265624-2.457031-5.269531-3.214844-6.914062-2.609375-15.1875-.835937-19.6875 4.230469l-11.929687 13.46875-11.894532-13.433594c-1.636718-1.878906-3.828124-3.371094-6.34375-4.316406-6.910156-2.609375-15.1875-.835938-19.6875 4.230468l-11.929687 13.464844-11.925781-13.464844c-.320313-.359374-.664063-.691406-1.023438-.996093-1.476562-1.371094-3.277344-2.476563-5.289062-3.234375-6.910156-2.609375-15.1875-.835938-19.6875 4.230468l-11.929688 13.46875-11.890625-13.429687c-1.636719-1.878906-3.832031-3.375-6.34375-4.320313-6.914062-2.609374-15.1875-.835937-19.691406 4.230469l-11.925781 13.46875-11.929688-13.46875c-.320312-.363281-.664062-.699219-1.03125-1.007812-1.476562-1.367188-3.273437-2.46875-5.277344-3.222657-6.910156-2.613281-15.1875-.835937-19.691406 4.230469l-11.925781 13.464844-11.894531-13.429687c-1.640625-1.878907-3.828125-3.371094-6.34375-4.320313-6.914063-2.605469-15.1875-.832031-19.691406 4.234375l-11.925782 13.464844-11.929687-13.46875c-.316407-.359375-.660157-.691406-1.019531-.996094-1.480469-1.371094-3.28125-2.476562-5.289063-3.234375-6.910156-2.605469-15.1875-.832031-19.6875 4.234375l-7.417969 8.375v-33.8125h340.007813zm0 0"/><path d="m169.488281 338.25c14.027344 0 27.851563-3.070312 40.277344-8.898438 12.472656 4.410157 24.570313 6.636719 36.183594 6.636719 4.484375 0 8.898437-.332031 13.234375-.992187 17.070312-2.609375 32.042968-10.300782 43.289062-22.246094 16.523438-17.542969 21.6875-41.414062 12.558594-58.050781-3.980469-7.261719-16.851562-23.472657-50.246094-17.109375-2.609375.496094-5.292968 1.15625-8.113281 1.859375-8.328125-37.648438-44.457031-65.703125-87.183594-65.703125-49.078125 0-89.003906 36.898437-89.003906 82.253906 0 45.351562 39.925781 82.25 89.003906 82.25zm99.039063-81.015625c8.484375-1.613281 23.523437-2.84375 28.972656 7.085937 4.847656 8.839844.726562 23.765626-9.585938 34.71875-18.761718 19.917969-49.976562 22.34375-83.5 6.488282-25.320312-11.980469-40.632812-27.792969-40.953124-42.296875-.148438-6.6875 3.125-12.300781 8.980468-15.394531 3.066406-1.621094 6.519532-2.417969 10.203125-2.417969 6.699219 0 14.140625 2.640625 21.289063 7.746093 15.992187 11.425782 32.574218 10.851563 45.949218 8.339844.128907-.019531.257813-.046875.382813-.070312 3.886719-.746094 7.496094-1.644532 10.730469-2.449219 2.734375-.683594 5.316406-1.324219 7.53125-1.75zm-99.039063-63.488281c32.945313 0 60.808594 20.976562 67.472657 49.222656-7.1875.261719-14.457032-1.117188-21.402344-6.078125-17.367188-12.40625-36.980469-14.925781-52.464844-6.734375-12.609375 6.664062-19.945312 19.195312-19.628906 33.519531.433594 19.523438 14.789062 38.496094 39.878906 53.308594-4.539062.835937-9.179688 1.265625-13.855469 1.265625-38.046875 0-69-27.925781-69-62.25-.003906-34.328125 30.949219-62.253906 69-62.253906zm0 0"/><path d="m250.015625 392h-.007813c-5.523437 0-9.996093 4.480469-9.996093 10 0 5.523438 4.480469 10 10.003906 10s10-4.476562 10-10c0-5.519531-4.476563-10-10-10zm0 0"/><path d="m285.011719 402c0 5.523438 4.480469 10 10.003906 10h54.996094c5.523437 0 10-4.476562 10-10 0-5.519531-4.476563-10-10-10h-54.996094c-5.523437 0-10.003906 4.476562-10.003906 10zm0 0"/><path d="m95.007812 79.996094c5.523438 0 10-4.480469 10-10 0-5.523438-4.476562-10.003906-10-10.003906h-.003906c-5.523437 0-9.996094 4.480468-9.996094 10.003906 0 5.519531 4.480469 10 10 10zm0 0"/></svg>