<svg height="512pt" viewBox="0 -76 512 512" width="512pt" xmlns="http://www.w3.org/2000/svg"><g fill-rule="evenodd"><path d="m66.085938 95.984375c39.960937-49.871094 143.253906-49.402344 200.15625-42.53125 48.492187 5.855469 102.609374 19.371094 146.3125 41.601563 14.035156 7.140624 25.457031 12.296874 36.425781 23.753906 36.480469 38.117187-47.539063 62.039062-71.054688 64.535156-31.960937 3.398438-61.332031 11.414062-90.851562 23.957031-21.125 8.972657-41.152344 20.054688-62.140625 29.109375-19.894532 8.582032-38.097656 13.5625-59.933594 13.5625-58.308594 0-115-41.96875-115-103.273437 0-18.617188 4.300781-36.003907 16.085938-50.714844zm-56.085938 50.714844c0 79.113281 69.410156 143.273437 155 143.273437 83.617188 0 117.90625-56.308594 217.148438-66.851562 69.605468-7.394532 119.851562-36.058594 119.851562-86.75 0-116.695313-492-218.03125-492 10.328125zm0 0" fill="#ffecd1"/><path d="m266.242188 53.453125c-56.902344-6.871094-160.195313-7.339844-200.15625 42.53125-11.785157 14.710937-16.085938 32.097656-16.085938 50.714844 0 61.304687 56.691406 103.273437 115 103.273437 21.835938 0 40.039062-4.980468 59.933594-13.5625 20.988281-9.054687 41.015625-20.136718 62.140625-29.109375 29.519531-12.542969 58.890625-20.5625 90.851562-23.957031 23.515625-2.496094 107.535157-26.417969 71.054688-64.535156-10.96875-11.457032-22.390625-16.613282-36.425781-23.753906-43.703126-22.230469-97.820313-35.746094-146.3125-41.601563zm-101.738282 95.480469c20.15625 0 36.5 9.847656 36.5 22 0 12.148437-16.34375 22-36.5 22-20.160156 0-36.5-9.851563-36.5-22 0-12.152344 16.339844-22 36.5-22zm0 0" fill="#f5828c"/><path d="m201.003906 170.933594c0-12.152344-16.34375-22-36.5-22-20.160156 0-36.5 9.847656-36.5 22 0 12.148437 16.339844 22 36.5 22 20.15625 0 36.5-9.851563 36.5-22zm0 0" fill="#f8f8f8"/><path d="m382.148438 223.121094c-99.242188 10.542968-133.53125 66.851562-217.148438 66.851562-85.589844 0-155-64.160156-155-143.273437v60c0 79.117187 69.410156 143.273437 155 143.273437 83.617188 0 117.90625-56.304687 217.148438-66.847656 69.605468-7.398438 119.851562-36.058594 119.851562-86.75v-60.003906c0 50.691406-50.246094 79.355468-119.851562 86.75zm0 0" fill="#dca98a"/></g><path d="m421.1875 43.757812c-5.035156-2.28125-10.957031-.046874-13.234375 4.984376s-.046875 10.957031 4.984375 13.234374c50.246094 22.75 79.0625 49.863282 79.0625 74.386719 0 58.6875-77.5625 73.261719-110.90625 76.804688-50.472656 5.363281-85.3125 22.4375-116.054688 37.5-32.078124 15.71875-59.785156 29.292969-100.039062 29.292969-79.953125 0-145-59.785157-145-133.273438 0-36.460938 13.558594-65.691406 40.300781-86.882812 63.761719-50.523438 184.792969-45.351563 269.0625-25.566407 5.375 1.261719 10.757813-2.074219 12.023438-7.449219 1.261719-5.378906-2.074219-10.761718-7.449219-12.023437-52.441406-12.308594-107.671875-17.160156-155.523438-13.652344-54.960937 4.023438-100.101562 18.898438-130.53125 43.015625-31.773437 25.175782-47.882812 59.683594-47.882812 102.558594v60.003906c0 84.515625 74.019531 153.273438 165 153.273438 44.890625 0 75.953125-15.222656 108.839844-31.335938 30.683594-15.035156 62.40625-30.582031 109.367187-35.570312 37.328125-3.964844 68.652344-13.929688 90.582031-28.808594 25-16.960938 38.210938-40.433594 38.210938-67.886719v-60c0-33.203125-32.25-66.089843-90.8125-92.605469zm70.8125 152.605469c0 58.6875-77.5625 73.265625-110.90625 76.808594-50.472656 5.359375-85.3125 22.433594-116.054688 37.496094-32.078124 15.71875-59.785156 29.296875-100.039062 29.296875-74.613281 0-136.234375-52.070313-144.136719-118.75 28.238281 46.9375 82.257813 78.746094 144.136719 78.746094 44.890625 0 75.953125-15.21875 108.839844-31.335938 30.679687-15.03125 62.40625-30.578125 109.363281-35.566406 37.332031-3.96875 68.65625-13.929688 90.585937-28.808594 7.007813-4.753906 13.085938-10.019531 18.210938-15.742188zm0 0"/><path d="m153.023438 259.417969c3.988281.359375 8.019531.542969 11.976562.542969 21.425781 0 40.535156-4.300782 63.894531-14.378907 10.410157-4.492187 20.652344-9.503906 30.558594-14.347656 10.28125-5.027344 20.90625-10.230469 31.53125-14.738281 29.285156-12.445313 58.070313-20.035156 87.996094-23.214844 12.058593-1.28125 75.730469-14.421875 87.261719-45.949219 3.015624-8.238281 3.71875-21.074219-10.039063-35.445312-11.140625-11.640625-22.886719-17.5625-35.316406-23.832031-1.246094-.628907-2.511719-1.265626-3.796875-1.921876-40.800782-20.753906-93.945313-35.890624-149.648438-42.617187-21.742187-2.625-64.8125-6.113281-109 .011719-47.132812 6.53125-80.828125 22.074218-100.15625 46.195312-12.304687 15.351563-18.285156 33.984375-18.285156 56.964844 0 25.480469 8.9375 49.355469 25.839844 69.039062 3.597656 4.1875 9.914062 4.671876 14.101562 1.070313 4.191406-3.597656 4.667969-9.914063 1.070313-14.101563-13.746094-16.007812-21.011719-35.371093-21.011719-56.007812 0-18.253906 4.542969-32.796875 13.890625-44.460938 16.023437-19.996093 45.394531-33.082031 87.292969-38.890624 43.519531-6.03125 87.128906-1.984376 103.855468.035156 53.441407 6.453125 104.214844 20.867187 142.980469 40.585937 1.308594.667969 2.59375 1.316407 3.859375 1.953125 11.792969 5.949219 21.109375 10.644532 29.875 19.804688 8.03125 8.390625 6.34375 13.007812 5.707032 14.746094-5.910157 16.15625-49.679688 30.707031-70.59375 32.929687-31.921876 3.394531-62.570313 11.472656-93.703126 24.695313-11.113281 4.71875-21.984374 10.039062-32.5 15.179687-9.695312 4.746094-19.722656 9.648437-29.691406 13.953125-20.703125 8.933594-37.441406 12.742188-55.972656 12.742188-3.359375 0-6.78125-.15625-10.171875-.460938-5.503906-.515625-10.363281 3.554688-10.863281 9.054688-.496094 5.5 3.558594 10.363281 9.058594 10.863281zm0 0"/><path d="m164.503906 202.921875c26.074219 0 46.5-14.054687 46.5-32s-20.425781-32-46.5-32c-26.078125 0-46.5 14.054687-46.5 32s20.421875 32 46.5 32zm0-44c15.929688 0 26.5 7.222656 26.5 12s-10.570312 12-26.5 12c-15.933594 0-26.5-7.222656-26.5-12s10.566406-12 26.5-12zm0 0"/><path d="m113.769531 227.894531-.007812-.003906c-5.078125-2.175781-10.953125.179687-13.125 5.253906-2.175781 5.078125.175781 10.957031 5.253906 13.132813 1.285156.550781 2.621094.8125 3.933594.8125 3.878906 0 7.570312-2.273438 9.195312-6.0625 2.175781-5.078125-.171875-10.957032-5.25-13.132813zm0 0"/><path d="m372.300781 46.242188c.917969.261718 1.84375.386718 2.753907.386718 4.351562 0 8.355468-2.863281 9.609374-7.253906 1.519532-5.3125-1.558593-10.847656-6.867187-12.363281l-.007813-.003907c-5.3125-1.511718-10.839843 1.5625-12.359374 6.871094-1.515626 5.308594 1.5625 10.84375 6.871093 12.363282zm0 0"/></svg>