<svg height="512pt" viewBox="-36 0 512 512" width="512pt" xmlns="http://www.w3.org/2000/svg"><g fill-rule="evenodd"><path d="m140 96c0-22.089844 17.910156-40 40-40s40 17.910156 40 40c0-22.089844 17.90625-40 40-40 22.089844 0 40 17.910156 40 40 0-22.089844 17.90625-40 40-40 22.089844 0 40 17.910156 40 40 0 16.382812-4.765625 41.460938-20.011719 53.328125h.011719v232.667969h70v-351.996094c0-11-9-20-20-20h-380c-11 0-20 9-20 20v351.996094h70v-232.667969h.007812c-15.242187-11.867187-20.007812-36.945313-20.007812-53.328125 0-22.089844 17.910156-40 40-40s40 17.910156 40 40zm0 0" fill="#ffecd1"/><path d="m140 96c0-22.089844-17.910156-40-40-40s-40 17.910156-40 40c0 16.382812 4.765625 41.460938 20.007812 53.328125h39.980469c15.246094-11.867187 20.011719-36.945313 20.011719-53.328125zm0 0" fill="#b278d3"/><path d="m180 56c-22.089844 0-40 17.910156-40 40 0 16.382812 4.765625 41.460938 20.007812 53.328125h39.980469c15.246094-11.867187 20.011719-36.945313 20.011719-53.328125 0-22.089844-17.910156-40-40-40zm0 0" fill="#b278d3"/><path d="m260 56c-22.09375 0-40 17.910156-40 40 0 16.382812 4.765625 41.460938 20.007812 53.328125h39.980469c15.246094-11.867187 20.011719-36.945313 20.011719-53.328125 0-22.089844-17.910156-40-40-40zm0 0" fill="#b278d3"/><path d="m340 56c-22.09375 0-40 17.910156-40 40 0 16.382812 4.765625 41.460938 20.007812 53.328125h39.980469c15.246094-11.867187 20.011719-36.945313 20.011719-53.328125 0-22.089844-17.910156-40-40-40zm0 0" fill="#b278d3"/><path d="m359.988281 149.328125h-39.988281v232.667969h40v-232.667969zm0 0" fill="#efc9b4"/><path d="m320 381.996094v-232.667969h.007812c-15.242187-11.867187-20.007812-36.945313-20.007812-53.328125 0 16.382812-4.765625 41.460938-20.011719 53.328125h.011719v232.667969zm0 0" fill="#ffecd1"/><path d="m280 381.996094v-232.667969h-40v232.667969zm0 0" fill="#efc9b4"/><path d="m240 381.996094v-232.667969h.007812c-15.242187-11.867187-20.007812-36.945313-20.007812-53.328125 0 16.382812-4.765625 41.460938-20.007812 53.328125h.007812v232.667969zm0 0" fill="#ffecd1"/><path d="m200 381.996094v-232.667969h-40v232.667969zm0 0" fill="#efc9b4"/><path d="m160 381.996094v-232.667969h.007812c-15.242187-11.867187-20.007812-36.945313-20.007812-53.328125 0 16.382812-4.765625 41.460938-20.007812 53.328125h.007812v232.667969zm0 0" fill="#ffecd1"/><path d="m120 381.996094v-232.667969h-40v232.667969zm0 0" fill="#efc9b4"/><path d="m160 381.996094h-150v100.003906c0 11 9 20 20 20h380c11 0 20-9 20-20v-100.003906zm0 0" fill="#dca98a"/></g><path d="m410 0h-265.003906c-5.523438 0-10 4.476562-10 10s4.476562 10 10 10h265.003906c5.511719 0 10 4.484375 10 10v341.996094h-50v-218.183594c14.652344-14.417969 20-38.789062 20-57.8125 0-27.570312-22.429688-50-50-50-16.339844 0-30.871094 7.878906-40 20.035156-9.132812-12.15625-23.660156-20.035156-40-20.035156s-30.871094 7.878906-40 20.035156c-9.128906-12.15625-23.660156-20.035156-40-20.035156s-30.871094 7.878906-40 20.035156c-9.128906-12.15625-23.660156-20.035156-40-20.035156-27.570312 0-50 22.429688-50 50 0 19.023438 5.347656 43.394531 20 57.8125v218.183594h-50v-341.996094c0-5.515625 4.484375-10 10-10h24.996094c5.523437 0 10-4.476562 10-10s-4.476563-10-10-10h-24.996094c-16.542969 0-30 13.457031-30 30v452c0 16.542969 13.457031 30 30 30h380c16.539062 0 30-13.457031 30-30v-452c0-16.542969-13.460938-30-30-30zm-120 371.996094v-218.183594c4-3.933594 7.304688-8.609375 10-13.71875 2.691406 5.109375 6 9.78125 10 13.71875v218.183594zm-80 0v-218.183594c4-3.933594 7.304688-8.609375 10-13.71875 2.691406 5.109375 6 9.785156 10 13.71875v218.183594zm-80 0v-218.183594c4-3.933594 7.304688-8.609375 10-13.71875 2.691406 5.109375 6 9.785156 10 13.71875v218.183594zm40-212.667969h20v212.667969h-20zm80 0h20v212.667969h-20zm80 0h20v212.667969h-20zm10-93.328125c16.539062 0 30 13.457031 30 30 0 15.152344-4.292969 33.765625-13.792969 43.328125h-32.414062c-9.503907-9.5625-13.792969-28.175781-13.792969-43.328125 0-16.542969 13.457031-30 30-30zm-80 0c16.539062 0 30 13.457031 30 30 0 15.152344-4.292969 33.765625-13.792969 43.328125h-32.414062c-9.503907-9.5625-13.792969-28.175781-13.792969-43.328125 0-16.542969 13.457031-30 30-30zm-80 0c16.542969 0 30 13.457031 30 30 0 15.152344-4.289062 33.765625-13.792969 43.328125h-32.414062c-9.503907-9.5625-13.792969-28.175781-13.792969-43.328125 0-16.542969 13.457031-30 30-30zm-80 0c16.542969 0 30 13.457031 30 30 0 15.152344-4.289062 33.765625-13.792969 43.328125h-32.414062c-9.503907-9.5625-13.792969-28.175781-13.792969-43.328125 0-16.542969 13.457031-30 30-30zm-10 93.328125h20v212.667969h-20zm320 332.671875h-380c-5.515625 0-10-4.484375-10-10v-90.003906h400v90.003906c0 5.515625-4.488281 10-10 10zm0 0"/><path d="m290.007812 452h-.007812c-5.523438 0-10 4.476562-10 10 0 5.519531 4.484375 10 10.007812 10 5.519532 0 9.996094-4.480469 9.996094-10 0-5.523438-4.476562-10-9.996094-10zm0 0"/><path d="m390 452h-54.996094c-5.523437 0-10 4.476562-10 10 0 5.519531 4.476563 10 10 10h54.996094c5.519531 0 10-4.480469 10-10 0-5.523438-4.480469-10-10-10zm0 0"/><path d="m100 20c5.523438 0 10-4.476562 10-10s-4.476562-10-10-10h-.007812c-5.523438 0-9.996094 4.476562-9.996094 10s4.480468 10 10.003906 10zm0 0"/></svg>