<svg height="512pt" viewBox="-86 0 512 512.001" width="512pt" xmlns="http://www.w3.org/2000/svg"><g fill-rule="evenodd"><path d="m110 109.453125c19.894531.949219 39.949219 1.421875 60 1.421875 20.054688 0 40.105469-.472656 60-1.417969 27.453125-1.308593 54.601562-3.515625 81.035156-6.617187 13.300782-1.5625 18.964844-11.238282 18.964844-20.585938v-43.632812c0-9.347656-5.664062-19.023438-18.964844-20.585938-45.585937-5.351562-93.308594-8.035156-141.035156-8.035156-47.722656 0-95.445312 2.683594-141.03125 8.035156-13.300781 1.5625-18.96875 11.238282-18.96875 20.585938v43.632812c0 9.347656 5.667969 19.023438 18.96875 20.585938 26.429688 3.101562 53.582031 5.308594 81.03125 6.613281zm0 0" fill="#dca98a"/><path d="m170 110.875c-20.050781 0-40.105469-.472656-60-1.421875v21.421875c0 11 9 20 20 20h80c11 0 20-9 20-20v-21.417969c-19.894531.945313-39.945312 1.417969-60 1.417969zm0 0" fill="#858fa6"/><path d="m200 150.875h-60v88.871094c0 11 9 20 20 20h20c11 0 20-9 20-20zm0 0" fill="#b5bbc9"/></g><path d="m312.199219 8.105469c-45.789063-5.378907-93.628907-8.105469-142.199219-8.105469-15.136719 0-30.429688.269531-45.457031.808594-5.519531.195312-9.835938 4.828125-9.640625 10.347656.199218 5.523438 4.808594 9.820312 10.351562 9.640625 14.792969-.527344 29.847656-.796875 44.746094-.796875 47.792969 0 94.847656 2.683594 139.867188 7.96875 8.816406 1.035156 10.132812 7.117188 10.132812 10.652344v43.632812c0 3.53125-1.316406 9.617188-10.132812 10.652344-45.027344 5.289062-92.082032 7.96875-139.867188 7.96875-47.78125 0-94.839844-2.679688-139.863281-7.96875-8.816407-1.035156-10.136719-7.121094-10.136719-10.652344v-43.632812c0-3.535156 1.316406-9.617188 10.136719-10.652344 2.03125-.238281 4.070312-.472656 6.109375-.699219 5.488281-.613281 9.441406-5.5625 8.828125-11.050781s-5.558594-9.433594-11.050781-8.828125c-2.078126.234375-4.152344.472656-6.222657.714844-19.203125 2.253906-27.800781 16.953125-27.800781 30.515625v43.632812c0 13.5625 8.597656 28.261719 27.800781 30.519532 23.582031 2.769531 47.710938 4.828124 72.199219 6.183593v11.921875c0 16.539063 13.457031 29.996094 30 29.996094v78.871094c0 16.542968 13.457031 30 30 30h.007812l.027344 24.878906c.003906 2.648438 1.054688 5.1875 2.929688 7.0625l9.183594 9.183594c.386718.386718.46875.84375.46875 1.160156s-.082032.773438-.46875 1.160156l-18.519532 18.523438c-4.078125 4.078125-6.324218 9.511718-6.324218 15.300781s2.246093 11.226563 6.324218 15.304687l18.519532 18.519532c.386718.386718.46875.84375.46875 1.164062 0 .316406-.082032.773438-.46875 1.160156l-18.523438 18.519532c-8.433594 8.4375-8.433594 22.167968.003906 30.605468l18.519532 18.523438c.617187.617188.617187 1.703125 0 2.320312l-9.183594 9.183594c-1.875 1.875-2.925782 4.414063-2.929688 7.0625l-.035156 32.609375c-.007812 5.523438 4.46875 10.007813 9.988281 10.011719h.011719c5.519531 0 9.992188-4.46875 10-9.988281l.03125-28.476563 6.257812-6.261718c4.078126-4.078126 6.324219-9.511719 6.324219-15.300782 0-5.789062-2.246093-11.226562-6.324219-15.304687l-18.519531-18.519531c-.617187-.621094-.617187-1.707032 0-2.324219l18.519531-18.519531c4.078126-4.078126 6.324219-9.515626 6.324219-15.304688s-2.246093-11.226562-6.324219-15.304688l-18.519531-18.519531c-.386719-.386719-.46875-.84375-.46875-1.160156s.082031-.773437.46875-1.160156l18.519531-18.523438c4.078126-4.078125 6.324219-9.511719 6.324219-15.300781 0-5.792969-2.246093-11.226562-6.324219-15.304688l-6.261718-6.261718-.019532-20.71875c16.535157-.003906 29.992188-13.460938 29.992188-30v-78.871094c16.539062 0 30-13.457031 30-30v-11.921875c24.484375-1.351563 48.613281-3.414063 72.199219-6.183594 19.203125-2.257812 27.800781-16.953125 27.800781-30.519531v-43.628906c0-13.5625-8.597656-28.261719-27.800781-30.515625zm-122.199219 231.640625c0 5.511718-4.484375 10-10 10h-20c-5.511719 0-10-4.488282-10-10v-78.871094h40zm30-108.871094c0 5.515625-4.484375 10-10 10h-80c-5.511719 0-10-4.484375-10-10v-10.980469c16.546875.648438 33.230469.980469 50 .980469 16.773438 0 33.453125-.332031 50-.980469zm0 0"/><path d="m79.953125 23.21875c.410156 0 .828125-.023438 1.25-.078125 5.480469-.6875 9.367187-5.683594 8.683594-11.164063-.6875-5.480468-5.675781-9.375-11.164063-8.679687h-.007812c-5.480469.683594-9.363282 5.683594-8.675782 11.160156.632813 5.0625 4.941407 8.761719 9.914063 8.761719zm0 0"/></svg>