<svg height="512pt" viewBox="0 0 512 512.001" width="512pt" xmlns="http://www.w3.org/2000/svg"><g fill-rule="evenodd"><path d="m301.050781 175.46875c-37.800781-22.148438-87.179687-17.011719-119.605469 15.414062l-28.390624 28.386719c-36.765626-.460937-73.675782 13.332031-101.726563 41.382813-55.199219 55.199218-55.199219 144.691406 0 199.890625 55.195313 55.195312 144.6875 55.195312 199.886719 0 28.054687-28.054688 41.84375-64.964844 41.382812-101.730469l28.390625-28.386719c32.425781-32.425781 37.558594-81.808593 15.414063-119.605469l-86.882813 86.882813c4.453125 16.679687.136719 35.210937-12.949219 48.296875-19.523437 19.523438-51.179687 19.523438-70.703124 0-19.523438-19.523438-19.523438-51.179688 0-70.703125 13.085937-13.085937 31.621093-17.398437 48.296874-12.945313zm-198.8125 163.460938 70.699219 70.703124-28.277344 28.28125-70.703125-70.703124zm0 0" fill="#ff9256"/><path d="m73.953125 367.207031 28.28125-28.28125 70.703125 70.703125-28.28125 28.28125zm0 0" fill="#dca98a"/><path d="m165.871094 346c19.523437 19.523438 51.175781 19.523438 70.703125 0 13.082031-13.085938 17.398437-31.617188 12.945312-48.296875-2.191406-8.210937-6.507812-15.964844-12.945312-22.40625-6.441407-6.4375-14.199219-10.753906-22.40625-12.945313-16.679688-4.453124-35.214844-.140624-48.296875 12.945313-19.523438 19.523437-19.523438 51.179687 0 70.703125zm0 0" fill="#858fa6"/><path d="m236.574219 275.296875c6.4375 6.441406 10.753906 14.199219 12.945312 22.40625l86.882813-86.882813 78.777344-78.78125c-1.421876-.835937-2.765626-1.867187-3.984376-3.085937l-28.28125-28.28125c-1.21875-1.21875-2.246093-2.558594-3.085937-3.984375l-78.777344 78.777344-86.882812 86.886718c8.207031 2.191407 15.964843 6.507813 22.40625 12.945313zm0 0" fill="#dca98a"/><path d="m382.914062 100.671875 28.28125 28.28125c1.21875 1.222656 2.5625 2.25 3.984376 3.085937 7.660156 4.5 17.738281 3.472657 24.296874-3.085937l56.5625-56.5625c7.777344-7.777344 7.777344-20.5 0-28.277344l-28.28125-28.28125c-7.777343-7.777343-20.503906-7.777343-28.28125 0l-56.5625 56.5625c-6.558593 6.558594-7.585937 16.632813-3.085937 24.292969.839844 1.425781 1.867187 2.765625 3.085937 3.984375zm0 0" fill="#ff9256"/></g><path d="m503.109375 37.042969-28.28125-28.28125c-5.652344-5.648438-13.183594-8.761719-21.210937-8.761719-8.027344 0-15.5625 3.113281-21.210938 8.761719l-56.5625 56.5625c-7.832031 7.832031-10.410156 18.953125-7.75 28.960937l-2.898438 2.894532c-3.902343 3.90625-3.902343 10.238281 0 14.144531 1.953126 1.949219 4.511719 2.925781 7.070313 2.925781s5.121094-.976562 7.070313-2.925781l.042968-.042969 21.210938 21.210938-147.683594 147.683593c-2.515625-4.269531-5.601562-8.289062-9.265625-11.949219-3.660156-3.660156-7.679687-6.746093-11.945313-9.261718l84.011719-84.011719c3.902344-3.902344 3.902344-10.234375 0-14.140625-3.90625-3.902344-10.238281-3.902344-14.140625 0l-2.34375 2.34375c-41.425781-20.441406-91.746094-12.445312-124.847656 20.65625l-25.464844 25.464844c-39.550781.585937-76.570312 16.222656-104.65625 44.304687-59.003906 59.011719-59.003906 155.023438 0 214.03125 29.101563 29.097657 67.796875 44.386719 107.046875 44.386719 22.863281 0 45.921875-5.1875 67.375-15.859375 4.941407-2.460937 6.957031-8.460937 4.5-13.40625-2.460937-4.941406-8.460937-6.960937-13.40625-4.5-50.574219 25.15625-111.40625 15.207031-151.371093-24.761719-51.210938-51.210937-51.210938-134.539062 0-185.75 25.246093-25.246094 58.8125-38.878906 94.53125-38.453125 2.691406.078125 5.292968-1.023437 7.199218-2.929687l28.386719-28.386719c25.355469-25.355469 63.089844-32.65625 95.574219-19.667969l-73.191406 73.195313c-18.402344-2.988281-37.9375 2.585937-52.097657 16.746093-11.332031 11.332032-17.574219 26.398438-17.574219 42.421876 0 16.023437 6.242188 31.089843 17.574219 42.421874 11.695313 11.695313 27.054688 17.542969 42.421875 17.542969 15.359375 0 30.726563-5.851562 42.417969-17.542969 14.164063-14.160156 19.734375-33.695312 16.75-52.101562l73.191406-73.191406c12.992188 32.484375 5.691407 70.222656-19.664062 95.578125l-28.386719 28.386719c-1.90625 1.90625-2.964844 4.5-2.929688 7.195312.261719 20.820312-4.476562 41.628906-13.695312 60.164062-2.460938 4.945313-.445312 10.949219 4.496094 13.40625 1.433594.710938 2.953125 1.050782 4.445312 1.050782 3.675782 0 7.214844-2.035156 8.960938-5.546875 10-20.101563 15.421875-42.503907 15.78125-65.050781l25.46875-25.46875c33.101562-33.097657 41.09375-83.421876 20.65625-124.847657l68.867187-68.867187c2.5.660156 5.097657 1.007812 7.753907 1.007812 8.027343 0 15.5625-3.109375 21.210937-8.761718l56.5625-56.5625c5.648437-5.648438 8.761719-13.183594 8.761719-21.210938 0-8.023438-3.113282-15.558594-8.761719-21.207031zm-273.605469 301.886719c-7.554687 7.554687-17.597656 11.714843-28.28125 11.714843s-20.726562-4.160156-28.28125-11.714843c-7.554687-7.554688-11.714844-17.597657-11.714844-28.28125 0-10.683594 4.160157-20.726563 11.714844-28.28125 7.796875-7.796876 18.039063-11.695313 28.28125-11.695313 10.242188 0 20.484375 3.898437 28.28125 11.695313 15.59375 15.59375 15.59375 40.96875 0 56.5625zm259.464844-273.605469-56.5625 56.558593c-3.898438 3.898438-10.242188 3.898438-14.140625 0l-28.28125-28.277343c-1.875-1.875-2.902344-4.386719-2.902344-7.070313 0-2.6875 1.027344-5.199218 2.902344-7.070312l56.5625-56.5625c1.949219-1.949219 4.507813-2.921875 7.070313-2.921875 2.558593 0 5.121093.972656 7.070312 2.921875l28.28125 28.28125c1.871094 1.871094 2.902344 4.382812 2.902344 7.070312s-1.03125 5.195313-2.902344 7.070313zm0 0"/><path d="m102.238281 328.929688c-2.652343 0-5.195312 1.054687-7.070312 2.929687l-28.28125 28.28125c-3.90625 3.902344-3.90625 10.234375 0 14.140625l70.703125 70.703125c1.875 1.875 4.417968 2.929687 7.070312 2.929687 2.648438 0 5.195313-1.054687 7.070313-2.929687l28.277343-28.28125c3.90625-3.902344 3.90625-10.234375 0-14.140625l-70.699218-70.703125c-1.875-1.875-4.417969-2.929687-7.070313-2.929687zm42.421875 94.84375-56.5625-56.5625 14.140625-14.140626 56.558594 56.5625zm0 0"/><path d="m446.546875 51.183594-28.28125 28.28125c-3.90625 3.902344-3.90625 10.234375 0 14.140625 1.953125 1.949219 4.511719 2.929687 7.070313 2.929687 2.558593 0 5.117187-.980468 7.070312-2.929687l28.28125-28.28125c3.902344-3.90625 3.902344-10.234375 0-14.140625-3.90625-3.90625-10.238281-3.90625-14.140625 0zm0 0"/><path d="m334.046875 143.75c1.871094 1.558594 4.140625 2.316406 6.398437 2.316406 2.863282 0 5.707032-1.222656 7.683594-3.597656l.007813-.003906c3.535156-4.242188 2.957031-10.542969-1.285157-14.082032-4.242187-3.53125-10.546874-2.957031-14.082031 1.285157-3.535156 4.242187-2.964843 10.546875 1.277344 14.082031zm0 0"/><path d="m244.140625 453.476562c-3.902344 3.90625-3.902344 10.234376 0 14.140626 1.953125 1.953124 4.511719 2.929687 7.070313 2.929687 2.558593 0 5.117187-.976563 7.070312-2.929687l.003906-.003907c3.90625-3.90625 3.902344-10.234375 0-14.136719-3.90625-3.90625-10.238281-3.90625-14.144531 0zm0 0"/></svg>