<svg height="512pt" viewBox="0 -26 512 511" width="512pt" xmlns="http://www.w3.org/2000/svg"><g fill-rule="evenodd"><path d="m328.28125 330.511719h133.71875c1.703125 0 3.382812.105469 5.027344.316406l-179.3125-310.574219c-5.363282-9.292968-17.355469-12.507812-26.648438-7.140625-21.515625 12.421875-38.128906 69.132813-11.304687 157.214844l5.597656-3.230469c11.90625-6.875 27.273437-2.757812 34.148437 9.152344 6.875 11.90625 2.757813 27.273438-9.148437 34.148438l-12.96875 7.488281c8.03125 18.5 17.824219 38.03125 29.648437 58.511719zm0 0" fill="#b5bbc9"/><path d="m381.996094 330.511719v120h80.003906c22 0 40-18 40-40v-40c0-20.296875-15.320312-37.191407-34.972656-39.683594-1.648438-.210937-3.324219-.316406-5.027344-.316406zm0 0" fill="#ff6977"/><path d="m381.996094 450.511719v-120h-207.578125c-13.632813 12.277343-33.375 20-55.339844 20s-41.707031-7.722657-55.34375-20h-13.734375c-22 0-40 18-40 40v40c0 22 18 40 40 40zm0 0" fill="#dca98a"/></g><path d="m473.382812 321.832031-120.390624-208.519531c-2.761719-4.78125-8.878907-6.421875-13.660157-3.660156-4.785156 2.761718-6.421875 8.878906-3.660156 13.660156l113.851563 197.199219h-115.46875l-28.355469-49.113281c-9.570313-16.574219-18.132813-33.140626-25.515625-49.351563l5.175781-2.988281c16.714844-9.648438 22.460937-31.097656 12.8125-47.8125-8.59375-14.882813-26.546875-21.074219-42.175781-15.429688-22.34375-82.691406-2.945313-126.53125 10.070312-134.046875 2.179688-1.257812 4.742188-1.589843 7.210938-.925781 2.46875.660156 4.519531 2.226562 5.78125 4.40625l11.613281 20.121094c2.761719 4.78125 8.878906 6.421875 13.660156 3.660156 4.785157-2.765625 6.421875-8.878906 3.660157-13.660156l-11.613282-20.121094c-3.929687-6.804688-10.296875-11.683594-17.925781-13.726562-7.628906-2.042969-15.578125-1.003907-22.386719 2.925781-14.558594 8.402343-25.015625 29.398437-28.695312 57.601562-2.878906 22.0625-2.988282 59.257813 12.828125 111.191407.886719 2.917968 3.058593 5.269531 5.894531 6.386718 2.835938 1.121094 6.03125.882813 8.667969-.640625l5.597656-3.230469c7.164063-4.132812 16.355469-1.675781 20.488281 5.488282 4.136719 7.164062 1.671875 16.355468-5.488281 20.488281l-12.96875 7.488281c-4.402344 2.542969-6.195313 7.980469-4.175781 12.640625 8.457031 19.484375 18.605468 39.515625 30.164062 59.535157l22.582032 39.109374h-136.542969c-2.46875 0-4.851563.917969-6.691407 2.570313-12.300781 11.078125-30.03125 17.433594-48.648437 17.433594s-36.351563-6.355469-48.648437-17.433594c-1.839844-1.652344-4.222657-2.570313-6.695313-2.570313h-13.734375c-27.570312 0-50 22.429688-50 50v40.003907c0 27.566406 22.429688 49.996093 50 49.996093h412c27.570312 0 50-22.429687 50-49.996093v-40.003907c0-23.652343-16.515625-43.507812-38.617188-48.675781zm-453.382812 88.679688v-40c0-16.542969 13.457031-30 30-30h10.046875c15.699219 12.75 36.976563 20 59.03125 20s43.332031-7.25 59.03125-20h150.152344.027343.03125 43.675782v100h-321.996094c-16.542969 0-30-13.457031-30-30zm472 0c0 16.542969-13.457031 30-30 30h-70.003906v-100h70.003906c16.542969 0 30 13.457031 30 30zm0 0"/><path d="m111.070312 400.511719h-54.996093c-5.523438 0-10 4.476562-10 10 0 5.519531 4.476562 10 10 10h54.996093c5.519532 0 10-4.480469 10-10 0-5.523438-4.480468-10-10-10zm0 0"/><path d="m156.066406 400.511719c-5.523437 0-10 4.476562-10 10 0 5.519531 4.476563 10 10 10h.003906c5.523438 0 10-4.480469 10-10 0-5.523438-4.484374-10-10.003906-10zm0 0"/><path d="m321.84375 89.34375c1.90625 0 3.832031-.542969 5.535156-1.679688 4.597656-3.0625 5.839844-9.273437 2.773438-13.867187l-.003906-.003906c-3.0625-4.597657-9.269532-5.835938-13.863282-2.773438-4.597656 3.0625-5.835937 9.277344-2.773437 13.871094 1.925781 2.890625 5.097656 4.453125 8.332031 4.453125zm0 0"/></svg>