<svg height="512pt" viewBox="-66 0 512 512" width="512pt" xmlns="http://www.w3.org/2000/svg"><g fill-rule="evenodd"><path d="m130 50h120c11 0 20-9 20-20s-9-20-20-20h-120c-11 0-20 8.996094-20 20 0 11 9 20 20 20zm0 0" fill="#dca98a"/><path d="m254 90h-128c-63.800781 0-116 52.199219-116 116v76h20c11 0 20-9 20-20v-56c0-41.71875 34.28125-76 76-76h128c41.722656 0 76 34.28125 76 76v56c0 11 9 20 20 20h20v-76c0-63.800781-52.199219-116-116-116zm0 0" fill="#dca98a"/><path d="m254 130h-128c-41.71875 0-76 34.28125-76 76v56c0 11-9 20-20 20h-20v188c0 17.601562 14.402344 32 32 32h296c17.601562 0 32-14.398438 32-32v-188h-20c-11 0-20-9-20-20v-56c0-41.71875-34.277344-76-76-76zm-102.582031 74.277344 31.511719-31.511719c3.890624-3.890625 10.253906-3.890625 14.140624 0l31.511719 31.511719c3.890625 3.886718 3.890625 10.253906 0 14.140625l-31.511719 31.511719c-3.886718 3.890624-10.25 3.890624-14.140624 0l-31.511719-31.511719c-3.886719-3.886719-3.886719-10.253907 0-14.140625zm-69.417969 97.722656h216c17.601562 0 32 14.402344 32 32v112.003906c0 8.796875-7.199219 16-16 16h-248c-8.800781 0-16-7.199218-16-16v-112.003906c0-17.597656 14.398438-32 32-32zm0 0" fill="#ffc059"/><path d="m197.070312 172.765625c-3.886718-3.886719-10.25-3.886719-14.140624 0l-31.511719 31.511719c-3.886719 3.890625-3.886719 10.253906 0 14.140625l31.511719 31.511719c3.890624 3.890624 10.253906 3.890624 14.140624 0l31.511719-31.511719c3.890625-3.886719 3.890625-10.25 0-14.140625zm0 0" fill="#dca98a"/><path d="m298 302h-216c-17.601562 0-32 14.402344-32 32v8.003906h280v-8.003906c0-17.597656-14.398438-32-32-32zm0 0" fill="#dca98a"/><path d="m330 342.003906h-280v103.996094c0 8.800781 7.199219 16 16 16h248c8.800781 0 16-7.199219 16-16zm0 0" fill="#ff9256"/></g><path d="m298 292h-216c-23.160156 0-42 18.84375-42 42v112c0 14.335938 11.664062 26 26 26h248c14.335938 0 26-11.664062 26-26v-112c0-23.15625-18.839844-42-42-42zm-216 20h216c11.457031 0 20.890625 8.804688 21.90625 20.003906h-259.8125c1.015625-11.199218 10.449219-20.003906 21.90625-20.003906zm232 140h-248c-3.253906 0-6-2.746094-6-6v-93.996094h260v93.996094c0 3.253906-2.746094 6-6 6zm0 0"/><path d="m263.082031 80.332031-2.234375-22.371093c11.195313-4.355469 19.152344-15.242188 19.152344-27.960938 0-16.542969-13.457031-30-30-30h-120c-16.542969 0-30 13.457031-30 30 0 12.71875 7.960938 23.605469 19.15625 27.960938l-2.238281 22.367187c-13.332031.957031-26.332031 4.027344-38.753907 9.164063-5.101562 2.109374-7.527343 7.957031-5.417968 13.0625 2.109375 5.105468 7.960937 7.527343 13.0625 5.421874 12.789062-5.289062 26.308594-7.972656 40.183594-7.976562.007812 0 .011718.003906.019531.003906.007812 0 .015625-.003906.019531-.003906h127.9375c.007812 0 .015625.003906.019531.003906.007813 0 .011719-.003906.019531-.003906 58.445313.003906 105.992188 47.554688 105.992188 106v66h-10c-5.515625 0-10-4.488281-10-10v-56c0-47.421875-38.578125-86-86-86h-128c-47.421875 0-86 38.578125-86 86v56c0 5.511719-4.484375 10-10 10h-10v-66c0-13.691406 2.613281-27.046875 7.769531-39.691406 2.082031-5.117188-.371093-10.953125-5.488281-13.035156-5.117188-2.085938-10.949219.371093-13.035156 5.484374-6.132813 15.054688-9.246094 30.949219-9.246094 47.242188v264c0 23.160156 18.839844 42 42 42h296c23.160156 0 42-18.839844 42-42v-264c0-66.421875-51.664062-121-116.917969-125.667969zm-22.132812-20.332031 2.003906 20h-105.902344l2-20zm-110.949219-40h120c5.515625 0 10 4.484375 10 10s-4.484375 10-10 10h-119.984375c-.015625 0-.03125-.003906-.046875-.003906-5.5-.015625-9.96875-4.496094-9.96875-9.996094 0-5.515625 4.488281-10 10-10zm208 472h-296c-12.132812 0-22-9.867188-22-22v-178h10c16.542969 0 30-13.457031 30-30v-56c0-36.390625 29.605469-66 66-66h128c36.390625 0 66 29.609375 66 66v56c0 16.542969 13.457031 30 30 30h10v178c0 12.132812-9.871094 22-22 22zm0 0"/><path d="m175.859375 257c3.769531 3.769531 8.792969 5.847656 14.140625 5.847656 5.351562 0 10.375-2.078125 14.144531-5.847656l31.507813-31.507812c3.773437-3.773438 5.847656-8.792969 5.847656-14.144532 0-5.351562-2.074219-10.375-5.84375-14.144531l-31.511719-31.507813c-3.769531-3.773437-8.792969-5.847656-14.144531-5.847656-5.347656 0-10.371094 2.074219-14.140625 5.847656l-31.511719 31.507813c-3.769531 3.769531-5.847656 8.792969-5.847656 14.144531 0 5.351563 2.078125 10.371094 5.847656 14.140625zm-17.371094-45.652344 31.511719-31.511718 31.511719 31.511718-31.511719 31.511719-31.511719-31.507813zm0 0"/><path d="m194.007812 412h-.007812c-5.523438 0-9.996094 4.476562-9.996094 10 0 5.519531 4.480469 10 10.003906 10 5.523438 0 10-4.480469 10-10 0-5.523438-4.476562-10-10-10zm0 0"/><path d="m294 412h-54.996094c-5.523437 0-10 4.476562-10 10 0 5.519531 4.476563 10 10 10h54.996094c5.519531 0 10-4.480469 10-10 0-5.523438-4.476562-10-10-10zm0 0"/><path d="m43.882812 134.269531c2.558594 0 5.117188-.976562 7.070313-2.929687l.003906-.003906c3.90625-3.902344 3.902344-10.234376-.003906-14.140626-3.902344-3.90625-10.238281-3.902343-14.144531.003907s-3.90625 10.238281 0 14.140625c1.953125 1.953125 4.511718 2.929687 7.074218 2.929687zm0 0"/></svg>