<svg height="512pt" viewBox="0 -26 512 512" width="512pt" xmlns="http://www.w3.org/2000/svg"><g fill-rule="evenodd"><path d="m81.121094 140.707031c0-23.257812 18.855468-42.113281 42.117187-42.113281 8.011719 0 15.503907 2.238281 21.882813 6.125 5.949218-31.394531 28.164062-54.71875 54.65625-54.71875 31.050781 0 56.222656 32.039062 56.222656 71.5625 0 29.117188-13.660156 54.175781-33.273438 65.347656 1.394532 4.1875 2.152344 8.667969 2.152344 13.324219 0 11.621094-4.707031 22.144531-12.320312 29.765625 7.613281 7.617188 12.320312 18.140625 12.320312 29.761719 0 11.621093-4.707031 22.144531-12.320312 29.765625 7.613281 7.617187 12.320312 18.140625 12.320312 29.761718 0 23.257813-18.855468 42.117188-42.117187 42.117188-11.621094 0-22.140625-4.707031-29.761719-12.320312-3.371094 3.367187-7.316406 6.167968-11.667969 8.242187l31.578125 31.582031c-28.117187 28.117188-73.703125 28.117188-101.824218 0-28.117188-28.117187-28.117188-73.707031 0-101.824218l14.109374 14.109374c2.078126-4.351562 4.875-8.296874 8.246094-11.667968-7.613281-7.621094-12.320312-18.144532-12.320312-29.765625 0-11.621094 4.707031-22.144531 12.320312-29.761719-7.613281-7.621094-12.320312-18.144531-12.320312-29.765625s4.707031-22.144531 12.320312-29.761719c-7.613281-7.621094-12.320312-18.144531-12.320312-29.765625zm214.878906-130.707031h-266c-11 0-20 9-20 20v399.996094c0 11 9 20 20 20h266zm0 0" fill="#b5bbc9"/><path d="m145.121094 104.71875c-1.023438 5.402344-1.566406 11.042969-1.566406 16.84375 0 39.523438 25.171874 71.566406 56.222656 71.566406 8.175781 0 15.941406-2.222656 22.949218-6.21875 19.613282-11.171875 33.273438-36.226562 33.273438-65.347656 0-39.523438-25.171875-71.5625-56.222656-71.5625-26.492188 0-48.707032 23.324219-54.65625 54.71875zm0 0" fill="#dca98a"/><path d="m199.777344 193.125c-31.050782 0-56.222656-32.039062-56.222656-71.5625 0-5.800781.542968-11.441406 1.566406-16.84375-6.378906-3.886719-13.871094-6.125-21.882813-6.125-23.261719 0-42.117187 18.855469-42.117187 42.113281 0 11.621094 4.707031 22.144531 12.320312 29.765625-7.613281 7.617188-12.320312 18.140625-12.320312 29.761719s4.707031 22.144531 12.320312 29.765625c-7.613281 7.617188-12.320312 18.140625-12.320312 29.761719 0 11.621093 4.707031 22.144531 12.320312 29.765625-3.371094 3.371094-6.167968 7.3125-8.246094 11.667968l36.804688 36.800782 19.332031 19.332031c4.351563-2.074219 8.296875-4.875 11.667969-8.242187 7.621094 7.609374 18.140625 12.320312 29.761719 12.320312 23.261719 0 42.117187-18.855469 42.117187-42.117188 0-11.621093-4.707031-22.144531-12.320312-29.761718 7.613281-7.621094 12.320312-18.144532 12.320312-29.765625 0-11.621094-4.707031-22.144531-12.320312-29.761719 7.613281-7.621094 12.320312-18.144531 12.320312-29.765625 0-4.65625-.757812-9.136719-2.152344-13.324219-7.007812 3.996094-14.773437 6.214844-22.949218 6.214844zm0 0" fill="#78d0a9"/><path d="m122 337.996094-36.804688-36.800782-14.109374-14.109374c-28.117188 28.117187-28.117188 73.707031 0 101.824218 28.121093 28.117188 73.707031 28.117188 101.824218 0l-31.578125-31.582031zm0 0" fill="#ff6977"/><path d="m296 10v260h206v-240c0-11-9-20-20-20zm86.90625 49.058594 38.300781-10.265625 40.792969 175.421875-26.078125 6.988281zm-34.304688 170.941406 7-180h27l.304688 9.058594 5.695312 170.941406zm0 0" fill="#858fa6"/><path d="m355.601562 50-7 180h40l-5.695312-170.941406-.304688-9.058594zm0 0" fill="#e2f0a1"/><path d="m382.90625 59.058594 53.011719 172.144531 26.082031-6.988281-40.792969-175.417969zm0 0" fill="#e2f0a1"/><path d="m502 270h-206v179.996094h186c11 0 20-9 20-20zm-87.9375 75.296875c4.28125-1.957031 9.042969-3.050781 14.0625-3.050781 18.707031 0 33.875 15.167968 33.875 33.875 0 18.710937-15.167969 33.875-33.875 33.875-16.398438 0-30.074219-11.648438-33.203125-27.121094-5.804687 3.414062-12.574219 5.371094-19.796875 5.371094-21.609375 0-39.125-17.515625-39.125-39.125 0-21.605469 17.515625-39.125 39.125-39.125 20.316406.003906 37.015625 15.488281 38.9375 35.300781zm0 0" fill="#858fa6"/><path d="m414.0625 345.296875c-1.921875-19.8125-18.621094-35.296875-38.9375-35.296875-21.609375 0-39.125 17.515625-39.125 39.125 0 21.605469 17.515625 39.121094 39.125 39.121094 7.222656 0 13.992188-1.957032 19.796875-5.371094 11.566406-6.796875 19.324219-19.367188 19.324219-33.75.003906-1.292969-.0625-2.570312-.183594-3.828125zm0 0" fill="#ffd89e"/><path d="m428.125 342.246094c-5.019531 0-9.78125 1.09375-14.0625 3.050781.121094 1.257813.1875 2.535156.1875 3.824219 0 14.382812-7.761719 26.953125-19.324219 33.753906 3.125 15.472656 16.800781 27.121094 33.199219 27.121094 18.707031 0 33.875-15.164063 33.875-33.875 0-18.707032-15.167969-33.875-33.875-33.875zm0 0" fill="#ffc059"/></g><path d="m482 0h-342c-5.523438 0-10 4.476562-10 10s4.476562 10 10 10h146v420h-256c-5.515625 0-10-4.488281-10-10v-400c0-5.515625 4.484375-10 10-10h20c5.523438 0 10-4.476562 10-10s-4.476562-10-10-10h-20c-16.542969 0-30 13.457031-30 30v400c0 16.539062 13.457031 30 30 30h452c16.542969 0 30-13.460938 30-30v-400c0-16.542969-13.457031-30-30-30zm0 440h-176v-160h86c5.523438 0 10-4.476562 10-10s-4.476562-10-10-10h-86v-240h176c5.515625 0 10 4.484375 10 10v230h-10c-5.523438 0-10 4.476562-10 10s4.476562 10 10 10h10v150c0 5.511719-4.484375 10-10 10zm0 0"/><path d="m428.125 332.246094c-2.261719 0-4.492188.175781-6.691406.511718-6.753906-19.0625-24.957032-32.757812-46.308594-32.757812-27.085938 0-49.125 22.035156-49.125 49.121094 0 27.089844 22.039062 49.125 49.125 49.125 4.863281 0 9.558594-.71875 14-2.042969 7.378906 14.277344 22.3125 23.792969 39 23.792969 24.191406 0 43.875-19.683594 43.875-43.875s-19.683594-43.875-43.875-43.875zm-82.125 16.878906c0-16.058594 13.066406-29.125 29.125-29.125s29.125 13.066406 29.125 29.125-13.066406 29.121094-29.125 29.121094-29.125-13.0625-29.125-29.121094zm82.125 50.875c-9.222656 0-17.460938-5.335938-21.410156-13.296875 9.882812-8.320313 16.441406-20.457031 17.398437-34.121094 1.3125-.21875 2.652344-.335937 4.011719-.335937 13.164062 0 23.875 10.710937 23.875 23.875 0 13.167968-10.710938 23.878906-23.875 23.878906zm0 0"/><path d="m435.914062 241.207031c.855469 0 1.726563-.109375 2.59375-.34375l26.082032-6.988281c5.207031-1.394531 8.371094-6.671875 7.148437-11.925781l-40.789062-175.417969c-.617188-2.640625-2.273438-4.917969-4.597657-6.3125-2.328124-1.394531-5.117187-1.785156-7.734374-1.082031l-26.734376 7.164062c-1.472656-3.699219-5.078124-6.304687-9.28125-6.304687h-27c-5.371093 0-9.78125 4.246094-9.992187 9.613281l-7 180c-.105469 2.71875.898437 5.363281 2.785156 7.320313 1.886719 1.960937 4.488281 3.070312 7.207031 3.070312h40c2.710938 0 5.304688-1.101562 7.1875-3.050781 1.886719-1.945313 2.898438-4.574219 2.808594-7.285157l-3.203125-96.074218 30.96875 100.554687c1.320313 4.289063 5.265625 7.0625 9.550781 7.0625zm-76.914062-21.207031 6.222656-160h7.707032l5.332031 160zm54.808594-158.871094 36.261718 155.929688-7.429687 1.992187-47.125-153.019531zm0 0"/><path d="m64.019531 395.980469c15.984375 15.984375 36.980469 23.980469 57.980469 23.980469s41.996094-7.996094 57.980469-23.980469c1.875-1.875 2.929687-4.417969 2.929687-7.070313s-1.054687-5.195312-2.929687-7.070312l-12.789063-12.792969c4.976563 1.550781 10.210938 2.355469 15.570313 2.355469 28.738281 0 52.117187-23.375 52.117187-52.113282 0-10.796874-3.261718-21.09375-9.320312-29.765624 6.058594-8.667969 9.320312-18.964844 9.320312-29.761719s-3.261718-21.09375-9.320312-29.761719c6.058594-8.671875 9.320312-18.96875 9.320312-29.765625 0-3.015625-.265625-6.003906-.777344-8.945313 19.109376-14.320312 31.898438-40.21875 31.898438-69.726562 0-44.976562-29.707031-81.566406-66.222656-81.566406-27.699219 0-51.46875 21.066406-61.335938 50.863281-4.902344-1.492187-10.023437-2.265625-15.207031-2.265625-28.734375 0-52.113281 23.375-52.113281 52.113281 0 10.796875 3.261718 21.09375 9.320312 29.761719-6.058594 8.671875-9.320312 18.96875-9.320312 29.765625s3.261718 21.09375 9.320312 29.765625c-6.058594 8.667969-9.320312 18.964844-9.320312 29.761719 0 6.183593 1.074218 12.203125 3.128906 17.847656-3.480469-1.15625-7.464844-.363281-10.234375 2.40625-15.484375 15.488281-24.015625 36.078125-24.015625 57.980469 0 21.90625 8.53125 42.496094 24.019531 57.984375zm103.898438-318.804688c8.703125-11.074219 20.019531-17.175781 31.859375-17.175781 11.84375 0 23.15625 6.101562 31.859375 17.175781 9.261719 11.789063 14.363281 27.554688 14.363281 44.386719s-5.101562 32.597656-14.363281 44.386719c-8.703125 11.078125-20.015625 17.179687-31.859375 17.179687-11.839844 0-23.15625-6.101562-31.859375-17.179687-9.261719-11.789063-14.363281-27.554688-14.363281-44.386719s5.101562-32.597656 14.363281-44.386719zm-67.402344 145.757813c-6.058594-6.066406-9.394531-14.125-9.394531-22.699219 0-8.570313 3.335937-16.632813 9.394531-22.691406 3.902344-3.90625 3.902344-10.230469 0-14.136719-6.058594-6.066406-9.394531-14.125-9.394531-22.699219 0-17.707031 14.40625-32.113281 32.117187-32.113281 3.753907 0 7.457031.660156 10.941407 1.921875-.398438 3.617187-.625 7.300781-.625 11.050781 0 44.972656 29.707031 81.5625 66.222656 81.5625 5.191406 0 10.234375-.765625 15.082031-2.160156-.183594 8.296875-3.488281 16.074219-9.375 21.964844-3.898437 3.902344-3.898437 10.226562 0 14.132812 6.058594 6.066406 9.394531 14.125 9.394531 22.695313 0 8.570312-3.335937 16.632812-9.394531 22.695312-3.898437 3.90625-3.898437 10.230469 0 14.136719 6.058594 6.0625 9.394531 14.125 9.394531 22.695312 0 17.707032-14.40625 32.113282-32.113281 32.113282-8.574219 0-16.632813-3.335938-22.695313-9.394532-3.90625-3.898437-10.234374-3.898437-14.136718 0-.972656.972657-2.015625 1.855469-3.09375 2.6875l-45.007813-45.007812c.832031-1.078125 1.714844-2.121094 2.6875-3.09375 3.898438-3.90625 3.898438-10.230469-.003906-14.136719-6.058594-6.0625-9.394531-14.125-9.394531-22.695312 0-8.570313 3.335937-16.632813 9.394531-22.695313 3.902344-3.90625 3.902344-10.230468 0-14.132812zm-28.863281 78.859375 86.546875 86.546875c-24.214844 17.433594-58.273438 15.265625-80.039063-6.5-11.710937-11.710938-18.160156-27.28125-18.160156-43.84375 0-13.175782 4.082031-25.726563 11.652344-36.203125zm0 0"/><path d="m130.558594 213.625c5.523437 0 10-4.480469 10-10.003906 0-5.523438-4.476563-10-10-10-5.523438 0-10 4.476562-10 10v.007812c0 5.523438 4.476562 9.996094 10 9.996094zm0 0"/><path d="m174.058594 260.125c5.523437 0 10-4.480469 10-10.003906 0-5.523438-4.476563-10-10-10-5.523438 0-10 4.476562-10 10v.007812c0 5.523438 4.476562 9.996094 10 9.996094zm0 0"/><path d="m129.058594 292.121094v.007812c0 5.523438 4.476562 9.996094 10 9.996094 5.523437 0 10-4.480469 10-10.003906 0-5.523438-4.476563-10-10-10-5.523438 0-10 4.476562-10 10zm0 0"/><path d="m95.003906 20c5.523438 0 10-4.476562 10-10s-4.476562-10-10-10h-.007812c-5.523438 0-9.996094 4.476562-9.996094 10s4.480469 10 10.003906 10zm0 0"/><path d="m436.996094 260c-5.523438 0-9.996094 4.476562-9.996094 10s4.480469 10 10.003906 10c5.519532 0 10-4.476562 10-10s-4.480468-10-10-10zm0 0"/></svg>