<svg height="512pt" viewBox="0 -26 512 512" width="512pt" xmlns="http://www.w3.org/2000/svg"><g fill-rule="evenodd"><path d="m196 50v-40h-70c-22 0-40 18-40 40v60h40v-60zm0 0" fill="#b5bbc9"/><path d="m196 10h120v40h-120zm0 0" fill="#858fa6"/><path d="m316 10v40h70v60h40v-60c0-22-18-40-40-40zm0 0" fill="#b5bbc9"/><path d="m296 89.996094h-80c-11 0-20 9-20 20s9 20 20 20h80c11 0 20-9 20-20s-9-20-20-20zm0 0" fill="#b0e7f7"/><path d="m296 129.996094h-80c-11 0-20-9-20-20h-166c-11 0-20 9-20 20v300c0 11 9 20 20 20h452c10.996094 0 20-9 20-20v-299.996094c0-11-9-20-20-20h-166c0 11-9 19.996094-20 19.996094zm10 100c0-24.851563 16.863281-45 50-45s70 20.148437 70 45c0 24.851562-36.863281 45-70 45s-50-20.148438-50-45zm-60-20c11 0 20 9 20 20s-9 20-20 20h-140c-11 0-20-9-20-20s9-20 20-20zm-40 125v20.003906c0 11-9 20-20 20h-20v-80.003906h20c11 0 20 9 20 20zm40.003906 0c0-11 9-20 20-20h139.996094c11 0 20 9 20 20s-9 20-20 20h-139.996094c-11.003906 0-20-9-20-20zm0 0" fill="#858fa6"/><path d="m266 229.996094c0-11-9-20-20-20h-140c-11 0-20 9-20 20s9 20 20 20h140c11 0 20-9 20-20zm0 0" fill="#dca98a"/><path d="m356 184.996094c-33.136719 0-50 20.148437-50 45 0 24.851562 16.863281 45 50 45s70-20.148438 70-45c0-24.851563-36.863281-45-70-45zm0 0" fill="#b5bbc9"/><path d="m206 334.996094v-20c0-11-9-20-20-20h-20v80.003906h20c11 0 20-9 20-20zm0 0" fill="#b5bbc9"/><path d="m246.003906 334.996094c0 11 9 20 20 20h139.996094c11 0 20-9 20-20s-9-20-20-20h-139.996094c-11.003906 0-20 9-20 20zm0 0" fill="#dca98a"/></g><path d="m106 259.996094h140c13.035156 0 24.152344-8.359375 28.277344-20h22.566406c4.039062 23.71875 22.777344 45 59.15625 45 37.765625 0 80-23.519532 80-55 0-31.480469-42.234375-55-80-55-36.378906 0-55.117188 21.28125-59.15625 45h-22.566406c-4.125-11.640625-15.242188-20-28.277344-20h-140c-16.542969 0-30 13.457031-30 30 0 16.542968 13.457031 30 30 30zm250-65c29.71875 0 60 17.664062 60 35 0 17.335937-30.28125 35-60 35-25.046875 0-40-13.085938-40-35 0-21.914063 14.953125-35 40-35zm-250 25h140c5.511719 0 10 4.484375 10 10s-4.488281 10-10 10h-140c-5.515625 0-10-4.484375-10-10s4.484375-10 10-10zm0 0"/><path d="m436 334.996094c0-16.542969-13.457031-30-30-30h-140c-13.035156 0-24.152344 8.363281-28.277344 20h-21.722656v-10c0-16.542969-13.457031-30-30-30h-100c-5.523438 0-10 4.476562-10 10 0 5.523437 4.476562 10 10 10h70v20h-70c-5.523438 0-10 4.480468-10 10 0 5.523437 4.476562 10 10 10h70v20.003906h-70c-5.523438 0-10 4.476562-10 10 0 5.519531 4.476562 10 10 10h100c16.542969 0 30-13.460938 30-30v-10.003906h21.722656c4.128906 11.640625 15.242188 20 28.277344 20h140c16.542969 0 30-13.457032 30-30zm-240 20.003906c0 5.511719-4.484375 10-10 10h-10v-60.003906h10c5.515625 0 10 4.484375 10 10zm60.003906-20.003906c0-5.511719 4.484375-10 9.996094-10h140c5.515625 0 10 4.488281 10 10 0 5.515625-4.484375 10-10 10h-140c-5.511719 0-9.996094-4.484375-9.996094-10zm0 0"/><path d="m482 100h-46v-50c0-27.570312-22.429688-50-50-50h-85.003906c-5.519532 0-10 4.476562-10 10s4.480468 10 10 10h5.003906v20h-100v-20h4.996094c5.523437 0 10-4.476562 10-10s-4.476563-10-10-10h-84.996094c-27.570312 0-50 22.429688-50 50v50h-46c-16.542969 0-30 13.457031-30 30v299.996094c0 16.542968 13.457031 30.003906 30 30.003906h452c16.542969 0 30-13.460938 30-30.003906v-299.996094c0-16.542969-13.457031-30-30-30zm-156-80h60c16.542969 0 30 13.457031 30 30v50h-20v-50c0-5.523438-4.476562-10-10-10h-60zm-1.71875 80c-4.128906-11.640625-15.246094-20.003906-28.28125-20.003906h-80c-13.035156 0-24.152344 8.363281-28.28125 20.003906h-51.71875v-40h240v40zm-18.28125 10c0 5.511719-4.484375 9.996094-10 9.996094h-80c-5.515625 0-10-4.484375-10-10 0-5.511719 4.484375-10 10-10h80c5.515625 0 10 4.488281 10 10.003906zm-210-60c0-16.542969 13.457031-30 30-30h60v20h-60c-5.523438 0-10 4.476562-10 10v50h-20zm396 379.996094c0 5.515625-4.484375 10.003906-10 10.003906h-452c-5.515625 0-10-4.488281-10-10.003906v-299.996094c0-5.515625 4.484375-10 10-10h157.71875c4.128906 11.636719 15.246094 19.996094 28.28125 19.996094h80c13.035156 0 24.152344-8.359375 28.28125-19.996094h157.71875c5.515625 0 10 4.484375 10 10zm0 0"/><path d="m462 399.996094h-54.996094c-5.523437 0-10 4.476562-10 10 0 5.523437 4.476563 10 10 10h54.996094c5.519531 0 10-4.476563 10-10 0-5.523438-4.480469-10-10-10zm0 0"/><path d="m362.007812 399.996094h-.007812c-5.523438 0-9.996094 4.476562-9.996094 10 0 5.523437 4.480469 10 10.003906 10 5.523438 0 10-4.476563 10-10 0-5.523438-4.476562-10-10-10zm0 0"/><path d="m256 20c5.523438 0 10-4.476562 10-10s-4.476562-10-10-10h-.007812c-5.519532 0-9.996094 4.476562-9.996094 10s4.480468 10 10.003906 10zm0 0"/></svg>