<svg height="512pt" viewBox="0 -26 512 511" width="512pt" xmlns="http://www.w3.org/2000/svg"><path d="m482 80.503906h-20c-5.523438 0-10 4.476563-10 10 0 5.519532 4.476562 10 10 10h20c5.515625 0 10 4.484375 10 10v320c0 5.511719-4.484375 10-10 10h-452c-5.515625 0-10-4.488281-10-10v-320c0-5.503906 4.46875-9.984375 9.96875-10h.019531.046875 341.964844c5.523438 0 10-4.480468 10-10 0-5.523437-4.476562-10-10-10h-252.488281l266.265625-60.25c5.386718-1.21875 8.765625-6.574218 7.546875-11.957031-1.21875-5.390625-6.578125-8.769531-11.960938-7.546875l-352.621093 79.785156c-15.960938.660156-28.742188 13.847656-28.742188 29.96875v320c0 16.539063 13.457031 30 30 30h452c16.542969 0 30-13.460937 30-30v-320c0-16.542968-13.457031-30-30-30zm0 0"/><path d="m472 150.503906c0-16.542968-13.457031-30-30-30h-372c-16.542969 0-30 13.457032-30 30 0 16.539063 13.457031 30 30 30h372c16.542969 0 30-13.457031 30-30zm-412 0c0-5.515625 4.484375-10 10-10h281.996094v20h-281.996094c-5.515625 0-10-4.488281-10-10zm382 10h-70.003906v-20h70.003906c5.515625 0 10 4.484375 10 10 0 5.511719-4.484375 10-10 10zm0 0"/><path d="m104.386719 375.503906c-5.523438 0-10 4.476563-10 10 0 5.519532 4.476562 10 10 10h29.035156c5.523437 0 10-4.480468 10-10 0-5.523437-4.476563-10-10-10zm0 0"/><path d="m223.421875 375.503906c-5.523437 0-10 4.476563-10 10 0 5.519532 4.476563 10 10 10h29.042969c5.523437 0 10-4.480468 10-10 0-5.523437-4.476563-10-10-10zm0 0"/><path d="m296.851562 335.503906c0-5.523437-4.476562-10-10-10h-216.851562c-5.523438 0-10 4.476563-10 10 0 5.523438 4.476562 10 10 10h216.851562c5.523438 0 10-4.476562 10-10zm0 0"/><path d="m286.851562 275.503906h-216.851562c-5.523438 0-10 4.476563-10 10 0 5.523438 4.476562 10 10 10h216.851562c5.523438 0 10-4.476562 10-10 0-5.523437-4.476562-10-10-10zm0 0"/><path d="m252.464844 245.503906c5.523437 0 10-4.476562 10-10 0-5.523437-4.476563-10-10-10h-148.078125c-5.523438 0-10 4.476563-10 10 0 5.523438 4.476562 10 10 10zm0 0"/><path d="m412 210.503906c-22.058594 0-40 17.941406-40 40 0 7.40625 2.03125 14.34375 5.554688 20.300782l-8.875 8.875c-3.902344 3.902343-3.902344 10.234374 0 14.140624 1.953124 1.953126 4.511718 2.929688 7.074218 2.929688 2.558594 0 5.117188-.976562 7.070313-2.929688l8.871093-8.871093c5.957032 3.523437 12.894532 5.554687 20.300782 5.554687 22.058594 0 40-17.945312 40-40 0-22.058594-17.941406-40-39.996094-40zm0 60c-5.117188 0-9.773438-1.949218-13.3125-5.117187-.230469-.289063-.472656-.566407-.742188-.832031-.265624-.265626-.542968-.507813-.828124-.738282-3.171876-3.539062-5.117188-8.199218-5.117188-13.3125 0-11.027344 8.972656-20 20-20s20 8.972656 20 20-8.972656 20-20 20zm0 0"/><path d="m368.683594 413.820312c1.953125 1.953126 4.511718 2.929688 7.070312 2.929688s5.117188-.976562 7.070313-2.929688l8.871093-8.875c5.957032 3.527344 12.894532 5.558594 20.304688 5.558594 22.054688 0 40-17.945312 40-40 0-22.058594-17.945312-40-40-40-22.058594 0-40 17.941406-40 40 0 7.40625 2.03125 14.34375 5.554688 20.300782l-8.875 8.875c-3.902344 3.902343-3.902344 10.234374.003906 14.140624zm43.316406-63.316406c11.027344 0 20 8.96875 20 20 0 11.027344-8.972656 20-20 20-5.117188 0-9.773438-1.949218-13.3125-5.117187-.230469-.289063-.476562-.566407-.742188-.832031-.265624-.265626-.542968-.511719-.828124-.738282-3.171876-3.542968-5.117188-8.199218-5.117188-13.3125 0-11.03125 8.972656-20 20-20zm0 0"/><path d="m417.003906 100.503906c5.523438 0 10-4.480468 10-10 0-5.523437-4.476562-10-10-10h-.007812c-5.523438 0-9.996094 4.476563-9.996094 10 0 5.519532 4.480469 10 10.003906 10zm0 0"/><path d="m178.417969 375.503906c-5.523438 0-9.996094 4.476563-9.996094 10 0 5.519532 4.480469 10 10.003906 10 5.523438 0 10-4.480468 10-10 0-5.523437-4.476562-10-10-10zm0 0"/></svg>