<svg height="512pt" viewBox="-45 0 511 512" width="512pt" xmlns="http://www.w3.org/2000/svg"><path d="m280.527344 0c-24.714844 0-48.800782 6.003906-70.027344 17.410156-21.226562-11.40625-45.3125-17.410156-70.027344-17.410156-22.324218 0-44.542968 5.007812-64.257812 14.480469-4.976563 2.390625-7.070313 8.367187-4.679688 13.34375 2.394532 4.980469 8.367188 7.074219 13.34375 4.683593 17.027344-8.183593 36.25-12.507812 55.59375-12.507812 23.132813 0 45.585938 6.050781 64.9375 17.496094 3.140625 1.859375 7.042969 1.859375 10.183594 0 19.347656-11.445313 41.800781-17.496094 64.933594-17.496094 66.152344 0 119.972656 49.347656 119.972656 110 0 25.496094-9.742188 50.351562-27.429688 69.988281-1.65625 1.835938-2.570312 4.222657-2.570312 6.691407v275.320312c0 5.515625-4.488281 10-10 10h-300c-5.515625 0-10-4.484375-10-10v-275.320312c0-2.472657-.914062-4.855469-2.570312-6.691407-17.6875-19.636719-27.429688-44.492187-27.429688-69.988281 0-12.949219 2.433594-25.628906 7.226562-37.679688 2.042969-5.128906-.464843-10.945312-5.59375-12.988281-5.128906-2.039062-10.945312.464844-12.988281 5.59375-5.734375 14.414063-8.644531 29.578125-8.644531 45.074219 0 29.183594 10.625 57.59375 30 80.433594v271.566406c0 16.542969 13.457031 30 30 30h300c16.539062 0 30-13.457031 30-30v-271.566406c19.375-22.839844 30-51.25 30-80.433594 0-71.683594-62.792969-130-139.972656-130zm0 0"/><path d="m333.070312 184.628906c-1.65625 1.835938-2.570312 4.21875-2.570312 6.691406v260.679688h-10c-5.523438 0-10 4.476562-10 10s4.476562 10 10 10h20c5.519531 0 10-4.476562 10-10v-266.839844l7.707031-8.558594c14.585938-16.1875 22.292969-35.761718 22.292969-56.601562 0-55.589844-51.894531-90-99.972656-90-19.550782 0-38.484375 5.085938-54.753906 14.710938l-15.273438 9.039062-15.277344-9.039062c-16.265625-9.625-35.199218-14.710938-54.75-14.710938-48.078125 0-99.972656 34.410156-99.972656 90 0 20.839844 7.707031 40.414062 22.289062 56.601562l7.710938 8.558594v266.839844c0 5.523438 4.476562 10 10 10h150c5.519531 0 10-4.476562 10-10s-4.480469-10-10-10h-140v-260.679688c0-2.472656-.917969-4.855468-2.570312-6.691406l-10.277344-11.414062c-11.222656-12.453125-17.152344-27.398438-17.152344-43.214844 0-43.238281 41.511719-70 79.972656-70 15.972656 0 31.382813 4.121094 44.566406 11.921875l20.367188 12.050781c3.140625 1.859375 7.042969 1.859375 10.183594 0l20.371094-12.050781c13.183593-7.796875 28.59375-11.921875 44.566406-11.921875 38.460937 0 79.972656 26.761719 79.972656 70 0 15.816406-5.929688 30.761719-17.148438 43.214844zm0 0"/><path d="m261.441406 325.539062c-16.816406 0-30.5 13.683594-30.5 30.5 0 16.820313 13.683594 30.5 30.5 30.5 16.820313 0 30.5-13.679687 30.5-30.5 0-16.816406-13.679687-30.5-30.5-30.5zm0 41c-5.789062 0-10.5-4.707031-10.5-10.5 0-5.789062 4.710938-10.5 10.5-10.5 5.789063 0 10.5 4.710938 10.5 10.5 0 5.792969-4.710937 10.5-10.5 10.5zm0 0"/><path d="m170.441406 151.542969c-16.816406 0-30.5 13.679687-30.5 30.5 0 16.816406 13.683594 30.5 30.5 30.5s30.5-13.683594 30.5-30.5c0-16.820313-13.683594-30.5-30.5-30.5zm0 41c-5.789062 0-10.5-4.710938-10.5-10.5 0-5.792969 4.710938-10.5 10.5-10.5 5.789063 0 10.5 4.707031 10.5 10.5 0 5.789062-4.710937 10.5-10.5 10.5zm0 0"/><path d="m296.5 152c0-5.523438-4.480469-10-10-10-5.523438 0-10 4.476562-10 10v.007812c0 5.523438 4.476562 9.996094 10 9.996094 5.519531 0 10-4.480468 10-10.003906zm0 0"/><path d="m276.5 242c0-5.523438-4.476562-10-10-10s-10 4.476562-10 10v.007812c0 5.519532 4.476562 9.996094 10 9.996094s10-4.480468 10-10.003906zm0 0"/><path d="m179.5 299v.003906c0 5.523438 4.476562 10 10 10 5.519531 0 10-4.480468 10-10.003906s-4.480469-10-10-10c-5.523438 0-10 4.476562-10 10zm0 0"/><path d="m161.5 381c-5.523438 0-10 4.476562-10 10v.003906c0 5.523438 4.476562 10 10 10 5.519531 0 10-4.484375 10-10.003906 0-5.523438-4.476562-10-10-10zm0 0"/><path d="m133.5 258.003906c5.519531 0 10-4.480468 10-10.003906s-4.480469-10-10-10c-5.523438 0-10 4.476562-10 10v.007812c0 5.523438 4.476562 9.996094 10 9.996094zm0 0"/><path d="m134.5 114c0-5.523438-4.476562-10-10-10s-10 4.476562-10 10v.007812c0 5.523438 4.476562 9.996094 10 9.996094s10-4.480468 10-10.003906zm0 0"/><path d="m275.5 452h-.007812c-5.519532 0-9.996094 4.476562-9.996094 10s4.484375 10 10.003906 10c5.523438 0 10-4.476562 10-10s-4.476562-10-10-10zm0 0"/><path d="m43.363281 60.242188c2.414063 0 4.835938-.867188 6.753907-2.628907l.003906-.003906c4.074218-3.730469 4.34375-10.054687.613281-14.125s-10.058594-4.34375-14.132813-.613281c-4.070312 3.734375-4.34375 10.058594-.613281 14.128906 1.972657 2.152344 4.667969 3.242188 7.375 3.242188zm0 0"/></svg>