<svg height="512pt" viewBox="0 -26 512.001 512" width="512pt" xmlns="http://www.w3.org/2000/svg"><path d="m512 100.117188c0-7.34375-3.570312-14.382813-9.800781-19.308594-32.523438-25.730469-70.617188-45.859375-113.226563-59.820313-42.492187-13.925781-87.230468-20.988281-132.972656-20.988281-52.207031 0-104.761719 9.597656-151.988281 27.75-5.15625 1.980469-7.730469 7.765625-5.746094 12.921875 1.980469 5.15625 7.765625 7.730469 12.921875 5.746094 44.960938-17.28125 95.035156-26.417969 144.8125-26.417969 27.1875 0 54.1875 2.714844 80.339844 7.925781-4.917969 5.867188-7.597656 12.664063-7.597656 19.871094 0 22.007813 25.15625 39.25 57.265624 39.25 23.773438 0 43.898438-9.496094 52.621094-23.507813 18.351563 9.566407 35.527344 20.585938 51.164063 32.953126 1.421875 1.125 2.207031 2.414062 2.207031 3.625 0 1.15625-.71875 2.386718-2.027344 3.476562l-225.226562 158.210938c-.15625.109374-.308594.222656-.457032.339843-4.335937 3.433594-12.242187 3.433594-16.578124 0-.148438-.117187-.300782-.230469-.457032-.339843l-225.226562-158.210938c-1.042969-.867188-1.703125-1.824219-1.929688-2.761719v-1.429687c.242188-.992188.964844-2.003906 2.109375-2.910156 3.828125-3.027344 7.804688-6.019532 11.816407-8.890626 4.492187-3.214843 5.527343-9.460937 2.3125-13.953124-3.214844-4.492188-9.460938-5.527344-13.953126-2.3125-4.273437 3.058593-8.507812 6.246093-12.582031 9.46875-5.171875 4.09375-8.503906 9.640624-9.488281 15.609374-.089844.417969-.140625.847657-.175781 1.285157-.0859378.800781-.136719 1.605469-.136719 2.417969 0 .65625.0390625 1.308593.09375 1.960937l-.09375 153.484375c0 .160156.00390625.320312.0117188.484375.2070312 7.09375 3.7617192 13.875 9.7890622 18.640625l225.5 178.40625c5.804688 4.59375 13.25 6.886719 20.699219 6.886719s14.894531-2.292969 20.699219-6.886719l15.480469-12.25c4.332031-3.425781 5.0625-9.714844 1.636718-14.046875-3.425781-4.328125-9.714844-5.0625-14.046875-1.636719l-15.480469 12.25c-4.335937 3.429688-12.242187 3.429688-16.578124 0l-153.535157-121.46875c5.542969-9.789062 8.695313-22.496094 8.695313-35.839844 0-30.8125-16.222656-54.949218-36.9375-54.949218-17.277344 0-31.417969 16.796875-35.640625 40.246094l-8.085938-6.394532c-1.402343-1.113281-2.1875-2.386718-2.203125-3.582031 0-.03125-.003906-.0625-.003906-.089844l.078125-128.664062 215.472656 151.359375c5.765625 4.460937 13.109375 6.691406 20.449219 6.691406 7.34375 0 14.683594-2.230469 20.453125-6.691406l215.546875-151.414063v128.710938.097656c-.019531 1.199219-.800781 2.472656-2.207031 3.582031l-139.441407 110.316406c-4.328124 3.425782-5.0625 9.714844-1.636718 14.046876 1.972656 2.492187 4.894531 3.792968 7.847656 3.792968 2.171875 0 4.363281-.703125 6.199219-2.15625l139.4375-110.316406c6.023437-4.761719 9.578125-11.539062 9.789062-18.632812.007813-.160157.011719-.324219.011719-.488282zm-125.992188-33.070313c-21.328124 0-37.261718-10.160156-37.261718-19.25 0-4.988281 4.839844-10.3125 12.558594-14.054687 20.5 5.457031 40.308593 12.476562 59.09375 20.953124-5.476563 6.613282-18.332032 12.351563-34.390626 12.351563zm-337.011718 213.054687c0-20.003906 8.941406-34.949218 16.9375-34.949218s16.9375 14.945312 16.9375 34.949218c0 8.597657-1.703125 16.808594-4.652344 23.210938l-29.21875-23.113281c-.003906-.035157-.003906-.066407-.003906-.097657zm0 0"/><path d="m259.246094 212.296875c26.074218 0 46.5-14 46.5-31.875 0-17.871094-20.425782-31.875-46.5-31.875-26.078125 0-46.5 14.003906-46.5 31.875 0 17.875 20.421875 31.875 46.5 31.875zm0-43.75c15.929687 0 26.5 7.148437 26.5 11.875s-10.570313 11.875-26.5 11.875c-15.929688 0-26.5-7.144531-26.5-11.875 0-4.726563 10.570312-11.875 26.5-11.875zm0 0"/><path d="m377.023438 302.707031c10.066406 0 21.554687-3.714843 32.1875-11.125 9.3125-6.492187 16.621093-14.921875 20.582031-23.742187 4.660156-10.371094 4.296875-20.671875-.992188-28.261719-5.289062-7.589844-14.832031-11.492187-26.171875-10.710937-9.644531.667968-20.085937 4.605468-29.394531 11.097656-21.074219 14.6875-29.679687 37.527344-19.589844 52 4.996094 7.167968 13.5 10.742187 23.378907 10.742187zm7.644531-46.335937c6.292969-4.382813 13.339843-7.136719 19.335937-7.550782.511719-.035156 1.011719-.050781 1.492188-.050781 3.328125 0 5.902344.820313 6.898437 2.246094 1.136719 1.632813.8125 4.9375-.847656 8.628906-2.460937 5.484375-7.480469 11.144531-13.773437 15.53125-12.726563 8.871094-25.113282 9.097657-27.722657 5.355469-2.609375-3.746094 1.890625-15.289062 14.617188-24.160156zm0 0"/><path d="m157.75 292.546875v.003906c0 5.523438 4.476562 10 10 10s10-4.484375 10-10.003906c0-5.523437-4.476562-10-10-10s-10 4.476563-10 10zm0 0"/><path d="m221.75 354.542969v.007812c0 5.523438 4.476562 9.996094 10 9.996094s10-4.480469 10-10.003906c0-5.519531-4.476562-10-10-10s-10 4.480469-10 10zm0 0"/><path d="m323.75 310.542969c-5.523438 0-10 4.480469-10 10v.007812c0 5.523438 4.476562 10 10 10s10-4.484375 10-10.007812c0-5.519531-4.480469-10-10-10zm0 0"/><path d="m475.75 200.546875c0-5.523437-4.476562-10-10-10s-10 4.476563-10 10v.003906c0 5.523438 4.476562 10 10 10s10-4.484375 10-10.003906zm0 0"/><path d="m365.75 126.546875c0-5.523437-4.476562-10-10-10s-10 4.476563-10 10v.003906c0 5.523438 4.476562 10 10 10s10-4.484375 10-10.003906zm0 0"/><path d="m289.75 54.546875c0-5.523437-4.476562-10-10-10s-10 4.476563-10 10v.003906c0 5.523438 4.476562 10 10 10s10-4.480469 10-10.003906zm0 0"/><path d="m235.75 112.546875c0-5.523437-4.476562-10-10-10s-10 4.476563-10 10v.003906c0 5.523438 4.476562 10 10 10s10-4.484375 10-10.003906zm0 0"/><path d="m171.75 78.546875c0-5.523437-4.476562-10-10-10s-10 4.476563-10 10v.003906c0 5.523438 4.476562 10 10 10s10-4.484375 10-10.003906zm0 0"/><path d="m145.75 130.546875c0-5.523437-4.476562-10-10-10s-10 4.476563-10 10v.003906c0 5.523438 4.476562 10 10 10s10-4.484375 10-10.003906zm0 0"/><path d="m66.558594 65.761719c1.597656 0 3.222656-.382813 4.730468-1.195313l.003907-.003906c4.863281-2.617188 6.679687-8.679688 4.0625-13.542969-2.617188-4.863281-8.683594-6.679687-13.546875-4.0625-4.863282 2.617188-6.683594 8.683594-4.066406 13.542969 1.808593 3.355469 5.253906 5.261719 8.816406 5.261719zm0 0"/><path d="m314.863281 397.402344c-4.246093 3.535156-4.816406 9.839844-1.28125 14.082031 1.976563 2.375 4.820313 3.597656 7.6875 3.597656 2.257813 0 4.527344-.757812 6.394531-2.316406l.007813-.003906c4.242187-3.535157 4.8125-9.839844 1.277344-14.082031-3.535157-4.242188-9.84375-4.8125-14.085938-1.277344zm0 0"/></svg>