<svg height="512pt" viewBox="-26 0 512 512.00066" width="512pt" xmlns="http://www.w3.org/2000/svg"><path d="m220.578125 46.023438c-1.96875 5.160156.621094 10.9375 5.78125 12.90625 1.171875.445312 2.375.660156 3.5625.660156 4.027344 0 7.820313-2.453125 9.34375-6.441406 4.53125-11.878907 2.101563-20.390626.332031-26.605469-1.410156-4.9375-2.261718-7.917969-.332031-12.976563 1.96875-5.160156-.621094-10.9375-5.78125-12.90625s-10.9375.617188-12.90625 5.777344c-4.300781 11.277344-1.9375 19.550781-.214844 25.59375 1.484375 5.191406 2.375 8.324219.214844 13.992188zm0 0"/><path d="m162.445312 66.4375c-1.96875 5.160156.617188 10.941406 5.777344 12.910156 1.175782.445313 2.378906.660156 3.566406.660156 4.027344 0 7.820313-2.453124 9.34375-6.441406 4.53125-11.882812 2.101563-20.390625.332032-26.605468-1.410156-4.9375-2.261719-7.917969-.332032-12.976563 1.96875-5.160156-.621093-10.9375-5.78125-12.90625-5.160156-1.96875-10.9375.621094-12.90625 5.777344-4.300781 11.273437-1.9375 19.550781-.214843 25.59375 1.480469 5.191406 2.375 8.324219.214843 13.988281zm0 0"/><path d="m278.714844 66.4375c-1.96875 5.160156.617187 10.941406 5.777344 12.910156 1.171874.445313 2.378906.660156 3.5625.660156 4.027343 0 7.824218-2.453124 9.347656-6.441406 4.53125-11.882812 2.101562-20.390625.328125-26.605468-1.410157-4.9375-2.257813-7.917969-.328125-12.976563 1.96875-5.160156-.621094-10.9375-5.78125-12.90625s-10.9375.617187-12.90625 5.777344c-4.300782 11.277343-1.941406 19.550781-.214844 25.59375 1.480469 5.191406 2.375 8.324219.214844 13.988281zm0 0"/><path d="m430 159.394531h-10.289062c.175781-3.328125.289062-6.660156.289062-10 0-5.523437-4.476562-10-10-10h-111.71875c1.109375-3.132812 1.71875-6.496093 1.71875-10 0-16.542969-13.457031-30-30-30h-80c-16.542969 0-30 13.457031-30 30 0 3.503907.609375 6.867188 1.71875 10h-111.71875c-5.523438 0-10 4.476563-10 10 0 3.339844.113281 6.671875.285156 10h-10.285156c-16.542969 0-30 13.457031-30 29.996094 0 16.542969 13.457031 30 30 30h23.355469c3.183593 8.050781 6.90625 15.890625 11.179687 23.445313 14.335938 25.328124 34.476563 47.171874 58.507813 63.578124l-8.816407 32.902344c-1.429687 5.335938 1.734376 10.820313 7.070313 12.25 5.335937 1.425782 10.816406-1.738281 12.246094-7.070312l10.683593-39.871094c.007813-.027344.015626-.058594.023438-.085938l2.164062-8.074218c.6875-2.574219 2.335938-4.726563 4.644532-6.058594 2.304687-1.332031 4.992187-1.6875 7.566406-1 5.3125 1.417969 8.480469 6.894531 7.0625 12.203125l-49.03125 182.988281c-1.421875 5.3125-6.902344 8.480469-12.210938 7.0625-2.574218-.6875-4.726562-2.335937-6.0625-4.644531-1.332031-2.304687-1.6875-4.992187-1.003906-7.558594l12.871094-48.03125c1.429688-5.332031-1.734375-10.816406-7.070312-12.246093-5.335938-1.429688-10.820313 1.738281-12.246094 7.070312l-12.871094 48.035156c-2.066406 7.734375-1 15.8125 3.007812 22.742188 4.007813 6.933594 10.476563 11.886718 18.210938 13.953125 2.582031.691406 5.175781 1.019531 7.730469 1.019531 13.238281 0 25.386719-8.851562 28.960937-22.230469l13.179688-49.175781 80.847656-53.824219 80.847656 53.824219 13.179688 49.175781c3.578125 13.382813 15.722656 22.230469 28.960937 22.230469 2.554688 0 5.148438-.328125 7.730469-1.019531 7.734375-2.066407 14.203125-7.019531 18.210938-13.953125 4.007812-6.929688 5.078124-15.007813 3.007812-22.75l-44.980469-167.863282c24.03125-16.40625 44.171875-38.25 58.507813-63.578124 4.273437-7.550782 7.996094-15.394532 11.179687-23.441407h23.355469c16.542969 0 30-13.460937 30-30 0-16.542969-13.460938-30-30-30zm-250-30c0-5.515625 4.484375-10 10-10h80c5.511719 0 10 4.484375 10 10 0 5.511719-4.488281 10-10 10h-80c-5.515625 0-10-4.488281-10-10zm-150 69.996094c-5.515625 0-10-4.484375-10-10 0-5.511719 4.484375-9.996094 10-9.996094h12.386719c1.078125 6.742188 2.527343 13.417969 4.316406 19.996094zm248.371094 120 2.535156 9.464844-50.90625 33.890625-50.910156-33.890625 2.539062-9.464844zm-121.382813 91.960937 16.640625-62.105468 38.324219 25.511718zm91.054688-36.59375 38.328125-25.515624 16.640625 62.105468zm113.570312 112.257813c-1.332031 2.308594-3.484375 3.957031-6.058593 4.644531-5.316407 1.417969-10.792969-1.75-12.210938-7.0625 0 0 0-.003906 0-.007812l-41.320312-154.203125c0-.003907 0-.003907 0-.003907l-7.710938-28.769531c-1.417969-5.3125 1.75-10.789062 7.0625-12.207031.855469-.230469 1.726562-.34375 2.589844-.34375 1.730468 0 3.4375.453125 4.976562 1.34375 2.308594 1.335938 3.957032 3.488281 4.644532 6.066406l2.164062 8.066406c.007812.027344.015625.058594.023438.085938l46.84375 174.824219c.6875 2.574219.332031 5.261719-1.003907 7.566406zm-30.617187-200.882813c-6.089844-12.773437-20.625-19.832031-34.785156-16.050781-13.5 3.609375-22.386719 15.933594-22.234376 29.308594h-87.957031c.15625-13.375-8.730469-25.699219-22.234375-29.308594-7.734375-2.066406-15.8125-.996093-22.742187 3.011719-5.320313 3.074219-9.46875 7.601562-12.046875 13.035156-27.554688-20.324218-47.914063-47.960937-59.113282-79.378906-.136718-.492188-.304687-.96875-.507812-1.425781-5.066406-14.628907-8.171875-30.054688-9.085938-45.933594h339.421876c-.917969 15.878906-4.019532 31.304687-9.085938 45.929687-.207031.460938-.371094.9375-.507812 1.429688-11.203126 31.421875-31.5625 59.0625-59.121094 79.382812zm99.003906-86.742187h-16.703125c1.789063-6.578125 3.238281-13.253906 4.3125-19.996094h12.386719c5.515625 0 10 4.484375 10 9.996094 0 5.515625-4.484375 10-9.996094 10zm0 0"/><path d="m363.996094 179.394531h-54.996094c-5.519531 0-10 4.476563-10 10 0 5.523438 4.480469 10 10 10h54.996094c5.523437 0 10-4.476562 10-10 0-5.523437-4.476563-10-10-10zm0 0"/><path d="m264.003906 179.394531h-.007812c-5.519532 0-9.996094 4.476563-9.996094 10 0 5.523438 4.480469 10 10.003906 10 5.523438 0 10-4.476562 10-10 0-5.523437-4.476562-10-10-10zm0 0"/><path d="m109.660156 395.039062c.863282.226563 1.730469.339844 2.582032.339844 4.421874 0 8.464843-2.953125 9.65625-7.425781l.003906-.007813c1.421875-5.335937-1.75-10.8125-7.085938-12.234374-5.339844-1.425782-10.816406 1.75-12.242187 7.085937-1.421875 5.339844 1.75 10.820313 7.085937 12.242187zm0 0"/></svg>