<svg height="512pt" viewBox="0 0 512.00052 512" width="512pt" xmlns="http://www.w3.org/2000/svg"><path d="m496.84375 150.75c-4.496094-4.496094-10.496094-6.742188-16.796875-6.832031-.597656-7.042969-3.609375-13.574219-8.644531-18.609375-4.257813-4.257813-9.582032-7.070313-15.386719-8.203125 1.117187-4.1875 1.703125-8.546875 1.703125-13.003907 0-13.382812-5.183594-25.9375-14.59375-35.347656s-21.960938-14.59375-35.347656-14.59375c-4.453125 0-8.816406.589844-13.003906 1.703125-1.105469-5.640625-3.839844-11.023437-8.199219-15.386719-5.1875-5.1875-11.820313-8.066406-18.609375-8.652343-.09375-6.300781-2.339844-12.292969-6.832032-16.785157-12.457031-12.457031-37.085937-23.5625-83.660156-5.730468-5.15625 1.976562-7.738281 7.757812-5.765625 12.914062 1.976563 5.160156 7.761719 7.738282 12.914063 5.761719 20.183594-7.726563 47.386718-13.789063 62.371094 1.195313 1.957031 1.957031 1.144531 7.320312-2.839844 11.296874l-303.589844 303.59375c-.003906 0-.003906.003907-.003906.003907-2.132813 2.128906-4.804688 3.511719-7.339844 3.796875-1.003906.113281-2.855469.136718-3.957031-.960938-7.113281-7.117187-10.082031-17.113281-9.078125-30.570312 4.972656-66.492188 101.695312-180.136719 188.917968-244.5625 4.441407-3.28125 5.382813-9.542969 2.101563-13.984375-3.28125-4.441407-9.542969-5.382813-13.984375-2.101563-90.40625 66.777344-191.421875 184.847656-196.976562 259.15625-1.445313 19.339844 3.5625 34.882813 14.878906 46.203125 4.34375 4.339844 10.324218 6.75 16.789062 6.855469.589844 6.785156 3.472656 13.402344 8.652344 18.582031 4.363281 4.363281 9.742188 7.09375 15.386719 8.203125-1.117188 4.1875-1.703125 8.546875-1.703125 13.003906 0 13.382813 5.183594 25.9375 14.59375 35.347657 9.410156 9.410156 21.964844 14.59375 35.347656 14.59375 4.457031 0 8.816406-.589844 13.003906-1.703125 1.105469 5.640625 3.839844 11.023437 8.203125 15.386718 5.027344 5.027344 11.550781 8.039063 18.585938 8.640626.101562 6.46875 2.507812 12.453124 6.855469 16.796874 10.09375 10.097657 23.386718 15.160157 39.703124 15.160157 8.34375 0 17.476563-1.324219 27.371094-3.976563 100.503906-26.929687 263.1875-189.609375 290.117188-290.113281 7.835937-29.253906 4.074218-51.820313-11.183594-67.078125zm-442.140625 221.597656c-3.898437-3.898437-3.898437-10.238281 0-14.136718l303.59375-303.589844c1.945313-1.949219 4.507813-2.925782 7.066406-2.925782 2.558594 0 5.117188.976563 7.066407 2.925782 3.898437 3.894531 3.898437 10.238281 0 14.132812l-38.6875 38.691406c-10.964844 10.964844-13.714844 20.8125-15.921876 28.726563-1.976562 7.101563-3.542968 12.707031-10.796874 19.957031-7.25 7.253906-12.859376 8.820313-19.957032 10.800782-7.917968 2.207031-17.765625 4.953124-28.730468 15.917968-10.964844 10.964844-13.710938 20.8125-15.917969 28.726563-1.980469 7.101562-3.542969 12.707031-10.796875 19.960937s-12.859375 8.816406-19.960938 10.796875c-7.914062 2.207031-17.765625 4.953125-28.730468 15.917969-10.964844 10.964844-13.710938 20.816406-15.917969 28.730469-1.980469 7.097656-3.542969 12.707031-10.796875 19.957031-7.253906 7.253906-12.859375 8.820312-19.960938 10.796875-7.914062 2.210937-17.761718 4.957031-28.726562 15.921875l-38.6875 38.6875c-3.898438 3.902344-10.238282 3.902344-14.136719.003906zm84.828125 70.699219c0-.003906 0-.003906 0-.003906.003906-.003907.003906-.003907.007812-.003907l10.378907-10.382812c3.90625-3.90625 3.90625-10.238281 0-14.140625-3.90625-3.90625-10.234375-3.90625-14.140625 0l-10.386719 10.386719c-5.632813 5.632812-13.164063 8.734375-21.207031 8.734375-8.039063 0-15.570313-3.105469-21.203125-8.734375-5.632813-5.632813-8.738281-13.164063-8.738281-21.207032 0-8.042968 3.105468-15.574218 8.738281-21.207031 0-.003906.003906-.003906.003906-.003906l38.683594-38.6875c7.253906-7.253906 12.859375-8.816406 19.960937-10.796875 7.914063-2.207031 17.761719-4.953125 28.726563-15.917969 10.964843-10.964843 13.714843-20.8125 15.921875-28.730469 1.976562-7.097656 3.542968-12.707031 10.796875-19.957031 7.253906-7.253906 12.859375-8.816406 19.957031-10.796875 7.917969-2.207031 17.765625-4.957031 28.730469-15.917968 10.964843-10.96875 13.710937-20.816407 15.917969-28.730469 1.980468-7.097657 3.546874-12.707031 10.800781-19.960938 7.25-7.253906 12.859375-8.816406 19.957031-10.796875 7.914062-2.207031 17.765625-4.953125 28.730469-15.917968 10.964843-10.964844 13.710937-20.816407 15.917969-28.730469 1.976562-7.097657 3.542968-12.707031 10.796874-19.957031l38.683594-38.683594c.003906-.003906.003906-.003906.003906-.007813 5.636719-5.632812 13.164063-8.734375 21.207032-8.734375 8.042968 0 15.574218 3.101563 21.207031 8.734375 5.632813 5.632813 8.734375 13.164063 8.734375 21.207031 0 8.042969-3.101562 15.574219-8.734375 21.207032l-229.574219 229.570312c-3.902344 3.90625-3.902344 10.238282 0 14.144532 3.90625 3.902343 10.238282 3.902343 14.144532 0l229.570312-229.574219c1.871094-1.871094 4.382812-2.902344 7.066406-2.902344 2.6875 0 5.195313 1.03125 7.070313 2.902344 1.871093 1.871093 2.902343 4.382812 2.902343 7.070312 0 2.683594-1.03125 5.195313-2.902343 7.066407l-38.691407 38.6875c-10.964843 10.964843-13.710937 20.816406-15.917968 28.726562-1.980469 7.101562-3.542969 12.707031-10.796875 19.960938-7.253907 7.253906-12.859375 8.816406-19.960938 10.796874-7.914062 2.207032-17.761719 4.957032-28.726562 15.917969-10.964844 10.964844-13.710938 20.816407-15.921875 28.730469-1.976563 7.097656-3.542969 12.707031-10.796875 19.960938-7.253907 7.25-12.859375 8.816406-19.957031 10.796874-7.914063 2.207032-17.765626 4.953126-28.730469 15.917969-10.964844 10.964844-13.710938 20.8125-15.917969 28.726563-1.980469 7.101562-3.546875 12.707031-10.796875 19.960937-7.253906 7.253907-12.863281 8.816407-19.960937 10.796875-7.914063 2.207032-17.765626 4.953125-28.726563 15.917969l-38.691406 38.691406c-1.871094 1.871094-4.378907 2.902344-7.066407 2.902344s-5.195312-1.03125-7.066406-2.902344c-3.898437-3.894531-3.898437-10.230469-.003906-14.128906zm349.175781-230.394531c-25.074219 93.570312-182.402343 250.898437-275.972656 275.972656-21.851563 5.851562-37.921875 3.832031-47.761719-6.007812-1.097656-1.097657-1.074218-2.949219-.960937-3.957032.28125-2.53125 1.664062-5.207031 3.792969-7.335937.003906-.003907.003906-.003907.003906-.003907l38.691406-38.691406c7.25-7.25 12.859375-8.816406 19.957031-10.796875 7.914063-2.207031 17.765625-4.953125 28.730469-15.917969 10.964844-10.964843 13.710938-20.8125 15.917969-28.726562 1.980469-7.101562 3.546875-12.707031 10.796875-19.960938 7.253906-7.253906 12.863281-8.816406 19.960937-10.796874 7.914063-2.207032 17.761719-4.957032 28.726563-15.917969 10.964844-10.964844 13.714844-20.816407 15.921875-28.730469 1.976562-7.097656 3.542969-12.707031 10.796875-19.960938 7.253906-7.25 12.859375-8.816406 19.960937-10.796874 7.914063-2.207032 17.761719-4.953126 28.726563-15.917969 10.964844-10.964844 13.710937-20.8125 15.917968-28.726563 1.980469-7.101562 3.542969-12.707031 10.800782-19.960937l38.6875-38.6875c0-.003907.003906-.007813.007812-.007813 3.980469-3.972656 9.335938-4.785156 11.289063-2.832031 9.84375 9.839844 11.863281 25.910156 6.007812 47.761719zm0 0"/><path d="m240.652344 48.652344c1.710937 0 3.445312-.441406 5.03125-1.363282l.003906-.003906c4.769531-2.785156 6.378906-8.902344 3.597656-13.675781-2.785156-4.769531-8.910156-6.378906-13.679687-3.59375-4.773438 2.78125-6.382813 8.902344-3.601563 13.671875 1.859375 3.1875 5.207032 4.964844 8.648438 4.964844zm0 0"/><path d="m174.667969 403.769531c2.410156 0 4.832031-.867187 6.75-2.625l.007812-.007812c4.070313-3.730469 4.34375-10.054688.609375-14.125-3.730468-4.070313-10.058594-4.34375-14.128906-.609375-4.070312 3.730468-4.347656 10.054687-.613281 14.125 1.972656 2.152344 4.667969 3.242187 7.375 3.242187zm0 0"/></svg>