<svg height="512pt" viewBox="0 -66 512.001 512" width="512pt" xmlns="http://www.w3.org/2000/svg"><path d="m482 80h-11.554688c-1.273437-3.671875-3.308593-7.09375-6.039062-10.082031 4.71875-5.300781 7.59375-12.277344 7.59375-19.917969v-20c0-16.542969-13.457031-30-30-30h-262c-5.523438 0-10 4.476562-10 10s4.476562 10 10 10h262c5.515625 0 10 4.488281 10 10v20c0 5.515625-4.484375 10-10 10h-117.71875c-4.128906-11.636719-15.246094-20-28.28125-20h-80c-13.035156 0-24.152344 8.363281-28.28125 20h-117.71875c-5.515625 0-10-4.484375-10-10v-20c0-5.511719 4.484375-10 10-10h20c5.523438 0 10-4.476562 10-10s-4.476562-10-10-10h-20c-16.542969 0-30 13.457031-30 30v20c0 7.636719 2.875 14.617188 7.59375 19.917969-2.730469 2.988281-4.765625 6.410156-6.039062 10.082031h-11.554688c-16.542969 0-30 13.457031-30 30s13.457031 30 30 30h11.917969l8.089843 210.382812c.640626 16.609376 13.8125 29.617188 29.992188 29.617188h352c16.179688 0 29.351562-13.007812 29.992188-29.613281l8.09375-210.386719h11.914062c16.542969 0 30-13.457031 30-30s-13.457031-30-30-30zm-266-20h80c5.511719 0 10 4.488281 10 10 0 5.515625-4.488281 10-10 10h-80c-5.515625 0-10-4.484375-10-10 0-5.511719 4.488281-10 10-10zm-186 60c-5.515625 0-10-4.484375-10-10s4.484375-10 10-10h10.378906l.769532 20zm402 240h-352c-5.386719 0-9.78125-4.5625-10.007812-10.382812l-10-260c-.121094-3.15625 1.550781-5.378907 2.558593-6.429688 1.949219-2.023438 4.664063-3.1875 7.449219-3.1875h117.71875c4.128906 11.640625 15.246094 20 28.28125 20h80c13.035156 0 24.152344-8.359375 28.28125-20h117.71875c2.785156 0 5.5 1.164062 7.449219 3.1875 1.007812 1.046875 2.679687 3.273438 2.558593 6.429688l-10 260c-.226562 5.820312-4.621093 10.382812-10.007812 10.382812zm50-240h-11.148438l.769532-20h10.378906c5.515625 0 10 4.484375 10 10s-4.484375 10-10 10zm0 0"/><path d="m293.710938 209.773438 15.9375-9.199219 8.855468 5.113281c1.578125.910156 3.296875 1.339844 4.992188 1.339844 3.457031 0 6.816406-1.792969 8.671875-5 2.757812-4.785156 1.121093-10.898438-3.664063-13.660156l-8.855468-5.113282v-10.226562c0-5.523438-4.476563-10-10-10-5.523438 0-10 4.476562-10 10v10.226562l-15.9375 9.199219-17.710938-10.226563v-18.402343l8.855469-5.113281c4.785156-2.761719 6.421875-8.875 3.660156-13.660157-2.761719-4.785156-8.878906-6.421875-13.660156-3.660156l-8.855469 5.113281-8.855469-5.113281c-4.785156-2.757813-10.898437-1.121094-13.660156 3.660156-2.761719 4.785157-1.125 10.902344 3.660156 13.664063l8.855469 5.113281v18.398437l-17.714844 10.230469-15.933594-9.203125v-10.226562c0-5.523438-4.476562-10-10-10-5.523437 0-10 4.476562-10 10v10.226562l-8.855468 5.113282c-4.785156 2.761718-6.421875 8.875-3.660156 13.660156 1.851562 3.207031 5.210937 5 8.667968 5 1.695313 0 3.414063-.429688 4.992188-1.339844l8.855468-5.113281 15.933594 9.199219v20.453124l-15.933594 9.203126-8.855468-5.113282c-4.785156-2.761718-10.898438-1.125-13.660156 3.660156-2.761719 4.78125-1.125 10.898438 3.660156 13.660157l8.855468 5.113281v10.226562c0 5.523438 4.476563 10 10 10 5.523438 0 10-4.476562 10-10v-10.226562l15.933594-9.203125 17.714844 10.226563v18.402343l-8.855469 5.113281c-4.785156 2.761719-6.421875 8.878907-3.660156 13.660157 1.851563 3.210937 5.210937 5.003906 8.667969 5.003906 1.695312 0 3.417968-.433594 4.992187-1.34375l8.855469-5.113281 8.855469 5.113281c4.785156 2.761719 10.898437 1.125 13.660156-3.660156 2.761719-4.78125 1.121094-10.898438-3.660156-13.660157l-8.855469-5.113281v-18.402343l17.710938-10.226563 15.9375 9.199219v10.230468c0 5.519532 4.476562 10 10 10 5.523437 0 10-4.480468 10-10v-10.230468l8.855468-5.109375c4.785156-2.761719 6.421875-8.878907 3.664063-13.660157-2.765625-4.785156-8.878907-6.421874-13.664063-3.660156l-8.855468 5.113282-15.9375-9.203126zm-20 20.453124-17.710938 10.226563-17.714844-10.226563v-20.453124l17.714844-10.226563 17.710938 10.226563zm0 0"/><path d="m412 320h-54.996094c-5.523437 0-10 4.476562-10 10s4.476563 10 10 10h54.996094c5.523438 0 10-4.476562 10-10s-4.480469-10-10-10zm0 0"/><path d="m312.003906 320h-.003906c-5.523438 0-10 4.476562-10 10s4.480469 10 10.003906 10c5.523438 0 10-4.476562 10-10s-4.476562-10-10-10zm0 0"/><path d="m135.003906 20c5.523438 0 10-4.476562 10-10s-4.476562-10-10-10h-.007812c-5.523438 0-9.996094 4.476562-9.996094 10s4.480469 10 10.003906 10zm0 0"/></svg>