<svg height="512pt" viewBox="-26 0 512 512" width="512pt" xmlns="http://www.w3.org/2000/svg"><path d="m443.882812 108.511719c-2.023437-3.917969-4.117187-7.972657-6.003906-11.988281-1.753906-3.730469-3.480468-7.640626-5.152344-11.417969-8-18.097657-16.269531-36.808594-32.683593-49.976563-10.445313-8.378906-21.683594-11.878906-32.550781-15.261718-3.890626-1.210938-7.914063-2.464844-11.886719-3.9375-3.441407-1.273438-6.949219-2.707032-10.664063-4.222657-13.457031-5.488281-28.707031-11.707031-44.941406-11.707031-20.042969 0-36.058594 7.808594-51.546875 15.359375-3.511719 1.710937-7.140625 3.480469-10.71875 5.101563-3.882813 1.761718-7.980469 3.464843-11.945313 5.113281-15.625 6.5-31.785156 13.21875-43.976562 26.574219-8.308594 9.097656-12.859375 20.953124-17.257812 32.417968-1.777344 4.636719-3.457032 9.011719-5.296876 12.9375-1.082031 2.316406-2.171874 4.589844-3.246093 6.832032-8.234375 17.203124-16.011719 33.449218-16.011719 55.664062 0 11.691406 3.5625 22.820312 7.550781 33.027344-14.476562 2.351562-26.957031 8.410156-39.097656 14.332031-3.511719 1.710937-7.140625 3.480469-10.71875 5.105469-3.882813 1.757812-7.980469 3.464844-11.941406 5.109375-15.628907 6.5-31.789063 13.222656-43.980469 26.574219-3.722656 4.078124-3.4375 10.402343.640625 14.125 4.082031 3.726562 10.40625 3.4375 14.128906-.640626 9.199219-10.074218 22.648438-15.667968 36.886719-21.589843 4.109375-1.707031 8.355469-3.472657 12.527344-5.363281 3.828125-1.738282 7.585937-3.570313 11.21875-5.339844 14.070312-6.859375 27.359375-13.339844 42.785156-13.339844 12.3125 0 25.058594 5.199219 37.382812 10.226562 3.699219 1.507813 7.527344 3.070313 11.273438 4.457032 4.46875 1.660156 8.75 2.992187 12.886719 4.28125 9.925781 3.089844 18.492187 5.757812 25.984375 11.765625 12.609375 10.113281 19.554687 25.824219 26.90625 42.460937 1.71875 3.882813 3.492187 7.898438 5.34375 11.835938 2.046875 4.359375 4.230468 8.582031 6.335937 12.664062 7.140625 13.828125 13.882813 26.886719 13.882813 42.308594 0 18.222656-9.214844 35.769531-18.128906 52.738281-1.617188 3.078125-3.289063 6.257813-4.863282 9.367188-2.660156 5.261719-4.675781 10.296875-6.628906 15.167969-3.808594 9.511718-7.097656 17.722656-14.042969 24.3125-9.019531 8.558593-21.78125 12.296874-35.289062 16.253906-5.496094 1.605468-11.175781 3.269531-16.8125 5.316406-5.957031 2.160156-11.4375 4.957031-16.738281 7.664062-9.25 4.722657-17.984376 9.179688-27.492188 9.179688-15.792969 0-30.101562-6.8125-45.253906-14.023438-3.320313-1.582031-6.753906-3.214843-10.171875-4.753906-4.605469-2.074218-9.171875-3.859375-13.589844-5.582031-11.695313-4.570313-21.796875-8.515625-29.667969-16.335937-12.988281-12.90625-18.628906-29.070313-25.15625-47.785157-.574218-1.648437-1.15625-3.3125-1.746094-4.992187-1.539062-4.363282-3.363281-8.796875-5.125-13.082032-4.566406-11.09375-9.289062-22.5625-9.289062-33.445312 0-4.625.433594-9.074219 1.320312-13.601562 1.0625-5.417969-2.46875-10.671876-7.890624-11.738282-5.421876-1.0625-10.671876 2.472656-11.738282 7.890625-1.136718 5.8125-1.691406 11.519531-1.691406 17.449219 0 14.835938 5.734375 28.765625 10.792969 41.058594 1.746093 4.234375 3.390625 8.238281 4.757812 12.113281.582031 1.65625 1.15625 3.304687 1.726563 4.933594 7.035156 20.175781 13.683594 39.230469 29.941406 55.386719 10.820312 10.75 23.871094 15.847656 36.492188 20.777343 4.183593 1.632813 8.507812 3.324219 12.652343 5.1875 3.222657 1.453125 6.414063 2.972657 9.789063 4.578125 16.488281 7.847656 33.539062 15.964844 53.847656 15.964844 14.316406 0 26.148438-6.039062 36.585938-11.367188 4.976562-2.539062 9.675781-4.941406 14.464843-6.675781 5.039063-1.828125 10.414063-3.402343 15.613281-4.925781 15.195313-4.449219 30.90625-9.050781 43.433594-20.9375 10.121094-9.601562 14.558594-20.675781 18.847656-31.382812 1.789063-4.472657 3.640626-9.097657 5.90625-13.578126 1.503907-2.96875 3.066407-5.945312 4.722657-9.09375 9.574219-18.226562 20.425781-38.882812 20.425781-62.039062 0-12.5625-3.148438-23.429688-7.425781-33.53125 8.910156-2.132812 16.792969-6.152344 24.007812-9.835938 4.980469-2.542968 9.679688-4.941406 14.464844-6.675781 5.042969-1.832031 10.417969-3.402343 15.617187-4.925781 15.195313-4.453125 30.90625-9.054688 43.433594-20.9375 10.121094-9.601562 14.554688-20.675781 18.84375-31.382812 1.792969-4.472657 3.644532-9.097657 5.910156-13.578126 1.503907-2.972656 3.066407-5.945312 4.71875-9.09375 9.574219-18.226562 20.429688-38.886718 20.429688-62.039062 0-20.28125-8.195312-36.144531-16.117188-51.488281zm-22.015624 104.226562c-1.617188 3.074219-3.289063 6.257813-4.863282 9.363281-2.660156 5.261719-4.675781 10.300782-6.628906 15.171876-3.808594 9.507812-7.09375 17.71875-14.042969 24.308593-9.019531 8.558594-21.78125 12.296875-35.289062 16.253907-5.496094 1.609374-11.175781 3.273437-16.8125 5.316406-5.957031 2.160156-11.4375 4.957031-16.738281 7.664062-8.097657 4.132813-15.800782 8.066406-23.976563 8.980469-1.910156-3.695313-3.863281-7.5-5.636719-11.277344-1.753906-3.726562-3.480468-7.636719-5.152344-11.417969-7.996093-18.09375-16.269531-36.804687-32.683593-49.972656-10.445313-8.378906-21.683594-11.878906-32.554688-15.261718-3.886719-1.210938-7.910156-2.464844-11.882812-3.9375-3.441407-1.277344-6.953125-2.707032-10.667969-4.222657-10.953125-4.46875-23.097656-9.417969-35.996094-11.105469-4.453125-10.832031-8.941406-21.996093-8.941406-32.605468 0-17.667969 6.511719-31.273438 14.050781-47.023438 1.101563-2.296875 2.214844-4.621094 3.324219-6.992187 2.136719-4.570313 4.023438-9.492188 5.851562-14.25 3.734376-9.730469 7.59375-19.789063 13.355469-26.101563 9.199219-10.074218 22.648438-15.667968 36.886719-21.589844 4.109375-1.707031 8.355469-3.472656 12.523438-5.363281 3.832031-1.738281 7.589843-3.570312 11.222656-5.339843 14.070312-6.855469 27.359375-13.335938 42.785156-13.335938 12.3125 0 25.058594 5.199219 37.386719 10.226562 3.699219 1.507813 7.523437 3.070313 11.269531 4.457032 4.46875 1.65625 8.75 2.992187 12.886719 4.277344 9.925781 3.089843 18.496093 5.757812 25.988281 11.769531 12.605469 10.113281 19.550781 25.824219 26.902344 42.457031 1.71875 3.882812 3.492187 7.902344 5.34375 11.839844 2.046875 4.355468 4.226562 8.578125 6.335937 12.660156 7.140625 13.828125 13.886719 26.886719 13.886719 42.3125 0 18.222656-9.21875 35.769531-18.132812 52.738281zm0 0"/><path d="m193.613281 327.074219 1.859375.289062c3.859375.609375 8.132813 1.28125 12.40625 1.28125 5.542969 0 11.085938-1.128906 15.742188-5.003906 5-4.15625 7.648437-10.472656 7.875-18.765625.007812-.183594.023437-.414062.042968-.683594 1.523438-22.292968-11.027343-31.015625-21.828124-34.410156-2.601563-.816406-5.097657-1.902344-7.507813-2.953125-5.820313-2.535156-11.839844-5.15625-19.085937-4.042969-10.066407 1.546875-16.859376 9.882813-21.09375 16.019532-5.941407 8.605468-7.246094 17.90625-3.667969 26.191406 5.691406 13.179687 21.945312 20.046875 35.257812 22.078125zm-15.132812-36.910157c3.664062-5.304687 6.367187-7.410156 7.675781-7.609374.109375-.019532.230469-.027344.359375-.027344 1.644531 0 4.71875 1.339844 7.703125 2.636718 2.757812 1.203126 5.882812 2.5625 9.496094 3.699219 7.261718 2.28125 8.371094 6.667969 7.871094 13.960938-.042969.605469-.074219 1.113281-.082032 1.496093-.074218 2.671876-.570312 3.722657-.703125 3.957032-1.824219.964844-8.828125-.136719-12.21875-.667969l-1.949219-.304687c-10.777343-1.644532-18.304687-6.5-19.917968-10.234376-.316406-.734374-1.152344-2.675781 1.765625-6.90625zm0 0"/><path d="m135.117188 374.785156c-10.066407 1.546875-16.859376 9.882813-21.09375 16.015625-5.941407 8.609375-7.246094 17.910157-3.667969 26.195313 5.6875 13.179687 21.945312 20.046875 35.257812 22.078125l1.859375.289062c3.859375.609375 8.132813 1.28125 12.40625 1.28125 5.539063 0 11.085938-1.132812 15.742188-5.003906 5-4.15625 7.648437-10.472656 7.875-18.765625.003906-.183594.023437-.414062.042968-.683594 1.523438-22.296875-11.03125-31.019531-21.832031-34.410156-2.597656-.816406-5.09375-1.902344-7.503906-2.953125-5.824219-2.535156-11.839844-5.15625-19.085937-4.042969zm28.46875 40.039063c-.042969.605469-.074219 1.109375-.082032 1.496093-.074218 2.671876-.570312 3.722657-.703125 3.953126-1.824219.96875-8.828125-.132813-12.214843-.667969l-1.953126-.304688c-10.773437-1.640625-18.304687-6.5-19.917968-10.234375-.3125-.730468-1.152344-2.671875 1.765625-6.902344 3.664062-5.304687 6.367187-7.410156 7.675781-7.609374.109375-.019532.230469-.027344.359375-.027344 1.644531 0 4.722656 1.339844 7.703125 2.636718 2.757812 1.203126 5.882812 2.5625 9.496094 3.699219 7.261718 2.277344 8.371094 6.664063 7.871094 13.960938zm0 0"/><path d="m326.039062 161.1875c1.527344-22.292969-11.027343-31.015625-21.828124-34.410156-2.601563-.816406-5.097657-1.902344-7.507813-2.953125-5.820313-2.535157-11.839844-5.15625-19.085937-4.039063-10.0625 1.546875-16.859376 9.878906-21.09375 16.011719-5.941407 8.609375-7.246094 17.910156-3.667969 26.195313 5.691406 13.179687 21.945312 20.046874 35.261719 22.078124l1.859374.289063c3.859376.609375 8.128907 1.28125 12.402344 1.28125 5.542969 0 11.085938-1.128906 15.742188-5.003906 5-4.15625 7.648437-10.472657 7.875-18.761719.007812-.183594.023437-.414062.042968-.6875zm-19.953124-1.363281c-.042969.601562-.070313 1.105469-.082032 1.496093-.074218 2.671876-.570312 3.71875-.703125 3.953126-1.824219.96875-8.828125-.132813-12.21875-.667969l-1.949219-.304688c-10.777343-1.644531-18.304687-6.5-19.917968-10.234375-.3125-.730468-1.152344-2.675781 1.765625-6.902344 3.664062-5.304687 6.367187-7.410156 7.675781-7.613281.109375-.015625.230469-.023437.359375-.023437 1.644531 0 4.722656 1.339844 7.703125 2.636718 2.757812 1.203126 5.882812 2.5625 9.5 3.699219 7.261719 2.277344 8.367188 6.664063 7.867188 13.960938zm0 0"/><path d="m259.996094 360.503906c0-5.523437-4.476563-10-10-10-5.523438 0-10 4.476563-10 10v.007813c0 5.523437 4.476562 9.996093 10 9.996093 5.523437 0 10-4.480468 10-10.003906zm0 0"/><path d="m120.996094 320.003906c-5.523438 0-10 4.476563-10 10v.007813c0 5.523437 4.476562 9.996093 10 9.996093 5.523437 0 10-4.480468 10-10.003906 0-5.523437-4.476563-10-10-10zm0 0"/><path d="m114.496094 260.003906c-5.523438 0-10 4.476563-10 10v.007813c0 5.523437 4.476562 9.996093 10 9.996093 5.523437 0 10-4.480468 10-10.003906 0-5.523437-4.476563-10-10-10zm0 0"/><path d="m75.496094 354.003906c0-5.523437-4.476563-10-10-10-5.519532 0-10 4.476563-10 10v.007813c0 5.523437 4.480468 9.996093 10 9.996093 5.523437 0 10-4.480468 10-10.003906zm0 0"/><path d="m203.996094 141.503906c-5.523438 0-10 4.480469-10 10v.007813c0 5.523437 4.476562 9.996093 10 9.996093 5.523437 0 10-4.480468 10-10.003906 0-5.519531-4.476563-10-10-10zm0 0"/><path d="m242.996094 76.503906c-5.523438 0-10 4.480469-10 10v.007813c0 5.523437 4.476562 9.996093 10 9.996093 5.523437 0 10-4.480468 10-10.003906 0-5.519531-4.476563-10-10-10zm0 0"/><path d="m333.996094 200.503906c-5.523438 0-10 4.476563-10 10v.007813c0 5.523437 4.476562 9.996093 10 9.996093 5.523437 0 10-4.480468 10-10.003906 0-5.523437-4.476563-10-10-10zm0 0"/><path d="m395.996094 153.503906c-5.523438 0-10 4.476563-10 10v.007813c0 5.523437 4.476562 9.996093 10 9.996093 5.523437 0 10-4.480468 10-10.003906 0-5.523437-4.476563-10-10-10zm0 0"/><path d="m340.996094 91.503906c-5.523438 0-10 4.480469-10 10v.007813c0 5.523437 4.476562 9.996093 10 9.996093 5.523437 0 10-4.480468 10-10.003906 0-5.519531-4.476563-10-10-10zm0 0"/><path d="m23.570312 302.558594c1.507813.808594 3.132813 1.195312 4.734376 1.195312 3.558593 0 7.007812-1.90625 8.8125-5.261718l.003906-.003907c2.617187-4.863281.796875-10.925781-4.066406-13.542969-4.863282-2.621093-10.929688-.796874-13.546876 4.066407-2.617187 4.863281-.800781 10.925781 4.0625 13.546875zm0 0"/></svg>