<svg height="512pt" viewBox="-45 0 511 512" width="512pt" xmlns="http://www.w3.org/2000/svg"><path d="m87.941406 44.894531c1.117188 0 2.25-.1875 3.363282-.585937 5.199218-1.855469 7.910156-7.578125 6.054687-12.78125-1.859375-5.199219-7.582031-7.910156-12.78125-6.050782h-.007813c-5.203124 1.859376-7.910156 7.578126-6.050781 12.78125 1.460938 4.089844 5.3125 6.636719 9.421875 6.636719zm0 0"/><path d="m383.8125 61.011719c-.347656 0-.691406.03125-1.035156.042969-1.035156-2.703126-2.277344-5.347657-3.753906-7.902344-7.253907-12.542969-18.957032-21.511719-32.949219-25.25-20.730469-5.554688-42.460938-9.886719-64.617188-12.914063-5.195312-8.949219-14.882812-14.988281-25.957031-14.988281-9.109375 0-17.277344 4.085938-22.785156 10.515625-7.472656-.335937-14.921875-.515625-22.214844-.515625s-14.742188.179688-22.214844.515625c-5.507812-6.429687-13.675781-10.515625-22.785156-10.515625-11.074219 0-20.753906 6.035156-25.953125 14.984375-2.882813.390625-5.78125.804687-8.648437 1.242187-5.457032.832032-9.207032 5.933594-8.375 11.394532.757812 4.949218 5.019531 8.492187 9.875 8.492187.5 0 1.011718-.039062 1.519531-.117187.527343-.078125 1.054687-.152344 1.582031-.230469v19.085937c0 2.921876 1.277344 5.695313 3.5 7.597657 1.824219 1.5625 4.132812 2.402343 6.5 2.402343.515625 0 1.03125-.039062 1.542969-.117187 3.042969-.476563 6.128906-.917969 9.167969-1.320313 9.636718-1.269531 19.679687-2.195312 29.839843-2.753906 5.300781-.289062 9.453125-4.671875 9.453125-9.984375v-20.421875c5.042969-.164062 10.058594-.253906 14.996094-.253906s9.953125.089844 15 .253906v20.421875c0 5.308594 4.148438 9.695313 9.449219 9.984375 10.160156.558594 20.203125 1.484375 29.839843 2.753906 3.039063.398438 6.125.84375 9.167969 1.320313.515625.078125 1.027344.117187 1.542969.117187 2.367188 0 4.679688-.84375 6.503906-2.402343 2.21875-1.902344 3.496094-4.675781 3.496094-7.597657v-19.085937c18.984375 2.84375 37.582031 6.683594 55.402344 11.457031 8.835937 2.363282 16.226562 8.023438 20.804687 15.941406 1.996094 3.453126 3.355469 7.15625 4.054688 10.964844.019531.089844.027343.183594.046875.273438.851562 4.84375.644531 9.855468-.660156 14.746094-2.363282 8.839843-8.023438 16.226562-15.941407 20.804687-7.921875 4.582031-17.148437 5.800781-25.980469 3.441406-14.539062-3.894531-29.273437-7.078125-44.136718-9.472656-14.273438-2.300781-28.765625-4.042969-43.222656-4.625-15.183594-.609375-30.316407-.90625-45.503907-.246094-14.433593.628907-28.839843 1.917969-43.132812 4.039063-14.765625 2.1875-29.421875 5.171875-43.886719 8.851562-1.859375.472656-3.714844.957032-5.566406 1.453125-18.25 4.875-37.050782-6-41.925782-24.246093-2.125-7.945313-1.316406-16.394532 2.269532-23.78125 2.414062-4.96875.339844-10.953126-4.625-13.363282-4.96875-2.414062-10.953125-.339844-13.367188 4.625-.703125 1.453125-1.339844 2.929688-1.90625 4.425782-.347656-.007813-.691406-.039063-1.035156-.039063-20.230469 0-36.6875 16.457031-36.6875 36.6875 0 20.226563 16.457031 36.683594 36.6875 36.683594 8.449219 0 16.53125-2.933594 22.972656-8.105469.535156.332031 1.070313.671875 1.621094.988281 12.542969 7.253907 27.160156 9.191407 41.164062 5.445313 10.890626-2.917969 21.777344-5.382813 32.554688-7.386719v57.171875c0 23.433594 19.066406 42.5 42.5 42.5h2.5v114.664062c-6.132812 5.496094-10 13.472657-10 22.335938v120c0 16.542969 13.457031 30 30 30h20c16.542969 0 30-13.457031 30-30v-14.996094c0-5.523437-4.476562-10-10-10s-10 4.476563-10 10v14.996094c0 5.515625-4.484375 10-10 10h-20c-5.515625 0-10-4.484375-10-10v-120c0-5.511719 4.484375-10 10-10h20c5.515625 0 10 4.488281 10 10v15.003906c0 5.523438 4.476562 10 10 10s10-4.476562 10-10v-15.003906c0-8.863281-3.867188-16.839844-10-22.335938v-114.664062h2.5c23.433594 0 42.5-19.066406 42.5-42.5v-57.175781c10.777344 2.003906 21.667969 4.472656 32.5625 7.390625 4.660156 1.246094 9.390625 1.863281 14.089844 1.863281 9.410156 0 18.703125-2.472656 27.066406-7.3125.550781-.316406 1.082031-.65625 1.621094-.988281 6.441406 5.171875 14.523437 8.105468 22.972656 8.105468 20.230469 0 36.6875-16.457031 36.6875-36.683593 0-20.230469-16.457031-36.6875-36.6875-36.6875zm-208.3125-19.699219c-6.777344.523438-13.464844 1.199219-20 2.027344v-13.339844c0-1.03125.15625-2.027344.449219-2.960938.003906-.011718.007812-.019531.007812-.03125 1.277344-4.054687 5.070313-7.007812 9.542969-7.007812 3.757812 0 7.039062 2.085938 8.746094 5.160156.03125.066406.066406.125.097656.1875.734375 1.390625 1.15625 2.972656 1.15625 4.652344zm90 2.027344c-6.53125-.828125-13.222656-1.503906-20-2.027344v-11.3125c0-1.652344.410156-3.207031 1.121094-4.582031.050781-.097657.105468-.191407.152344-.289063 1.714843-3.054687 4.980468-5.128906 8.726562-5.128906 4.46875 0 8.257812 2.945312 9.535156 6.996094.007813.015625.011719.03125.019532.046875.289062.9375.445312 1.929687.445312 2.957031zm-245 54.359375c0-8.359375 6.183594-15.28125 14.210938-16.484375.074218 4.394531.667968 8.789062 1.820312 13.097656 1.761719 6.601562 4.703125 12.683594 8.617188 18.035156-2.410157 1.316406-5.140626 2.035156-7.960938 2.035156-9.203125 0-16.6875-7.484374-16.6875-16.683593zm205 21.164062v21.136719h-30v-21.136719c4.957031-.164062 9.957031-.253906 15-.253906s10.046875.089844 15 .253906zm40 63.636719c0 12.40625-10.09375 22.5-22.5 22.5h-12.5c-5.523438 0-10 4.476562-10 10v117h-20v-117c0-5.523438-4.476562-10-10-10h-12.5c-12.40625 0-22.5-10.09375-22.5-22.5v-60.378906c6.644531-.886719 13.316406-1.59375 20-2.132813v30.011719c0 5.523438 4.476562 10 10 10h50c5.523438 0 10-4.476562 10-10v-30.011719c6.683594.539063 13.355469 1.246094 20 2.132813zm118.3125-68.117188c-2.820312 0-5.550781-.71875-7.964844-2.03125 3.917969-5.355468 6.859375-11.4375 8.621094-18.039062 1.15625-4.332031 1.769531-8.722656 1.851562-13.089844 8.011719 1.214844 14.179688 8.128906 14.179688 16.476563 0 9.199219-7.484375 16.683593-16.6875 16.683593zm0 0"/><path d="m240.5 412.003906c-5.523438 0-10 4.480469-10 10.003906 0 5.523438 4.476562 10 10 10s10-4.476562 10-10v-.007812c0-5.523438-4.476562-9.996094-10-9.996094zm0 0"/></svg>