<svg height="511pt" viewBox="-10 1 511 511.999" width="511pt" xmlns="http://www.w3.org/2000/svg"><path d="m483.667969 96.867188-29.101563-29.105469c-.003906 0-.003906 0-.003906 0 0-.003907 0-.003907 0-.003907l-60.050781-60.046874c-4.972657-4.972657-11.582031-7.710938-18.613281-7.710938s-13.644532 2.738281-18.613282 7.710938c-13.941406 13.941406-17.570312 25.136718-20.484375 34.132812-2.101562 6.496094-3.625 11.191406-8.867187 16.4375-2.214844 2.214844-4.417969 3.867188-6.929688 5.195312-4.882812 2.585938-6.742187 8.636719-4.15625 13.519532 2.582032 4.878906 8.632813 6.742187 13.515625 4.15625 4.269531-2.261719 8.101563-5.117188 11.714844-8.730469 8.644531-8.644531 11.359375-17.023437 13.753906-24.417969 2.601563-8.027344 5.054688-15.613281 15.59375-26.152344 1.195313-1.195312 2.785157-1.851562 4.472657-1.851562s3.277343.65625 4.472656 1.851562l21.800781 21.800782c-6.722656 8.753906-9.21875 16.425781-11.460937 23.363281-2.484376 7.683594-4.628907 14.316406-13.199219 22.886719-8.570313 8.570312-15.203125 10.714844-22.886719 13.199218-8.859375 2.859376-18.902344 6.105469-30.882812 18.082032-11.976563 11.980468-15.222657 22.023437-18.082032 30.882812-2.484375 7.683594-4.625 14.316406-13.199218 22.886719-8.570313 8.570313-15.203126 10.714844-22.886719 13.199219-8.859375 2.863281-18.902344 6.105468-30.878907 18.082031-11.980468 11.980469-15.226562 22.023437-18.085937 30.882813-2.484375 7.683593-4.628906 14.316406-13.199219 22.886718-8.570312 8.570313-15.203125 10.714844-22.886718 13.199219-8.859376 2.859375-18.902344 6.105469-30.878907 18.085937-11.980469 11.976563-15.222656 22.019532-18.085937 30.878907-2.484375 7.683593-4.625 14.316406-13.195313 22.886719-8.574219 8.570312-15.207031 10.714843-22.890625 13.199218-8.859375 2.859375-18.902344 6.105469-30.878906 18.082032-11.980469 11.980468-15.222656 22.023437-18.085938 30.882812-1.691406 5.234375-3.230468 9.984375-6.746093 15.191406l-21.410157-21.40625c-1.699218-1.699218-1.886718-3.675781-1.847656-4.703125.039063-1.03125.378906-3 2.21875-4.582031.253906-.222656.496094-.453125.730469-.695312 7.789063-8.207032 10.386719-16.21875 12.679687-23.292969 2.609376-8.054688 5.078126-15.660157 15.613282-26.199219 10.523437-10.523438 18.046875-12.960938 26.011718-15.539062 7.394532-2.398438 15.773438-5.113282 24.515626-13.851563 8.738281-8.742187 11.453124-17.121094 13.851562-24.515625 2.578125-7.964844 5.015625-15.484375 15.542969-26.011719 10.535156-10.539062 18.121093-12.992187 26.148437-15.59375 7.394532-2.394531 15.773438-5.109375 24.421875-13.757812 8.644531-8.648438 11.359375-17.027344 13.753907-24.417969 2.601562-8.03125 5.054687-15.613281 15.59375-26.152344 10.527343-10.523437 18.046874-12.960937 26.011718-15.542968 7.394532-2.394532 15.773438-5.109376 24.515625-13.851563 3.609375-3.609375 6.464844-7.417969 8.726563-11.636719 2.609375-4.867187.777344-10.929687-4.089844-13.539062s-10.929688-.777344-13.539062 4.089844c-1.339844 2.503906-3.007813 4.710937-5.238282 6.945312-5.339844 5.335938-10.039062 6.859375-16.539062 8.964844-8.9375 2.898437-20.0625 6.503906-33.988282 20.429687-13.941406 13.941407-17.566406 25.136719-20.480468 34.128907-2.101563 6.5-3.625 11.195312-8.867188 16.441406-5.246094 5.246094-9.941406 6.765625-16.441406 8.871094-8.996094 2.914062-20.191406 6.539062-34.128906 20.480468-13.929688 13.925782-17.53125 25.050782-20.429688 33.988282-2.105468 6.5-3.628906 11.199218-8.96875 16.535156-5.339844 5.339844-10.035156 6.863281-16.535156 8.96875-8.9375 2.894531-20.0625 6.5-33.988281 20.425781-13.9375 13.9375-17.574219 25.160156-20.5 34.175781-1.984375 6.125-3.429688 10.585938-7.875 15.386719-5.28125 4.757813-8.445313 11.5-8.710938 18.601563-.273437 7.289062 2.527344 14.429687 7.6875 19.59375l60.726563 60.726562h.003906c.003906.003906.003906.003906.003906.003906l28.421875 28.421875c5.132813 5.132813 11.875 7.699219 18.613281 7.699219 6.742188 0 13.484376-2.566406 18.617188-7.699219 13.925781-13.925781 17.53125-25.050781 20.425781-33.988281 2.105469-6.5 3.628907-11.195312 8.96875-16.535156 5.335938-5.339844 10.035157-6.863282 16.535157-8.96875 8.9375-2.894532 20.0625-6.5 33.988281-20.425782 13.929687-13.925781 17.53125-25.050781 20.429687-33.988281 2.105469-6.5 3.628906-11.199219 8.96875-16.539062 5.339844-5.339844 10.035156-6.859375 16.535156-8.96875 8.9375-2.894531 20.0625-6.5 33.988282-20.425781 13.925781-13.925782 17.53125-25.050782 20.425781-33.988282 2.105469-6.5 3.628906-11.199218 8.96875-16.539062 5.339844-5.335938 10.035156-6.859375 16.539063-8.964844 8.9375-2.898438 20.0625-6.5 33.988281-20.429688 13.925781-13.925781 17.53125-25.050781 20.425781-33.988281 2.109375-6.5 3.628906-11.195312 8.96875-16.535156s10.039062-6.863281 16.539062-8.96875c8.9375-2.894531 20.0625-6.5 33.984376-20.425781 13.929687-13.929688 17.535156-25.054688 20.429687-33.992188 2.105469-6.5 3.628906-11.195312 8.96875-16.535156 4.96875-4.972656 7.707031-11.582031 7.707031-18.613281s-2.738281-13.644531-7.710937-18.613281zm-14.144531 23.082031c-8.738282 8.742187-11.457032 17.121093-13.851563 24.515625-2.578125 7.964844-5.015625 15.484375-15.542969 26.011718-10.523437 10.523438-18.046875 12.964844-26.011718 15.542969-7.390626 2.394531-15.769532 5.109375-24.511719 13.851563-8.742188 8.742187-11.457031 17.121094-13.851563 24.515625-2.582031 7.964843-5.019531 15.484375-15.542968 26.011719-10.527344 10.523437-18.050782 12.960937-26.015626 15.542968-7.390624 2.394532-15.769531 5.109375-24.511718 13.851563-8.738282 8.742187-11.457032 17.121093-13.851563 24.515625-2.582031 7.960937-5.019531 15.484375-15.542969 26.007812-10.523437 10.527344-18.046874 12.964844-26.011718 15.546875-7.394532 2.394531-15.773438 5.109375-24.511719 13.851563-8.742187 8.738281-11.457031 17.121094-13.851563 24.511718-2.582031 7.964844-5.019531 15.488282-15.546874 26.011719-10.523438 10.527344-18.046876 12.964844-26.011719 15.542969-7.390625 2.398438-15.769531 5.113281-24.511719 13.851562-8.742188 8.742188-11.457031 17.121094-13.851562 24.515626-2.582032 7.964843-5.019532 15.484374-15.542969 26.011718-2.464844 2.464844-6.480469 2.464844-8.941407 0l-21.804687-21.804687c6.722656-8.75 9.222656-16.421875 11.464844-23.359375 2.480469-7.683594 4.625-14.316406 13.195312-22.886719 3.332031-3.332031 6.589844-5.914063 9.957031-7.890625 4.765626-2.792969 6.363282-8.921875 3.570313-13.683594-2.796875-4.765625-8.925781-6.359375-13.6875-3.566406-4.855469 2.847656-9.433594 6.445312-13.984375 10.996094-11.976562 11.980468-15.222656 22.019531-18.082031 30.882812-1.691407 5.234375-3.230469 9.984375-6.75 15.191406l-17.3125-17.308593c6.722656-8.75 9.222656-16.421875 11.464843-23.359375 2.480469-7.683594 4.625-14.320313 13.195313-22.890625 8.570313-8.570313 15.203125-10.710938 22.886719-13.195313 8.859375-2.863281 18.902344-6.105468 30.882812-18.085937 11.976563-11.976563 15.222656-22.019531 18.082032-30.878907 2.484374-7.683593 4.628906-14.316406 13.199218-22.890624 8.570313-8.570313 15.207032-10.714844 22.886719-13.195313 8.859375-2.863281 18.902344-6.105469 30.878906-18.085937 11.980469-11.976563 15.226563-22.019532 18.089844-30.878907 2.480469-7.683593 4.625-14.320312 13.195313-22.890625 8.570312-8.570312 15.203124-10.710937 22.886718-13.195312 8.859375-2.863282 18.902344-6.105469 30.878906-18.085938 11.980469-11.976562 15.222657-22.019531 18.085938-30.878906 2.484375-7.683594 4.625-14.316406 13.195312-22.886719 8.574219-8.570312 15.207032-10.714843 22.890626-13.199219 8.859374-2.863281 18.902343-6.105468 30.878906-18.085937 11.980468-11.976563 15.222656-22.019531 18.085937-30.878906 1.691407-5.234375 3.230469-9.984375 6.75-15.191407l17.304688 17.304688c-6.722657 8.753906-9.21875 16.425781-11.460938 23.363281-2.480469 7.683594-4.625 14.316407-13.195312 22.886719-8.570313 8.570312-15.207031 10.714844-22.890625 13.195312-8.859375 2.863282-18.902344 6.109376-30.878906 18.085938-11.980469 11.980469-15.222657 22.023438-18.085938 30.882812-2.480469 7.679688-4.625 14.316407-13.195312 22.886719-8.570313 8.570313-15.207032 10.714844-22.886719 13.195313-8.863281 2.863281-18.90625 6.109375-30.882813 18.085937-11.976562 11.980469-15.222656 22.019531-18.085937 30.882813-2.480469 7.679687-4.625 14.316406-13.195313 22.886718-8.570312 8.570313-15.207031 10.714844-22.886718 13.195313-8.863282 2.863281-18.90625 6.109375-30.882813 18.085937-4.550781 4.550782-8.144531 9.125-10.992187 13.980469-2.796876 4.761719-1.199219 10.890625 3.566406 13.683594 1.589844.933594 3.332031 1.375 5.046875 1.375 3.433593 0 6.773437-1.769531 8.636719-4.941406 1.976562-3.367188 4.554687-6.625 7.882812-9.953125 8.570312-8.570313 15.207031-10.714844 22.890625-13.199219 8.859375-2.859375 18.902344-6.105469 30.878906-18.082031 11.980469-11.980469 15.222657-22.023438 18.085938-30.882813 2.484375-7.683593 4.625-14.316406 13.195312-22.886719 8.570313-8.570312 15.207031-10.714843 22.886719-13.195312 8.863281-2.863281 18.90625-6.109375 30.882812-18.085938 11.980469-11.980468 15.222657-22.023437 18.085938-30.882812 2.480469-7.679688 4.625-14.316406 13.199219-22.886719 8.570312-8.570312 15.203125-10.714843 22.886719-13.195312 8.859374-2.863281 18.902343-6.109375 30.878906-18.085938 11.980468-11.980469 15.222656-22.019531 18.085937-30.882812 1.691407-5.234375 3.230469-9.984375 6.75-15.191407l21.410157 21.410157c1.191406 1.195312 1.851562 2.78125 1.851562 4.472656 0 1.683594-.65625 3.273437-1.851562 4.464844zm0 0"/><path d="m284.429688 104.707031c2.558593 0 5.117187-.976562 7.070312-2.929687l.003906-.003906c3.90625-3.90625 3.90625-10.234376 0-14.140626-3.90625-3.902343-10.242187-3.902343-14.144531.003907-3.90625 3.90625-3.90625 10.238281 0 14.144531 1.953125 1.949219 4.511719 2.925781 7.070313 2.925781zm0 0"/><path d="m153.988281 376.683594c-3.90625 3.90625-3.90625 10.238281 0 14.140625 1.953125 1.953125 4.511719 2.929687 7.070313 2.929687s5.117187-.976562 7.070312-2.929687l.003906-.003907c3.90625-3.90625 3.902344-10.234374 0-14.140624-3.90625-3.902344-10.242187-3.902344-14.144531.003906zm0 0"/></svg>