<svg height="512pt" viewBox="0 -66 512 512" width="512pt" xmlns="http://www.w3.org/2000/svg"><path d="m502 260h-5v-75c0-.574219-.050781-1.148438-.148438-1.714844l-20-115c-2.941406-16.917968-14.941406-28.285156-29.851562-28.285156h-177.007812c-4.644532-22.792969-24.847657-40-48.992188-40h-21.335938c-5.523437 0-10 4.476562-10 10s4.476563 10 10 10h21.335938c13.035156 0 24.152344 8.359375 28.277344 20h-164.277344v-16.664062c0-1.808594 1.527344-3.335938 3.335938-3.335938h21.328124c5.523438 0 10-4.476562 10-10s-4.476562-10-10-10h-21.328124c-12.867188 0-23.335938 10.46875-23.335938 23.335938v16.664062h-10c-15.636719 0-28.519531 12.523438-29.964844 29.132812l-10 115c-.023437.289063-.035156.578126-.035156.867188v75h-5c-5.523438 0-10 4.476562-10 10v25c0 13.785156 11.214844 25 25 25h25.726562c4.867188 33.878906 34.070313 60 69.273438 60s64.40625-26.121094 69.273438-60h143.453124c4.867188 33.878906 34.070313 60 69.273438 60 35.199219 0 64.40625-26.121094 69.273438-60h15.726562c13.785156 0 25-11.214844 25-25v-25c0-5.523438-4.476562-10-10-10zm-51.078125 0c-12.628906-12.359375-29.898437-20-48.921875-20s-36.292969 7.640625-48.921875 20h-5.800781v-65h27.859375c5.523437 0 10-4.476562 10-10s-4.476563-10-10-10h-27.859375v-74.996094h114.789062l13.042969 74.996094h-9.972656c-5.523438 0-10 4.476562-10 10s4.476562 10 10 10h11.863281v65zm-118.195313 40h-143.453124c-1.011719-7.058594-3.078126-13.78125-6.042969-20h155.539062c-2.964843 6.21875-5.03125 12.941406-6.042969 20zm-290.300781-200h132.296875v75h-138.816406zm152.296875 0h132.554688v75h-132.554688zm132.554688 95v65h-132.554688v-65zm-272.277344-135h392c7.71875 0 9.808594 9.757812 10.148438 11.714844l1.441406 8.285156h-414.421875l.792969-9.132812c.46875-5.402344 4.066406-10.867188 10.039062-10.867188zm-20 135h139.722656v65h-5.800781c-12.628906-12.359375-29.898437-20-48.921875-20s-36.292969 7.636719-48.921875 20h-36.078125zm-15 100v-15h36.769531c-2.964843 6.21875-5.03125 12.941406-6.042969 20h-25.726562c-2.710938 0-5-2.289062-5-5zm100 65c-27.570312 0-50-22.429688-50-50s22.429688-50 50-50c27.566406 0 49.996094 22.425781 50 49.992188v.007812.007812c-.003906 27.566407-22.433594 49.992188-50 49.992188zm282 0c-27.570312 0-50-22.429688-50-50s22.429688-50 50-50c27.566406 0 49.996094 22.425781 50 49.992188v.007812.007812c-.003906 27.566407-22.433594 49.992188-50 49.992188zm90-65c0 2.710938-2.289062 5-5 5h-15.726562c-1.011719-7.058594-3.078126-13.78125-6.042969-20h26.769531zm0 0"/><path d="m120 280c-16.542969 0-30 13.457031-30 30s13.457031 30 30 30 30-13.457031 30-30-13.457031-30-30-30zm0 40c-5.515625 0-10-4.484375-10-10s4.484375-10 10-10 10 4.484375 10 10-4.484375 10-10 10zm0 0"/><path d="m402 280c-16.542969 0-30 13.457031-30 30s13.457031 30 30 30 30-13.457031 30-30-13.457031-30-30-30zm0 40c-5.515625 0-10-4.484375-10-10s4.484375-10 10-10 10 4.484375 10 10-4.484375 10-10 10zm0 0"/><path d="m154.667969 20c5.523437 0 10-4.476562 10-10s-4.476563-10-10-10h-.007813c-5.523437 0-9.996094 4.476562-9.996094 10s4.480469 10 10.003907 10zm0 0"/><path d="m420.136719 175h-.003907c-5.523437 0-9.996093 4.476562-9.996093 10s4.476562 10 10 10c5.523437 0 10-4.476562 10-10s-4.476563-10-10-10zm0 0"/></svg>