<svg height="512pt" viewBox="-136 0 512 512" width="512pt" xmlns="http://www.w3.org/2000/svg"><path d="m240 150v-20c0-27.570312-22.429688-50-50-50h-30v-20c5.523438 0 10-4.476562 10-10v-40c0-5.523438-4.476562-10-10-10h-80c-5.523438 0-10 4.476562-10 10v40c0 5.523438 4.476562 10 10 10v20h-30c-27.570312 0-50 22.429688-50 50v20c0 13.039062 8.359375 24.152344 20 28.28125v95.441406c-11.640625 4.128906-20 15.242188-20 28.28125v179.996094c0 16.542969 13.457031 30 30 30h40c16.542969 0 30-13.457031 30-30 0-5.515625 4.484375-10 10-10h20c5.511719 0 10 4.484375 10 10 0 16.542969 13.457031 30 30 30h40c16.542969 0 30-13.457031 30-30v-179.996094c0-13.035156-8.363281-24.152344-20-28.28125v-95.441406c11.640625-4.128906 20-15.242188 20-28.28125zm-150-130h60v20h-60zm10 40h40v20h-40zm-80 70c0-16.539062 13.457031-30 30-30h140c16.542969 0 30 13.460938 30 30v20c0 5.515625-4.484375 10-10 10h-45.003906c-5.523438 0-10 4.476562-10 10s4.476562 10 10 10h35.003906v51.851562c-36.09375-1.074218-55.582031-7.957031-76.101562-15.210937-21.425782-7.574219-43.539063-15.386719-83.898438-16.5v-20.140625h34.996094c5.523437 0 10-4.476562 10-10s-4.476563-10-10-10h-44.996094c-5.511719 0-10-4.484375-10-10zm20 142.003906v-51.855468c36.8125 1.066406 56.5 8.019531 77.230469 15.347656 21.226562 7.507812 43.132812 15.242187 82.769531 16.363281v20.144531zm170 219.996094h-40c-5.515625 0-10-4.484375-10-10 0-16.542969-13.457031-30-30-30h-20c-16.542969 0-30 13.457031-30 30 0 5.515625-4.484375 10-10 10h-40c-5.515625 0-10-4.484375-10-10v-179.996094c0-5.515625 4.484375-10 10-10h180c5.511719 0 10 4.484375 10 10v109.996094h-54.996094c-5.523437 0-10 4.476562-10 10 0 5.519531 4.476563 10 10 10h54.996094v50c0 5.515625-4.484375 10-10 10zm0 0"/><path d="m120.007812 412h-.007812c-5.523438 0-9.996094 4.476562-9.996094 10 0 5.519531 4.480469 10 10.003906 10 5.523438 0 10-4.480469 10-10 0-5.523438-4.476562-10-10-10zm0 0"/><path d="m120 180c5.523438 0 10-4.476562 10-10s-4.476562-10-10-10h-.007812c-5.523438 0-9.996094 4.476562-9.996094 10s4.480468 10 10.003906 10zm0 0"/></svg>