<svg height="512pt" viewBox="0 0 512 512" width="512pt" xmlns="http://www.w3.org/2000/svg"><path d="m351 436c5.523438 0 10-4.476562 10-10v-49.28125c35.011719-30.457031 55-74.179688 55-120.71875 0-28.582031-7.632812-56.640625-22.074219-81.136719-13.023437-22.089843-31.246093-40.800781-52.925781-54.425781v-14.4375c0-16.542969-13.460938-30-30-30-13.824219 0-25.484375 9.398438-28.949219 22.136719-8.59375-1.40625-17.316406-2.136719-26.050781-2.136719-4.773438 0-9.570312.226562-14.328125.648438-9.453125-12.429688-21.789063-20.648438-35.671875-20.648438-25.128906 0-45.183594 26.910156-52.253906 56.976562-23.769532 19.765626-41.175782 45.617188-50.417969 75.03125-1.65625 5.269532 1.273437 10.882813 6.542969 12.535157 1 .3125 2.007812.464843 3 .464843 4.253906 0 8.195312-2.734374 9.539062-7.007812 5.953125-18.953125 15.785156-36.234375 28.867188-50.9375 2.085937 25.761719 18.5 47.628906 44.722656 52.09375v22.566406c-11.640625 4.128906-20 15.242188-20 28.28125v104.867188c-25.210938-17.644532-44.347656-43.464844-53.585938-72.867188-1.652343-5.265625-7.269531-8.195312-12.535156-6.539062-5.269531 1.652344-8.199218 7.269531-6.542968 12.535156 11.914062 37.921875 38.234374 70.609375 72.664062 90.5625v11.4375c0 16.542969 13.457031 30 30 30 13.558594 0 25.039062-9.042969 28.738281-21.414062 7.03125.933593 14.148438 1.414062 21.261719 1.414062 1.660156 0 3.328125-.035156 4.996094-.085938v10.085938c0 5.523438 4.480468 10 10 10 5.523437 0 10-4.476562 10-10v-20.695312c0-.011719 0-.023438 0-.035157v-49.269531h20.003906v70c0 5.523438 4.476562 10 10 10 5.519531 0 10-4.476562 10-10v-70h20v16.042969.015625 53.941406c0 5.523438 4.480469 10 10 10zm45-180c0 34.484375-12.550781 67.199219-35 92.601562v-22.601562c0-16.542969-13.457031-30-30-30h-10v-21.722656c11.636719-4.125 20-15.242188 20-28.277344v-101.230469c34.296875 26.296875 55 67.46875 55 111.230469zm-95-150c0-5.515625 4.484375-10 10-10 5.511719 0 10 4.484375 10 10v140c0 5.511719-4.488281 10-10 10-5.515625 0-10-4.488281-10-10zm-95-10c7.855469 0 15.773438 6.230469 22.089844 15.796875.285156.542969.613281 1.058594.988281 1.539063 7.085937 11.4375 11.921875 27.125 11.921875 42.664062 0 25.046875-13.085938 40-35 40-21.917969 0-35-14.953125-35-40 0-1.167969.035156-2.347656.089844-3.535156.011718-.210938.023437-.421875.035156-.636719.210938-3.734375.691406-7.546875 1.453125-11.390625.046875-.25.089844-.503906.117187-.757812 4.816407-23.546876 19.167969-43.679688 33.304688-43.679688zm0 320c-5.515625 0-10-4.484375-10-10v-17.382812c0-.019532 0-.039063 0-.058594v-122.554688c0-5.515625 4.484375-10 10-10 5.511719 0 10 4.484375 10 10v136.980469.070313 2.945312c0 5.515625-4.488281 10-10 10zm30-21.445312v-128.550782c0-13.039062-8.363281-24.152344-20-28.28125v-22.566406c23.714844-4.039062 44.996094-22.777344 44.996094-59.15625 0-13.453125-2.984375-27.472656-8.25-39.949219 1.082031-.023437 2.167968-.050781 3.253906-.050781 8.394531 0 16.769531.753906 25 2.238281v127.761719c0 13.035156 8.359375 24.152344 20 28.277344v21.722656h-10c-16.542969 0-30 13.457031-30 30v69.886719c-8.371094.292969-16.761719-.15625-25-1.332031zm45-68.554688c0-5.511719 4.484375-10 10-10h40c5.515625 0 10 4.488281 10 10v10h-60zm0 0"/><path d="m437.019531 74.980469c-48.351562-48.351563-112.640625-74.980469-181.019531-74.980469s-132.667969 26.628906-181.019531 74.980469c-48.351563 48.351562-74.980469 112.640625-74.980469 181.019531s26.628906 132.667969 74.980469 181.019531c48.351562 48.351563 112.640625 74.980469 181.019531 74.980469 52.039062 0 102.132812-15.535156 144.871094-44.925781 4.546875-3.128907 5.699218-9.355469 2.570312-13.90625-3.128906-4.546875-9.355468-5.699219-13.90625-2.570313-39.382812 27.085938-85.558594 41.402344-133.535156 41.402344-130.128906 0-236-105.871094-236-236s105.871094-236 236-236 236 105.871094 236 236c0 47.964844-14.316406 94.140625-41.398438 133.53125-3.128906 4.550781-1.976562 10.773438 2.574219 13.902344 4.550781 3.132812 10.777344 1.980468 13.90625-2.570313 29.382813-42.742187 44.917969-92.835937 44.917969-144.863281 0-68.378906-26.628906-132.667969-74.980469-181.019531zm0 0"/><path d="m436.355469 422.261719c-4.242188-3.535157-10.546875-2.964844-14.085938 1.28125l-.003906.003906c-3.535156 4.242187-2.960937 10.546875 1.28125 14.082031 1.871094 1.554688 4.140625 2.316406 6.394531 2.316406 2.867188 0 5.714844-1.226562 7.695313-3.601562 3.535156-4.242188 2.960937-10.546875-1.28125-14.082031zm0 0"/><path d="m116 256c0-5.523438-4.476562-10-10-10s-10 4.476562-10 10v.007812c0 5.523438 4.476562 9.996094 10 9.996094s10-4.480468 10-10.003906zm0 0"/></svg>