<svg height="512pt" viewBox="0 -26 512 512" width="512pt" xmlns="http://www.w3.org/2000/svg"><path d="m485.570312 185.183594c-.144531-.082032-.292968-.164063-.445312-.238282l-14.972656-7.476562c-4.941406-2.464844-10.945313-.460938-13.414063 4.480469-2.464843 4.941406-.460937 10.945312 4.480469 13.414062l14.730469 7.355469c9.894531 5.675781 16.039062 16.140625 16.050781 27.347656-.011719 11.230469-6.15625 21.695313-16.050781 27.371094l-12.4375 6.207031c-3.390625 1.695313-5.53125 5.160157-5.53125 8.949219v74.21875c0 5.515625-4.488281 10-10 10-5.515625 0-10-4.484375-10-10v-54.246094c0-.054687-.011719-.109375-.011719-.164062 0-.074219.007812-.144532.003906-.222656-1.539062-39.886719-34.03125-71.132813-73.972656-71.132813-40.820312 0-74.035156 33.210937-74.035156 74.035156 0 17.304688 5.972656 33.761719 16.722656 46.871094l-152.585938 76.1875c-5.429687-6.464844-11.96875-11.832031-19.386718-15.878906 2.414062-12.207031 1.472656-24.976563-2.8125-36.753907-4.289063-11.777343-11.777344-22.171874-21.480469-29.972656 4.503906-11.605468 5.792969-24.351562 3.617187-36.699218-2.179687-12.34375-7.75-23.878907-15.949218-33.246094 6.449218-10.648438 9.933594-22.976563 9.933594-35.511719 0-12.539063-3.484376-24.863281-9.933594-35.511719 8.199218-9.367187 13.769531-20.902344 15.949218-33.25 2.175782-12.347656.886719-25.089844-3.617187-36.699218 9.703125-7.800782 17.191406-18.191407 21.480469-29.972657 4.285156-11.777343 5.230468-24.542969 2.816406-36.75 7.414062-4.050781 13.953125-9.414062 19.386719-15.878906l27.0625 13.511719c-15.394531 15.589844-24.25 36.726562-24.25 59.050781 0 46.34375 37.703125 84.046875 84.046875 84.046875 42.160156 0 77.15625-31.203125 83.136718-71.726562l56.597657 28.261718c4.9375 2.464844 10.945312.460938 13.410156-4.480468 2.46875-4.941407.464844-10.945313-4.476563-13.414063l-262.335937-130.988281c-26.433594-13.199219-57.085937-4.992188-71.304687 19.101562-36.628907 62.277344-55.992188 133.0625-55.992188 204.699219 0 20.296875 1.570312 40.789063 4.667969 60.902344.761719 4.945312 5.019531 8.480469 9.871093 8.480469.507813 0 1.019532-.039063 1.535157-.117188 5.457031-.839844 9.203125-5.945312 8.359375-11.40625-2.941406-19.113281-4.433594-38.578125-4.433594-57.859375 0-68.074219 18.40625-135.351563 53.226562-194.542969 8.808594-14.929687 28.214844-19.816406 45.136719-11.367187l17.113281 8.546875c-4.601562 4.460937-10.066406 7.964844-16.179687 10.332031-5.003906 1.9375-7.585937 7.476563-5.855469 12.554687 3.605469 10.5625 3.492188 21.695313-.332031 32.203126-3.824219 10.507812-10.894531 19.109374-20.441406 24.886718-4.59375 2.773438-6.175781 8.679688-3.589844 13.378906 5.386719 9.777344 7.203125 20.765626 5.265625 31.773438-1.941406 11.011719-7.410156 20.714844-15.8125 28.058594-4.042969 3.53125-4.574219 9.621094-1.207031 13.800781 7 8.691406 10.699219 19.195313 10.699219 30.375s-3.699219 21.683594-10.699219 30.378906c-3.367188 4.179688-2.835938 10.269531 1.207031 13.800781 8.402344 7.34375 13.871094 17.046876 15.8125 28.054688 1.9375 11.011719.121094 22-5.265625 31.773438-2.589844 4.699218-1.007813 10.605468 3.585937 13.382812 9.550782 5.773438 16.621094 14.378906 20.445313 24.882812 3.824219 10.507813 3.9375 21.644532.332031 32.203126-1.730468 5.082031.851563 10.621093 5.855469 12.558593 6.113281 2.363281 11.578125 5.867188 16.179687 10.332031l-17.113281 8.542969c-16.925781 8.449219-36.328125 3.566407-45.132812-11.351562-9.800781-16.667969-18.417969-34.199219-25.605469-52.101563-2.058594-5.125-7.886719-7.609375-13.007812-5.554687-5.125 2.058593-7.609376 7.878906-5.554688 13.003906 7.5625 18.832031 16.621094 37.265625 26.9375 54.804687 9.640625 16.335938 26.847656 25.367188 45.167969 25.367188 8.6875 0 17.628906-2.03125 26.132812-6.273438l290.679688-145.144531v38.074219c0 16.542969 13.457031 30 30 30s30-13.457031 30-30v-68.035156l7.144531-3.566406c.152344-.074219.300781-.152344.445312-.238282 16.285157-9.183594 26.410157-26.382812 26.429688-44.902344-.019531-18.503906-10.144531-35.703124-26.429688-44.886718zm-244.605468-6.558594c-35.3125 0-64.046875-28.730469-64.046875-64.046875 0-19.257813 8.652343-37.367187 23.394531-49.488281l104.632812 52.242187c-1.449218 34.042969-29.585937 61.292969-63.980468 61.292969zm69.003906 116.457031c0-29.796875 24.238281-54.035156 54.03125-54.035156 27.019531 0 49.355469 19.59375 53.375 45.640625l-92.15625 46.011719c-9.753906-10.039063-15.25-23.4375-15.25-37.617188zm0 0"/><path d="m248.691406 281.957031c0-21.503906-19.289062-39-43-39-23.710937 0-43 17.496094-43 39 0 21.507813 19.289063 39 43 39 23.710938 0 43-17.492187 43-39zm-66 0c0-10.476562 10.316406-19 23-19s23 8.523438 23 19c0 10.476563-10.316406 19-23 19s-23-8.523437-23-19zm0 0"/><path d="m217.695312 118.46875c5.523438 0 10-4.480469 10-10.003906 0-5.523438-4.476562-10-10-10-5.519531 0-10 4.476562-10 10v.007812c0 5.519532 4.480469 9.996094 10 9.996094zm0 0"/><path d="m255.695312 147.46875c5.523438 0 10-4.480469 10-10.003906 0-5.523438-4.476562-10-10-10-5.519531 0-10 4.476562-10 10v.007812c0 5.519532 4.480469 9.996094 10 9.996094zm0 0"/><path d="m355.695312 260.464844c-5.519531 0-10 4.476562-10 10v.007812c0 5.519532 4.480469 9.996094 10 9.996094 5.523438 0 10-4.480469 10-10.003906 0-5.523438-4.476562-10-10-10zm0 0"/><path d="m338.695312 180.464844v.007812c0 5.519532 4.480469 9.996094 10 9.996094 5.523438 0 10-4.480469 10-10.003906 0-5.523438-4.476562-10-10-10-5.519531 0-10 4.476562-10 10zm0 0"/><path d="m135.695312 206.464844v.007812c0 5.519532 4.480469 9.996094 10 9.996094 5.523438 0 10-4.480469 10-10.003906 0-5.523438-4.476562-10-10-10-5.519531 0-10 4.476562-10 10zm0 0"/><path d="m163.695312 351.464844v.007812c0 5.523438 4.480469 9.996094 10 9.996094 5.523438 0 10-4.480469 10-10.003906 0-5.523438-4.476562-10-10-10-5.519531 0-10 4.476562-10 10zm0 0"/><path d="m33.570312 330.785156c-1.515624-5.308594-7.050781-8.382812-12.359374-6.867187-5.3125 1.515625-8.386719 7.050781-6.871094 12.359375l.003906.007812c1.253906 4.394532 5.257812 7.253906 9.605469 7.253906.910156 0 1.835937-.125 2.753906-.390624 5.3125-1.515626 8.386719-7.050782 6.867187-12.363282zm0 0"/><path d="m421.484375 175.503906.003906.003906c1.285157.550782 2.621094.808594 3.9375.808594 3.878907 0 7.566407-2.269531 9.191407-6.0625 2.175781-5.074218-.179688-10.957031-5.253907-13.132812-5.078125-2.175782-10.957031.179687-13.132812 5.253906s.175781 10.953125 5.253906 13.128906zm0 0"/></svg>