<svg height="512pt" viewBox="0 -26 512 512" width="512pt" xmlns="http://www.w3.org/2000/svg"><path d="m406 160.007812h-46v-1.71875c11.636719-4.128906 20-15.246093 20-28.28125 0-16.542968-13.457031-30-30-30h-220c-5.523438 0-10 4.476563-10 10 0 5.523438 4.476562 10 10 10h220c5.511719 0 10 4.484376 10 10 0 5.511719-4.488281 10-10 10h-320c-5.515625 0-10-4.488281-10-10 0-5.515624 4.484375-10 10-10h10c5.523438 0 10-4.476562 10-10 0-5.523437-4.476562-10-10-10h-10c-16.542969 0-30 13.457032-30 30 0 13.035157 8.359375 24.152344 20 28.28125v271.71875c0 16.539063 13.457031 30 30 30h280c16.542969 0 30-13.460937 30-30v-10.003906h46c58.449219 0 106-47.550781 106-106v-47.996094c0-58.449218-47.550781-106-106-106zm-46 60h46c25.363281 0 46 20.636719 46 46v47.996094c0 25.367188-20.636719 46-46 46h-46zm-20 210c0 5.511719-4.484375 10-10 10h-280c-5.515625 0-10-4.488281-10-10v-270h300zm152-116.003906c0 47.421875-38.578125 86-86 86h-46v-20h46c36.394531 0 66-29.605468 66-66v-47.996094c0-36.394531-29.605469-66-66-66h-46v-20h46c47.421875 0 86 38.578126 86 86zm0 0"/><path d="m180.546875 62.78125c-1.96875 5.160156.617187 10.9375 5.777344 12.90625 1.175781.449219 2.378906.660156 3.5625.660156 4.03125 0 7.824219-2.449218 9.347656-6.4375 5.949219-15.597656 2.847656-26.46875.355469-35.203125-2.09375-7.328125-3.605469-12.625-.355469-21.140625 1.96875-5.160156-.621094-10.9375-5.777344-12.90625-5.160156-1.972656-10.941406.617188-12.910156 5.777344-5.621094 14.734375-2.609375 25.28125-.191406 33.757812 2.1875 7.667969 3.769531 13.207032.191406 22.585938zm0 0"/><path d="m77.800781 62.78125c-1.96875 5.160156.617188 10.9375 5.777344 12.90625 1.171875.449219 2.378906.660156 3.5625.660156 4.027344 0 7.824219-2.449218 9.347656-6.4375 5.949219-15.597656 2.847657-26.46875.355469-35.203125-2.09375-7.328125-3.605469-12.625-.355469-21.140625 1.96875-5.160156-.621093-10.9375-5.78125-12.90625-5.160156-1.96875-10.9375.621094-12.90625 5.777344-5.617187 14.734375-2.609375 25.28125-.1875 33.757812 2.183594 7.667969 3.765625 13.207032.1875 22.585938zm0 0"/><path d="m283.292969 62.78125c-1.96875 5.160156.617187 10.9375 5.777343 12.90625 1.171876.449219 2.378907.660156 3.5625.660156 4.027344 0 7.824219-2.449218 9.347657-6.4375 5.949219-15.597656 2.847656-26.46875.355469-35.203125-2.09375-7.328125-3.605469-12.625-.355469-21.140625 1.96875-5.160156-.621094-10.9375-5.78125-12.90625-5.160157-1.96875-10.9375.617188-12.90625 5.777344-5.617188 14.734375-2.609375 25.28125-.1875 33.757812 2.183593 7.667969 3.765625 13.207032.1875 22.585938zm0 0"/><path d="m310 400.003906h-54.996094c-5.523437 0-10 4.480469-10 10 0 5.523438 4.476563 10 10 10h54.996094c5.519531 0 10-4.476562 10-10 0-5.519531-4.480469-10-10-10zm0 0"/><path d="m210.007812 400.003906h-.007812c-5.523438 0-9.996094 4.480469-9.996094 10 0 5.523438 4.480469 10 10.003906 10 5.523438 0 10-4.476562 10-10 0-5.519531-4.480468-10-10-10zm0 0"/><path d="m85.003906 100.007812h-.007812c-5.519532 0-9.996094 4.476563-9.996094 10 0 5.523438 4.480469 10 10.003906 10 5.523438 0 10-4.476562 10-10 0-5.523437-4.476562-10-10-10zm0 0"/></svg>