<svg height="512pt" viewBox="0 -46 512 511" width="512pt" xmlns="http://www.w3.org/2000/svg"><path d="m484.9375 220.386719h-13.503906c-2.96875-26.742188-17.625-50.519531-40.167969-65.210938 14.4375-29.90625 9.289063-66.96875-15.488281-91.746093-1.875-1.875-4.417969-2.929688-7.070313-2.929688-2.652343 0-5.195312 1.054688-7.070312 2.929688l-50.445313 50.445312c-11.960937-18.609375-32.792968-30.371094-55.558594-30.371094-7.789062 0-15.484374 1.382813-22.730468 4.039063-4.875-10.785157-12.148438-20.480469-21.464844-28.308594-4.226562-3.554687-10.535156-3.007813-14.089844 1.222656-3.550781 4.226563-3.003906 10.535157 1.222656 14.089844 13.621094 11.441406 21.429688 28.191406 21.429688 45.953125 0 5.523438 4.476562 10 10 10s10-4.476562 10-10c0-4.664062-.410156-9.273438-1.195312-13.792969 5.332031-2.09375 11.039062-3.203125 16.828124-3.203125 17.378907 0 33.140626 9.835938 40.929688 25l-34.335938 34.335938c-3.902343 3.90625-3.902343 10.238281 0 14.144531 15.652344 15.652344 36.214844 23.480469 56.777344 23.480469s41.125-7.828125 56.777344-23.480469c1.621094-1.621094 3.140625-3.308594 4.59375-5.03125 16.867188 11.019531 28.046875 28.578125 30.898438 48.433594h-172.832032l-93.050781-93.050781c-1.875-1.875-4.417969-2.925782-7.070313-2.925782-2.652343 0-5.195312 1.050782-7.070312 2.925782-14.136719 14.136718-23.121094 32.039062-25.988281 51.773437-2.007813 13.808594-.773438 28.027344 3.421875 41.277344h-88.527344c-.09375-1.628907-.15625-3.257813-.15625-4.886719 0-42.066406 30.105469-77.367188 71.582031-83.941406 4.917969-.777344 8.515625-5.058594 8.433594-10.039063l-.003906-.269531c-.003907-.25-.011719-.5-.011719-.75 0-17.765625 7.816406-34.515625 21.4375-45.960938 4.230469-3.550781 4.777344-9.859374 1.226562-14.089843-3.554687-4.226563-9.863281-4.777344-14.089843-1.222657-16.339844 13.722657-26.410157 33.183594-28.261719 54.203126-21.226562 5.128906-40.484375 16.855468-54.882812 33.566406-16.398438 19.027344-25.429688 43.355468-25.429688 68.503906 0 1.628906.050781 3.257812.128906 4.886719h-13.066406c-14.921875 0-27.0625 12.335937-27.0625 27.5 0 25.398437 6.382812 50.640625 18.460938 73 11.777343 21.800781 28.804687 40.511719 49.246093 54.128906 4.683594 3.515625 10.230469 5.371094 16.074219 5.371094l62.21875-.007813v29.984375c0 5.519531 4.476562 10 10 10h200c5.523438 0 10-4.480469 10-10v-30.015625l62.210938-.007812h.023437c5.128906 0 10.132813-1.484375 14.484375-4.292969 21.15625-13.699219 38.726562-32.777344 50.820312-55.160156 12.078126-22.359375 18.460938-47.601563 18.460938-73 0-15.164063-12.140625-27.5-27.0625-27.5zm-160.910156-51.0625 84.09375-84.09375c16.78125 23.53125 14.617187 56.511719-6.484375 77.609375-21.097657 21.105468-54.074219 23.265625-77.609375 6.484375zm-145.226563-20.289063 71.355469 71.351563h-80.214844c-10.09375-23.8125-6.640625-50.898438 8.859375-71.351563zm167.199219 251.328125h-180v-19.988281l180-.027344zm129.941406-88.984375c-10.5 19.441406-25.75 36-44.085937 47.875-1.113281.71875-2.332031 1.085938-3.632813 1.085938h-.003906l-344.4375.046875c-1.902344 0-3.304688-.777344-4.152344-1.433594-.191406-.148437-.390625-.292969-.597656-.429687-17.835938-11.820313-32.699219-28.121094-42.972656-47.144532-10.503906-19.449218-16.058594-41.402344-16.058594-63.492187 0-4.132813 3.167969-7.5 7.0625-7.5h457.875c3.894531 0 7.0625 3.367187 7.0625 7.5 0 22.089843-5.554688 44.042969-16.058594 63.492187zm0 0"/><path d="m372.820312 20.503906c5.523438 0 10-4.480468 10-10.003906s-4.476562-10-10-10c-5.523437 0-10 4.476562-10 10v.007812c0 5.519532 4.476563 9.996094 10 9.996094zm0 0"/><path d="m125.808594 20.503906c5.523437 0 10-4.480468 10-10.003906s-4.476563-10-10-10c-5.523438 0-10 4.476562-10 10v.007812c0 5.519532 4.476562 9.996094 10 9.996094zm0 0"/><path d="m55.804688 95.089844c5.523437 0 10-4.480469 10-10.003906 0-5.523438-4.476563-10-10-10-5.523438 0-10 4.480468-10 10v.007812c0 5.523438 4.476562 9.996094 10 9.996094zm0 0"/><path d="m304.804688 53.089844c5.523437 0 10-4.480469 10-10.003906 0-5.523438-4.476563-10-10-10-5.523438 0-10 4.480468-10 10v.007812c0 5.523438 4.476562 9.996094 10 9.996094zm0 0"/><path d="m474.804688 128.097656c5.523437 0 10-4.480468 10-10.003906s-4.476563-10-10-10c-5.523438 0-10 4.476562-10 10v.007812c0 5.523438 4.476562 9.996094 10 9.996094zm0 0"/><path d="m208.804688 111.101562c0 5.519532 4.476562 9.996094 10 9.996094 5.523437 0 10-4.480468 10-10.003906s-4.476563-10-10-10c-5.523438 0-10 4.476562-10 10zm0 0"/><path d="m99.804688 189.09375v.007812c0 5.523438 4.476562 9.996094 10 9.996094 5.523437 0 10-4.480468 10-10.003906s-4.476563-10-10-10c-5.523438 0-10 4.476562-10 10zm0 0"/><path d="m418.21875 320.335938h-54.996094c-5.523437 0-10 4.476562-10 10 0 5.523437 4.476563 10 10 10h54.996094c5.523438 0 10-4.476563 10-10 0-5.523438-4.476562-10-10-10zm0 0"/><path d="m318.226562 320.335938h-.007812c-5.523438 0-9.996094 4.476562-9.996094 10 0 5.523437 4.480469 10 10.003906 10 5.523438 0 10-4.476563 10-10 0-5.523438-4.476562-10-10-10zm0 0"/><path d="m200.007812 60.5c5.523438 0 10-4.476562 10-10 0-5.519531-4.476562-10-10-10h-.007812c-5.523438 0-9.996094 4.480469-9.996094 10 0 5.523438 4.480469 10 10.003906 10zm0 0"/></svg>