<svg height="512pt" viewBox="0 0 512.0059 512" width="512pt" xmlns="http://www.w3.org/2000/svg"><path d="m476.003906 147.082031c4.03125-.105469 7.425782-.777343 10.425782-1.378906 4.539062-.910156 7.816406-1.566406 12.984374-.183594 5.335938 1.433594 10.820313-1.734375 12.25-7.070312 1.429688-5.332031-1.738281-10.816407-7.074218-12.246094-9.683594-2.597656-16.5625-1.21875-22.089844-.109375-2.34375.472656-4.363281.871094-6.496094.980469v-39.988281c4.03125-.109376 7.425782-.777344 10.425782-1.378907 4.542968-.910156 7.820312-1.570312 12.984374-.1875 5.339844 1.433594 10.820313-1.734375 12.25-7.070312 1.429688-5.332031-1.738281-10.816407-7.074218-12.246094-9.683594-2.597656-16.5625-1.214844-22.089844-.109375-2.34375.472656-4.363281.875-6.496094.980469v-1.980469c0-15.980469-12.957031-28.992188-28.917968-29.085938-.105469-4.03125-.78125-7.429687-1.382813-10.429687-.90625-4.539063-1.566406-7.816406-.183594-12.984375 1.433594-5.335938-1.734375-10.816406-7.070312-12.246094-5.328125-1.429687-10.816407 1.734375-12.246094 7.070313-2.59375 9.6875-1.214844 16.5625-.109375 22.089843.472656 2.34375.871094 4.363282.980469 6.496094h-39.988281c-.105469-4.03125-.777344-7.425781-1.378907-10.425781-.910156-4.539063-1.566406-7.816406-.183593-12.984375 1.429687-5.335938-1.734376-10.816406-7.070313-12.246094-5.332031-1.429687-10.816406 1.734375-12.246094 7.070313-2.597656 9.6875-1.21875 16.5625-.109375 22.089843.46875 2.34375.871094 4.363282.976563 6.496094h-39.984375c-.109375-4.03125-.78125-7.425781-1.382813-10.425781-.910156-4.539063-1.566406-7.816406-.183593-12.984375 1.429687-5.335938-1.734376-10.816406-7.070313-12.246094-5.328125-1.429687-10.816406 1.734375-12.246094 7.070313-2.597656 9.683593-1.21875 16.5625-.109375 22.089843.46875 2.34375.871094 4.363282.980469 6.496094h-39.988281c-.105469-4.03125-.78125-7.425781-1.382813-10.425781-.90625-4.539063-1.566406-7.816406-.183593-12.984375 1.429687-5.335938-1.734376-10.816406-7.070313-12.246094-5.335937-1.429687-10.816406 1.738282-12.246094 7.070313-2.59375 9.6875-1.214843 16.5625-.109375 22.089843.472656 2.34375.875 4.367188.980469 6.5h-39.988281c-.105469-4.035156-.777344-7.429687-1.378906-10.429687-.910157-4.539063-1.566407-7.816406-.183594-12.984375 1.429687-5.332031-1.738282-10.816406-7.074219-12.246094-5.335937-1.429687-10.816406 1.738282-12.246094 7.070313-2.59375 9.6875-1.214843 16.566406-.105469 22.09375.46875 2.339843.871094 4.363281.976563 6.496093h-36.070313c-2.625 0-5.210937 1.070313-7.070312 2.929688l-20.679688 20.675781c-3.902343 3.902344-3.902343 10.234375 0 14.140625 3.90625 3.90625 10.238282 3.90625 14.144532 0l3.605468-3.605468v61.765624c0 5.011719-4.078124 9.089844-9.089843 9.089844h-61.765625l3.609375-3.609375c3.90625-3.90625 3.90625-10.238281 0-14.144531-3.90625-3.902344-10.234375-3.902344-14.144531 0l-20.679688 20.683594c-1.859375 1.859375-2.929688 4.445312-2.929688 7.070312v33.917969c-4.03125.105469-7.429687.78125-10.429687 1.382813-4.539063.910156-7.820313 1.566406-12.984375.183593-5.339844-1.429687-10.816406 1.738281-12.246094 7.070313-1.429687 5.335937 1.734375 10.816406 7.070313 12.246094 4.082031 1.09375 7.664062 1.480468 10.855469 1.480468 4.386718 0 8.039062-.730468 11.234374-1.371094 2.34375-.46875 4.367188-.871093 6.5-.980468v39.988281c-4.035156.105469-7.429687.777344-10.429687 1.378906-4.539063.910157-7.816406 1.566407-12.984375.183594-5.332031-1.429687-10.816406 1.738281-12.246094 7.070313-1.429687 5.335937 1.734375 10.816406 7.070313 12.246093 4.082031 1.097657 7.664062 1.484375 10.855469 1.484375 4.386718 0 8.039062-.734375 11.234374-1.375 2.34375-.46875 4.363282-.871094 6.496094-.976562v39.988281c-4.03125.105469-7.425781.777344-10.425781 1.378906-4.539063.910157-7.816406 1.566407-12.984375.183594-5.335938-1.433594-10.816406 1.738281-12.25 7.070313-1.429688 5.335937 1.738281 10.816406 7.074219 12.246093 4.078125 1.09375 7.664062 1.480469 10.855469 1.480469 4.386718 0 8.035156-.730469 11.234374-1.371094 2.34375-.46875 4.363282-.871094 6.496094-.980468v39.988281c-4.03125.105469-7.425781.78125-10.425781 1.382812-4.539063.90625-7.820313 1.566407-12.988281.179688-5.332032-1.425781-10.816406 1.738281-12.246094 7.074219-1.429688 5.332031 1.738281 10.816406 7.070312 12.246093 4.082032 1.09375 7.664063 1.480469 10.859376 1.480469 4.382812 0 8.035156-.730469 11.234374-1.375 2.339844-.46875 4.363282-.871094 6.496094-.976562v39.988281c-4.03125.105469-7.429687.777343-10.429687 1.378906-4.535157.910156-7.816407 1.566406-12.984375.183594-5.332032-1.429688-10.816406 1.738281-12.246094 7.070312-1.429688 5.335938 1.734375 10.816407 7.070312 12.246094 4.082032 1.09375 7.664063 1.480469 10.855469 1.480469 4.386719 0 8.039063-.730469 11.238281-1.371094 2.339844-.46875 4.363282-.871094 6.496094-.980469v1.980469c0 15.984375 12.957032 28.992188 28.917969 29.085938.105469 4.035156.777344 7.429687 1.378906 10.433593.910157 4.539063 1.566407 7.816407.183594 12.984375-1.429687 5.335938 1.738281 10.816406 7.070313 12.246094.867187.230469 1.738281.34375 2.597656.34375 4.414062 0 8.453125-2.945312 9.652344-7.414062 2.59375-9.6875 1.214843-16.5625.105468-22.09375-.46875-2.339844-.871094-4.363282-.976562-6.496094h39.984375c.109375 4.03125.78125 7.425781 1.382812 10.425781.90625 4.539063 1.566407 7.820313.183594 12.988281-1.429687 5.332032 1.734375 10.816406 7.070313 12.246094.863281.230469 1.734374.34375 2.59375.34375 4.414062 0 8.453124-2.945312 9.652343-7.414062 2.59375-9.6875 1.214844-16.566407.109375-22.09375-.46875-2.339844-.871094-4.363282-.980468-6.496094h39.988281c.105469 4.03125.78125 7.425781 1.382812 10.425781.90625 4.539063 1.566407 7.820313.179688 12.988281-1.429688 5.332032 1.738281 10.816406 7.074219 12.246094.863281.230469 1.734374.34375 2.59375.34375 4.414062 0 8.453124-2.945312 9.652343-7.414062 2.59375-9.6875 1.214844-16.566407.105469-22.09375-.46875-2.339844-.871094-4.363282-.976562-6.496094h39.988281c.105469 4.03125.777343 7.425781 1.378906 10.425781.910156 4.539063 1.566406 7.820313.183594 12.988281-1.429688 5.332032 1.738281 10.816406 7.070312 12.246094.867188.230469 1.738281.34375 2.59375.34375 4.417969 0 8.457031-2.945312 9.652344-7.414062 2.597656-9.6875 1.21875-16.566407.109375-22.09375-.46875-2.339844-.871094-4.363282-.976562-6.496094h39.988281c.105469 4.03125.777343 7.425781 1.378906 10.425781.910156 4.539063 1.566406 7.820313.183594 12.988281-1.429688 5.332032 1.734375 10.816406 7.070312 12.246094.867188.230469 1.738281.34375 2.59375.34375 4.417969 0 8.457031-2.945312 9.652344-7.414062 2.597656-9.6875 1.21875-16.566407.109375-22.09375-.46875-2.339844-.871094-4.363282-.976562-6.496094h39.984374c.105469 4.03125.78125 7.425781 1.382813 10.429687.910156 4.539063 1.566406 7.816407.183594 12.984375-1.429688 5.335938 1.734375 10.816406 7.070312 12.246094.867188.230469 1.738281.34375 2.59375.34375 4.414063 0 8.457031-2.945312 9.652344-7.414062 2.59375-9.6875 1.214844-16.5625.109375-22.09375-.472656-2.339844-.875-4.363282-.980469-6.496094h39.988281c.105469 4.03125.777344 7.425781 1.378907 10.425781.910156 4.539063 1.566406 7.820313.183593 12.988281-1.429687 5.332032 1.734376 10.816406 7.070313 12.246094.867187.230469 1.738281.34375 2.59375.34375 4.417969 0 8.457031-2.945312 9.652344-7.414062 2.597656-9.6875 1.21875-16.566407.109375-22.09375-.46875-2.339844-.871094-4.363282-.976563-6.496094h1.976563c15.984375 0 28.996094-12.957032 29.085937-28.921875 4.035157-.105469 7.429688-.777344 10.429688-1.378907 4.539062-.910156 7.816406-1.566406 12.988281-.183593 5.332031 1.433593 10.816406-1.734375 12.246094-7.070313 1.429687-5.332031-1.734375-10.816406-7.070313-12.246094-9.6875-2.597656-16.566406-1.21875-22.09375-.109374-2.339843.46875-4.363281.871093-6.496093.980468v-39.988281c4.03125-.105469 7.429687-.777344 10.429687-1.378906 4.539063-.910157 7.816406-1.566407 12.984375-.183594 5.339844 1.433594 10.816406-1.738281 12.246094-7.074219 1.429687-5.332031-1.734375-10.816406-7.070313-12.246094-9.6875-2.59375-16.5625-1.214843-22.09375-.105468-2.339843.46875-4.363281.871094-6.496093.976562v-39.988281c4.03125-.105469 7.425781-.777344 10.425781-1.378906 4.539062-.910157 7.816406-1.566407 12.988281-.183594 5.332031 1.433594 10.816406-1.734375 12.246094-7.070313 1.429687-5.335937-1.734375-10.816406-7.070313-12.246093-9.6875-2.597657-16.566406-1.21875-22.09375-.109375-2.339843.46875-4.363281.871094-6.496093.976562v-39.988281c4.03125-.105469 7.425781-.777344 10.425781-1.378906 4.539062-.910157 7.816406-1.566407 12.988281-.179688 5.332031 1.433594 10.816406-1.738281 12.246094-7.074219 1.429687-5.332031-1.734375-10.816406-7.070313-12.246093-9.6875-2.597657-16.566406-1.21875-22.09375-.105469-2.339843.46875-4.363281.871094-6.496093.976562v-39.988281c4.03125-.109375 7.425781-.78125 10.425781-1.378906 4.539062-.914063 7.816406-1.570313 12.988281-.183594 5.332031 1.429688 10.816406-1.738281 12.246094-7.070312 1.429687-5.335938-1.734375-10.820313-7.070313-12.25-9.6875-2.59375-16.566406-1.214844-22.09375-.105469-2.339843.46875-4.363281.871094-6.496093.976562v-39.988281zm-314.996094 308.917969v-32.5h32.5v32.5zm-52.5 0v-32.5h32.5v32.5zm32.5-294.996094v32.5h-32.5v-32.5zm234.820313-105c.011719 0 .027344.003906.039063.003906.023437 0 .042968-.003906.066406-.003906h27.570312v32.5h-32.5v-32.5zm-214.820313 52.5h32.5v32.5h-32.5zm242.496094 137.5h-32.5v-32.5h32.5zm20-32.5h32.5v32.5h-32.5zm-314.996094 52.496094h32.5v32.5h-32.5zm-20 32.5h-32.5v-32.5h32.5zm72.5-32.5h32.5v32.5h-32.5zm52.5 0h32.5v32.5h-32.5zm84.996094-19.996094h-32.5v-32.5h32.5zm20-32.5h32.5v32.5h-32.5zm-52.5-20v-32.5h32.5v32.5zm-19.996094 0h-32.5v-32.5h32.5zm0 20v32.5h-32.5v-32.5zm0 104.996094v32.5h-32.5v-32.5zm19.996094 0h32.5v32.5h-32.5zm0-20v-32.5h32.5v32.5zm52.5-32.5h32.5v32.5h-32.5zm52.5 0h32.5v32.5h-32.5zm0-72.496094v-32.5h32.5v32.5zm-20 0h-32.5v-32.5h32.5zm-32.5-52.5v-32.5h32.5v32.5zm-20 0h-32.5v-32.5h32.5zm-52.496094 0h-32.5v-32.5h32.5zm-52.5 20v32.5h-32.5v-32.5zm0 52.5v32.5h-32.5v-32.5zm-52.5 32.5h-32.5v-32.5h32.5zm-52.5 0h-32.5v-32.5h32.5zm-32.5 72.496094h32.5v32.5h-32.5zm52.5 0h32.5v32.5h-32.5zm52.5 0h32.5v32.5h-32.5zm32.5 52.5v32.5h-32.5v-32.5zm20 0h32.5v32.5h-32.5zm52.496094 0h32.5v32.5h-32.5zm52.5 0h32.5v32.5h-32.5zm0-20v-32.5h32.5v32.5zm52.5-32.5h32.5v32.5h-32.5zm52.5 0h32.5v32.5h-32.5zm0-20v-32.5h32.5v32.5zm32.5-104.996094h-32.5v-32.5h32.5zm0-52.5h-32.5v-32.5h32.5zm-52.5 0h-32.5v-32.5h32.5zm-52.5-52.5h-32.5v-32.5h32.5zm-52.5 0h-32.5v-32.5h32.5zm-52.496094 0h-32.5v-32.5h32.5zm-52.5-32.5v32.5h-32.5v-32.5zm-105 137.5h-32.5v-32.5h32.5zm-32.5 177.496094h32.5v32.5h-32.5zm52.5 0h32.5v32.5h-32.5zm105 52.5h32.5v32.5h-32.5zm52.496094 0h32.5v32.5h-32.5zm52.5 32.5v-32.5h32.5v32.5zm52.5 0v-32.5h32.5v32.5zm0-52.5v-32.5h32.5v32.5zm52.5-32.5h32.5v32.5h-32.5zm32.5-305.90625v23.410156h-32.5v-32.5h12.320313c.015625 0 .027343.003906.042969.003906.023437 0 .046874-.003906.070312-.003906h10.976562c5.011719 0 9.089844 4.078125 9.089844 9.089844zm-399.996094 381.816406v-23.410156h32.5v32.5h-23.410156c-5.011718 0-9.089844-4.078125-9.089844-9.089844zm390.90625 9.089844h-23.410156v-32.5h32.5v23.40625c0 5.015625-4.078125 9.09375-9.089844 9.09375zm0 0"/><path d="m92.105469 106.1875c1.871093 1.558594 4.140625 2.316406 6.398437 2.316406 2.863282 0 5.707032-1.226562 7.6875-3.597656l.003906-.007812c3.535157-4.242188 2.957032-10.542969-1.285156-14.082032-4.242187-3.53125-10.550781-2.957031-14.085937 1.285156-3.535157 4.242188-2.960938 10.550782 1.28125 14.085938zm0 0"/></svg>