<svg height="512pt" viewBox="0 -66 512.00046 512" width="512pt" xmlns="http://www.w3.org/2000/svg"><path d="m373.949219 121.125c-40.886719 0-71.402344 16.703125-98.320313 31.441406-4.84375 2.648438-6.625 8.726563-3.972656 13.570313 2.652344 4.847656 8.730469 6.625 13.574219 3.972656 26.03125-14.25 52.949219-28.984375 88.722656-28.984375 65.089844 0 118.046875 49.09375 118.046875 109.4375 0 60.339844-52.957031 109.433594-118.046875 109.433594-35.820313 0-62.472656-14.601563-90.6875-30.058594-26.203125-14.355469-53.300781-29.203125-90.183594-34.972656-21.144531-3.3125-25.859375-7.316406-26.90625-8.886719-.84375-1.261719-.539062-4.054687.160157-7.441406.003906-.011719.007812-.019531.007812-.03125.34375-1.648438.777344-3.429688 1.21875-5.246094 1.492188-6.121094 3.351562-13.742187 3.351562-22.429687 0-8.640626-1.84375-16.296876-3.324218-22.445313-1.398438-5.796875-2.714844-11.269531-1.335938-13.328125 1.078125-1.609375 5.851563-5.714844 26.832032-8.996094 1.8125-.285156 3.722656-.617187 5.847656-1.019531 5.429687-1.019531 9-6.246094 7.980468-11.675781-1.019531-5.425782-6.246093-8.992188-11.675781-7.976563-1.921875.359375-3.640625.660157-5.246093.910157-22.363282 3.5-34.433594 8.773437-40.363282 17.640624-2.28125 3.414063-3.398437 6.921876-3.796875 10.476563h-77.957031l-.550781-.949219c-9.972657-17.21875-32.089844-23.113281-49.308594-13.140625-8.339844 4.832031-14.300781 12.621094-16.78125 21.933594-2.484375 9.3125-1.1914062 19.039063 3.632813 27.367187l.484374.835938-.476562.820312c-9.972656 17.21875-4.078125 39.339844 13.140625 49.3125 5.570313 3.226563 11.753906 4.875 18.023437 4.875 3.121094 0 6.257813-.40625 9.351563-1.230468 9.3125-2.480469 17.105469-8.441406 21.941406-16.792969l.542969-.941406h77.910156c.355469 3.582031 1.453125 7.125 3.75 10.570312 5.855469 8.777344 17.953125 14.027344 40.457032 17.550781 33.429687 5.230469 58.96875 19.21875 83.664062 32.75 29.183594 15.988282 59.355469 32.519532 100.296875 32.519532 76.117187 0 138.046875-58.0625 138.046875-129.433594s-61.929688-129.4375-138.050781-129.4375zm-311.847657 145.480469c-3.574218 0-6.875 1.90625-8.660156 5l-3.421875 5.925781c-2.152343 3.71875-5.625 6.375-9.777343 7.480469-4.152344 1.105469-8.488282.53125-12.203126-1.621094-7.675781-4.445313-10.304687-14.308594-5.851562-21.992187l3.367188-5.835938c1.789062-3.09375 1.789062-6.90625 0-10l-3.375-5.847656c-2.152344-3.71875-2.730469-8.054688-1.625-12.203125 1.105468-4.152344 3.765624-7.625 7.480468-9.777344 7.675782-4.445313 17.539063-1.820313 21.976563 5.84375l3.429687 5.9375c1.785156 3.09375 5.085938 5 8.660156 5h86.363282c1.253906 5.234375 2.445312 10.644531 2.445312 16.414063 0 5.535156-1.09375 10.695312-2.292968 15.675781zm0 0"/><path d="m418.953125 328.675781c1.597656 0 3.214844-.382812 4.71875-1.1875 30.261719-16.230469 48.328125-44.984375 48.328125-76.925781 0-5.523438-4.476562-10-10-10s-10 4.476562-10 10c0 24.445312-14.121094 46.613281-37.777344 59.300781-4.867187 2.609375-6.699218 8.667969-4.089844 13.535157 1.804688 3.363281 5.257813 5.277343 8.820313 5.277343zm0 0"/><path d="m364.574219 62.78125c-1.96875 5.160156.621093 10.9375 5.78125 12.90625 1.171875.445312 2.375.660156 3.5625.660156 4.027343 0 7.824219-2.453125 9.34375-6.4375 5.949219-15.597656 2.847656-26.46875.355469-35.203125-2.09375-7.328125-3.601563-12.625-.355469-21.140625 1.96875-5.15625-.617188-10.9375-5.777344-12.90625-5.164063-1.972656-10.941406.621094-12.910156 5.78125-5.617188 14.730469-2.609375 25.277344-.1875 33.753906 2.183593 7.667969 3.765625 13.207032.1875 22.585938zm0 0"/><path d="m281.832031 91.839844c-1.96875 5.160156.617188 10.9375 5.777344 12.90625 1.171875.449218 2.378906.660156 3.5625.660156 4.027344 0 7.824219-2.453125 9.34375-6.4375 5.949219-15.597656 2.847656-26.46875.355469-35.203125-2.089844-7.328125-3.601563-12.625-.355469-21.136719 1.96875-5.160156-.617187-10.941406-5.777344-12.910156-5.164062-1.96875-10.9375.621094-12.90625 5.78125-5.621093 14.730469-2.609375 25.277344-.191406 33.757812 2.1875 7.664063 3.769531 13.203126.191406 22.582032zm0 0"/><path d="m447.320312 91.839844c-1.96875 5.160156.617188 10.9375 5.777344 12.90625 1.171875.449218 2.378906.660156 3.5625.660156 4.027344 0 7.824219-2.453125 9.34375-6.4375 5.953125-15.597656 2.851563-26.46875.355469-35.203125-2.089844-7.328125-3.601563-12.625-.355469-21.136719 1.96875-5.160156-.617187-10.941406-5.777344-12.910156-5.164062-1.96875-10.9375.621094-12.90625 5.78125-5.621093 14.730469-2.609374 25.277344-.191406 33.753906 2.1875 7.667969 3.769532 13.207032.191406 22.585938zm0 0"/><path d="m383.949219 329.996094c0-5.523438-4.476563-10-10-10h-.007813c-5.519531 0-9.996094 4.476562-9.996094 10 0 5.519531 4.484376 10 10.003907 10 5.523437 0 10-4.476563 10-10zm0 0"/><path d="m240.226562 191.832031c1.316407 0 2.652344-.261719 3.933594-.8125l.007813-.003906c5.078125-2.175781 7.425781-8.050781 5.25-13.128906s-8.0625-7.425781-13.132813-5.25c-5.078125 2.175781-7.429687 8.054687-5.253906 13.132812 1.625 3.792969 5.316406 6.0625 9.195312 6.0625zm0 0"/></svg>