<svg height="511pt" viewBox="0 0 511 511.99969" width="511pt" xmlns="http://www.w3.org/2000/svg"><path d="m507.007812 77.542969c-6.085937-13.382813-16.867187-28.1875-30.367187-41.6875-13.496094-13.496094-28.300781-24.28125-41.6875-30.363281-21-9.546876-32.082031-4.878907-37.679687.714843l-15.316407 15.316407c-3.902343 3.902343-3.902343 10.234374 0 14.140624 3.242188 3.238282 8.144531 3.78125 11.953125 1.648438.726563 2.078125 1.59375 4.261719 2.644532 6.578125 6.085937 13.382813 16.871093 28.1875 30.367187 41.683594 13.5 13.5 28.300781 24.28125 41.6875 30.367187 2.160156.984375 4.21875 1.8125 6.171875 2.511719l-71.539062 71.542969c-.703126.472656-5.910157 1.238281-16.757813-3.992188-10.894531-5.253906-23.101563-14.351562-34.371094-25.621094-4.113281-4.117187-7.933593-8.355468-11.390625-12.613281-.027344-.03125-.050781-.0625-.078125-.09375-5.96875-7.367187-10.828125-14.777343-14.152343-21.664062-5.230469-10.847657-4.460938-16.050781-4.023438-16.714844l9.996094-10c3.90625-3.90625 3.90625-10.238281 0-14.140625-3.902344-3.90625-10.234375-3.90625-14.140625 0l-9.996094 9.996094c-5.597656 5.597656-10.265625 16.679687-.71875 37.683594 2.972656 6.539062 7.074219 13.417968 12.058594 20.320312l-20.105469 20.105469-42.089844 30.726562c-.417968.304688-.808594.640625-1.175781 1.007813l-100.3125 100.316406-28.0625 8.898438c-2.0625.652343-3.859375 1.957031-5.117187 3.71875l-51.402344 71.96875-61.847656 61.84375c-12.074219 12.074218-12.074219 31.71875 0 43.792968l7.410156 7.410156c6.039062 6.035157 13.964844 9.054688 21.894531 9.054688s15.859375-3.019531 21.894531-9.054688l12.71875-12.71875c3.90625-3.90625 3.90625-10.238281 0-14.140624-3.902344-3.90625-10.234375-3.90625-14.140625 0l-12.71875 12.71875c-4.273437 4.273437-11.230469 4.273437-15.507812 0l-7.414063-7.414063c-4.273437-4.273437-4.273437-11.230469 0-15.507813l62.433594-62.429687c.390625-.390625.746094-.8125 1.066406-1.261719l49.949219-69.925781 27.210937-8.628906c1.527344-.484375 2.914063-1.328125 4.046876-2.460938l101.492187-101.492187 42.089844-30.726563c.417969-.304687.808593-.640625 1.175781-1.003906l19.246094-19.25c1.800781 1.957031 3.65625 3.902344 5.570312 5.820313.964844.964843 1.941406 1.910156 2.917969 2.851562l-13.941406 16.265625-61.742188 61.742187c-.316406.320313-.613281.660157-.886719 1.015626l-46.6875 61.382812-94.667968 94.667969c-3.90625 3.90625-3.90625 10.238281 0 14.144531 1.953125 1.953125 4.511718 2.925781 7.070312 2.925781s5.117188-.976562 7.070313-2.925781l95.148437-95.148438c.316406-.316406.613282-.65625.886719-1.015624l46.6875-61.386719 61.53125-61.53125c.183594-.183594.355469-.371094.523437-.5625l14.179688-16.546875c7.992188 6.09375 16.023438 11.042968 23.597656 14.488281 8.761719 3.980469 15.796875 5.492187 21.425782 5.492187 7.867187-.003906 12.992187-2.949218 16.253906-6.210937l88.949218-88.945313c5.597657-5.597656 10.265626-16.679687.71875-37.683593zm-65.945312-6.109375c-11.269531-11.265625-20.367188-23.476563-25.621094-34.371094-5.136718-10.652344-4.488281-15.851562-4.019531-16.703125.84375-.46875 6.042969-1.128906 16.707031 4.015625 10.894532 5.253906 23.101563 14.351562 34.371094 25.621094 11.269531 11.269531 20.371094 23.476562 25.625 34.375 5.191406 10.773437 4.46875 15.972656 4.03125 16.695312-.789062.46875-5.988281 1.167969-16.722656-4.007812-10.898438-5.257813-23.101563-14.355469-34.371094-25.625zm0 0"/><path d="m350.808594 68.09375c1.871094 1.558594 4.140625 2.316406 6.394531 2.316406 2.867187 0 5.710937-1.226562 7.6875-3.597656l.007813-.003906c3.53125-4.242188 2.957031-10.546875-1.285157-14.082032-4.242187-3.53125-10.550781-2.957031-14.085937 1.285157-3.535156 4.242187-2.960938 10.546875 1.28125 14.082031zm0 0"/><path d="m91.816406 443.660156c-4.242187 3.535156-4.816406 9.839844-1.28125 14.082032 1.980469 2.375 4.824219 3.597656 7.6875 3.597656 2.257813 0 4.527344-.757813 6.394532-2.316406l.007812-.003907c4.242188-3.535156 4.8125-9.839843 1.277344-14.082031s-9.84375-4.8125-14.085938-1.277344zm0 0"/></svg>